STARTFONT 2.1
COMMENT
COMMENT Converted from OpenType font "uvnbaisau_regular.ttf" by "otf2bdf 3.0".
COMMENT
FONT -FreeType-UVN Bai Sau-Bold-R-Normal--44-320-100-100-P-219-ISO10646-1
SIZE 32 100 100
FONTBOUNDINGBOX 62 62 -7 -12
STARTPROPERTIES 19
FOUNDRY "FreeType"
FAMILY_NAME "UVN Bai Sau"
WEIGHT_NAME "Bold"
SLANT "R"
SETWIDTH_NAME "Normal"
ADD_STYLE_NAME ""
PIXEL_SIZE 44
POINT_SIZE 320
RESOLUTION_X 100
RESOLUTION_Y 100
SPACING "P"
AVERAGE_WIDTH 219
CHARSET_REGISTRY "ISO10646"
CHARSET_ENCODING "1"
FONT_ASCENT 49
FONT_DESCENT 11
COPYRIGHT "(c) Copyright 2001 by Tom Truong. All Rights Reserved"
_OTF_FONTFILE "uvnbaisau_regular.ttf"
_OTF_PSNAME "UVNBaiSauBold"
ENDPROPERTIES
CHARS 383
STARTCHAR 0020
ENCODING 32
SWIDTH 270 0
DWIDTH 12 0
BBX 0 0 0 0
BITMAP
ENDCHAR
STARTCHAR 0021
ENCODING 33
SWIDTH 315 0
DWIDTH 14 0
BBX 9 32 3 -1
BITMAP
FF00
FF00
FF00
FF00
FF00
FF00
FF00
FF00
FF00
FF00
FF00
FF00
FF00
7F00
7F00
7F00
7F00
7F00
7F00
7F00
7F00
0000
0000
3E00
7F00
FF00
FF80
FF80
FF00
FF00
7E00
0800
ENDCHAR
STARTCHAR 0022
ENCODING 34
SWIDTH 337 0
DWIDTH 15 0
BBX 12 12 2 19
BITMAP
F1F0
F1F0
F1F0
F1F0
F1F0
F1F0
F1F0
F1F0
F1F0
F1F0
F1F0
F1F0
ENDCHAR
STARTCHAR 0023
ENCODING 35
SWIDTH 765 0
DWIDTH 34 0
BBX 32 32 1 0
BITMAP
0003E0FC
0007E0F8
0007C0F8
0007C1F8
000FC1F0
000F83F0
000F83F0
001F83E0
001F07E0
0FFFFFFF
0FFFFFFF
0FFFFFFF
1FFFFFFE
1FFFFFFE
007C1F80
00FC1F00
00F81F00
00F83F00
01F83E00
7FFFFFF8
7FFFFFF8
FFFFFFF0
FFFFFFF0
FFFFFFF0
07E0F800
07C1F800
0FC1F800
0FC1F000
0F83F000
1F83E000
1F03E000
1F07E000
ENDCHAR
STARTCHAR 0024
ENCODING 36
SWIDTH 562 0
DWIDTH 25 0
BBX 17 36 5 -2
BITMAP
03C000
03C000
03C000
03C000
03FE00
1FFE00
7FFE00
7FFE00
FFFE00
FFFE00
FE0000
FE0000
FF0000
FF8000
7FC000
7FF000
3FF800
1FFC00
07FE00
03FF00
01FF00
00FF80
007F80
007F80
FFFF80
FFFF80
FFFF00
FFFF00
FFFE00
FFFC00
FFE000
03C000
03C000
03C000
03C000
03C000
ENDCHAR
STARTCHAR 0025
ENCODING 37
SWIDTH 855 0
DWIDTH 38 0
BBX 35 31 2 0
BITMAP
07E000F800
1FF000F000
3FF801F000
7FFC01E000
FFFE03E000
FC3E07C000
F83E078000
F01F0F8000
F01F1F0000
F83E1E0000
FC7E3E0000
FFFE3C0000
7FFC7C0000
3FF8F80000
1FF0F00000
07C1F07C00
0003E1FF00
0003C3FF80
0007C7FFC0
00078FFFE0
000F8F87E0
001F1F83E0
001E1F03E0
003E1F03E0
007C1F83E0
007C0F87E0
00F80FFFE0
00F007FFC0
01F007FF80
03E001FF00
03C000FC00
ENDCHAR
STARTCHAR 0026
ENCODING 38
SWIDTH 742 0
DWIDTH 33 0
BBX 31 32 2 -1
BITMAP
03FFFC00
0FFFFC00
1FFFFC00
1FFFFC00
1FFFFC00
1FFFFC00
1FFFFC00
0FF80000
07FC00C0
07FE01E0
0FFF03F0
1FFF0FF0
3FFF87F8
7FFFC7F8
7FFFE3F8
7F9FF3F8
FF9FF3FC
FF0FFBFC
FF07FFF8
FF03FFF8
FF03FFF8
FF01FFF8
7F80FFF0
7FC07FF0
7FFFFFE0
3FFFFFE0
1FFFFFF0
0FFFFFF8
07FFFFFC
03FFFFFE
00FFF3FE
00040000
ENDCHAR
STARTCHAR 0027
ENCODING 39
SWIDTH 180 0
DWIDTH 8 0
BBX 4 12 2 19
BITMAP
F0
F0
F0
F0
F0
F0
F0
F0
F0
F0
F0
F0
ENDCHAR
STARTCHAR 0028
ENCODING 40
SWIDTH 382 0
DWIDTH 17 0
BBX 14 41 3 -9
BITMAP
0060
00F0
01F8
03F8
07F0
07E0
0FC0
1FC0
1F80
3F00
3F00
3E00
7E00
7E00
7C00
7C00
7C00
FC00
FC00
FC00
FC00
FC00
FC00
FC00
7C00
7C00
7E00
7E00
7E00
3F00
3F00
1F80
1F80
0FC0
0FE0
07F0
03F8
03FC
01F8
00F0
0060
ENDCHAR
STARTCHAR 0029
ENCODING 41
SWIDTH 382 0
DWIDTH 17 0
BBX 13 42 1 -10
BITMAP
1000
3800
7C00
FE00
FE00
7F00
3F80
1FC0
0FC0
0FE0
07E0
07F0
03F0
03F0
01F0
01F8
01F8
01F8
00F8
00F8
00F8
00F8
00F8
00F8
00F8
01F8
01F8
01F8
01F0
03F0
03F0
03E0
07E0
0FE0
0FC0
1F80
3F80
7F00
FE00
7E00
3C00
1800
ENDCHAR
STARTCHAR 002A
ENCODING 42
SWIDTH 472 0
DWIDTH 21 0
BBX 16 15 3 16
BITMAP
07E0
23C0
33CC
7BDE
7DBE
FFFF
7FFE
07C0
3FFC
FFFF
7DBE
7BDE
33CC
23C4
07C0
ENDCHAR
STARTCHAR 002B
ENCODING 43
SWIDTH 832 0
DWIDTH 37 0
BBX 26 27 6 0
BITMAP
003E0000
003E0000
003E0000
003E0000
003E0000
003E0000
003E0000
003E0000
003E0000
003E0000
003E0000
FFFFFFC0
FFFFFFC0
FFFFFFC0
FFFFFFC0
FFFFFFC0
003E0000
003E0000
003E0000
003E0000
003E0000
003E0000
003E0000
003E0000
003E0000
003E0000
003E0000
ENDCHAR
STARTCHAR 002C
ENCODING 44
SWIDTH 270 0
DWIDTH 12 0
BBX 10 14 1 -7
BITMAP
3FC0
3F80
3F80
3F80
7F00
7F00
7F00
7E00
7E00
FE00
FC00
FC00
F800
F800
ENDCHAR
STARTCHAR 002D
ENCODING 45
SWIDTH 315 0
DWIDTH 14 0
BBX 11 6 2 8
BITMAP
FFE0
FFE0
FFE0
FFE0
FFE0
FFE0
ENDCHAR
STARTCHAR 002E
ENCODING 46
SWIDTH 270 0
DWIDTH 12 0
BBX 9 9 2 -1
BITMAP
3E00
7F00
FF00
FF80
FF80
FF80
FF00
7E00
0800
ENDCHAR
STARTCHAR 002F
ENCODING 47
SWIDTH 270 0
DWIDTH 12 0
BBX 15 36 -1 -4
BITMAP
001E
003C
003C
003C
0078
0078
0078
0070
00F0
00F0
00F0
01E0
01E0
01E0
03C0
03C0
03C0
0780
0780
0780
0F00
0F00
0F00
1E00
1E00
1E00
3C00
3C00
3C00
3C00
7800
7800
7800
F000
F000
F000
ENDCHAR
STARTCHAR 0030
ENCODING 48
SWIDTH 562 0
DWIDTH 25 0
BBX 23 33 1 -1
BITMAP
003800
03FF80
07FFC0
1FFFF0
3FFFF8
3FFFF8
7FFFFC
7FC7FC
7F83FC
FF01FE
FF01FE
FF01FE
FF01FE
FF01FE
FF01FE
FF01FE
FF01FE
FF01FE
FF01FE
FF01FE
FF01FE
FF01FE
FF01FE
FF01FE
7F83FC
7FEFFC
7FFFFC
3FFFF8
1FFFF8
1FFFF0
07FFC0
03FF80
001000
ENDCHAR
STARTCHAR 0031
ENCODING 49
SWIDTH 562 0
DWIDTH 25 0
BBX 12 31 6 0
BITMAP
FFF0
FFF0
FFF0
FFF0
FFF0
FFF0
FFF0
07F0
07F0
07F0
07F0
07F0
07F0
07F0
07F0
07F0
07F0
07F0
07F0
07F0
07F0
07F0
07F0
07F0
07F0
07F0
07F0
07F0
07F0
07F0
07F0
ENDCHAR
STARTCHAR 0032
ENCODING 50
SWIDTH 562 0
DWIDTH 25 0
BBX 21 32 2 0
BITMAP
007000
07FE00
0FFF80
1FFFC0
3FFFE0
7FFFF0
7FFFF0
FF9FF0
FF07F0
FE07F8
FF07F8
FF07F0
FF8FF0
7F9FF0
7F3FE0
3E7FE0
1CFFC0
09FF80
03FF00
07FE00
07FC00
0FF800
1FF000
3FE000
7FC000
7FFFF8
FFFFF8
FFFFF8
FFFFF8
FFFFF8
7FFFF8
3FFFF8
ENDCHAR
STARTCHAR 0033
ENCODING 51
SWIDTH 562 0
DWIDTH 25 0
BBX 21 31 2 0
BITMAP
7FFF80
7FFFC0
7FFFE0
7FFFF0
7FFFF0
7FFFF0
7FFFF0
001FE0
003FC0
007F80
00FF00
01FE00
07FC00
07FF80
07FFC0
07FFE0
07FFF0
07FFF0
0007F8
0003F8
0003F8
0003F8
0007F8
000FF8
FFFFF8
FFFFF0
FFFFF0
FFFFE0
FFFFC0
FFFF80
FFFC00
ENDCHAR
STARTCHAR 0034
ENCODING 52
SWIDTH 562 0
DWIDTH 25 0
BBX 23 32 1 0
BITMAP
000010
003F90
007FB0
007F30
00FE70
00FE70
01FCF0
03FDF0
03F9F0
07FBF0
07F3F0
0FE7F0
0FE7F0
1FC7F0
1FC7F0
3F87F0
7F87F0
7F07F0
FE07F0
FFFFFE
FFFFFE
FFFFFE
FFFFFE
7FFFFE
3FFFFE
0FFFFE
0007F0
0007F0
0007F0
0007F0
0007F0
0007F0
ENDCHAR
STARTCHAR 0035
ENCODING 53
SWIDTH 562 0
DWIDTH 25 0
BBX 21 31 2 0
BITMAP
7FFFE0
7FFFE0
7FFFE0
7FFFE0
7FFFE0
7FFFE0
7FFFE0
7F0000
7F0000
7F0000
7FFC00
7FFF80
7FFFC0
7FFFE0
7FFFF0
7FFFF0
7FFFF0
000FF8
0007F8
0003F8
0003F8
0003F8
0007F8
001FF8
FFFFF0
FFFFF0
FFFFF0
FFFFE0
FFFFC0
FFFF80
FFFC00
ENDCHAR
STARTCHAR 0036
ENCODING 54
SWIDTH 562 0
DWIDTH 25 0
BBX 23 32 1 -1
BITMAP
003FC0
007FC0
007F80
00FF00
01FF00
01FE00
03FE00
03FC00
07FC00
07F800
0FFB00
0FF3E0
1FE7F0
1FE7F8
3FCFFC
3FCFFC
7F8FFC
7F83FE
7F01FE
7F01FE
FF01FE
FF01FE
7F01FE
7F83FC
7FFFFC
7FFFFC
3FFFF8
1FFFF0
0FFFE0
07FFC0
03FF00
001800
ENDCHAR
STARTCHAR 0037
ENCODING 55
SWIDTH 562 0
DWIDTH 25 0
BBX 21 31 2 0
BITMAP
FFFFC0
FFFFF0
FFFFF0
FFFFF8
FFFFF8
FFFFF8
FFFFF8
0007F0
000FF0
000FF0
000FE0
001FE0
001FE0
001FC0
1FFFF0
1FFFF0
1FFFF0
1FFFF0
007F80
00FF00
00FF00
00FF00
01FF00
01FE00
01FE00
03FE00
03FC00
03FC00
07FC00
07F800
07F800
ENDCHAR
STARTCHAR 0038
ENCODING 56
SWIDTH 562 0
DWIDTH 25 0
BBX 23 33 1 -1
BITMAP
003800
03FF80
07FFC0
0FFFF0
1FFFF0
3FFFF8
3FC7F8
3F83F8
3F01FC
3F01FC
3F01F8
3F83F8
1FEFF0
1FFFF0
0FFFE0
0FFFE0
1FFFF0
3FFFF8
7F83FC
7F01FC
7F01FE
FF00FE
FF00FE
FF01FE
FF81FE
7FC7FC
7FFFFC
7FFFFC
3FFFF8
1FFFF0
0FFFE0
03FF80
001000
ENDCHAR
STARTCHAR 0039
ENCODING 57
SWIDTH 562 0
DWIDTH 25 0
BBX 23 32 1 0
BITMAP
001800
01FF80
07FFC0
0FFFF0
1FFFF0
3FFFF8
7FFFFC
7FFFFC
7F83FC
FF81FE
FF01FE
FF01FE
FF01FE
FF01FC
FF83FC
7FF3FC
7FE7F8
7FE7F8
3FCFF8
1FCFF0
079FF0
019FE0
003FC0
007FC0
007F80
00FF80
00FF00
01FF00
01FE00
03FC00
03FC00
07F800
ENDCHAR
STARTCHAR 003A
ENCODING 58
SWIDTH 292 0
DWIDTH 13 0
BBX 9 23 2 -1
BITMAP
0400
3F00
7F80
7F80
FF80
FF80
7F80
7F80
3F00
0000
0000
0000
0000
0000
3E00
7F00
7F80
FF80
FF80
7F80
7F80
3F00
0800
ENDCHAR
STARTCHAR 003B
ENCODING 59
SWIDTH 292 0
DWIDTH 13 0
BBX 11 29 1 -7
BITMAP
0200
1F80
3FC0
3FC0
3FE0
3FE0
3FC0
1FC0
0F80
0000
0000
0000
0000
0000
0000
3FC0
3FC0
3F80
3F80
3F80
7F00
7F00
7E00
7E00
7E00
FC00
FC00
FC00
F800
ENDCHAR
STARTCHAR 003C
ENCODING 60
SWIDTH 832 0
DWIDTH 37 0
BBX 25 26 6 0
BITMAP
00000180
00000780
00003F80
0000FF80
0003FF80
001FFF00
007FFC00
03FFF000
0FFF8000
7FFE0000
FFF00000
FFC00000
FE000000
FF800000
FFE00000
FFFC0000
1FFF0000
07FFC000
00FFF800
003FFE00
000FFF80
0001FF80
00007F80
00000F80
00000380
00000080
ENDCHAR
STARTCHAR 003D
ENCODING 61
SWIDTH 832 0
DWIDTH 37 0
BBX 26 15 6 6
BITMAP
FFFFFFC0
FFFFFFC0
FFFFFFC0
FFFFFFC0
FFFFFFC0
00000000
00000000
00000000
00000000
00000000
FFFFFFC0
FFFFFFC0
FFFFFFC0
FFFFFFC0
FFFFFFC0
ENDCHAR
STARTCHAR 003E
ENCODING 62
SWIDTH 832 0
DWIDTH 37 0
BBX 25 26 6 0
BITMAP
C0000000
F0000000
FE000000
FF800000
FFE00000
7FFC0000
1FFF0000
07FFE000
00FFF800
003FFF00
0007FF80
0001FF80
00003F80
0000FF80
0003FF80
000FFF80
007FFC00
01FFF000
0FFF8000
3FFE0000
FFF80000
FFC00000
FF000000
F8000000
E0000000
80000000
ENDCHAR
STARTCHAR 003F
ENCODING 63
SWIDTH 517 0
DWIDTH 23 0
BBX 21 32 1 -1
BITMAP
00F000
07FE00
1FFF80
3FFFC0
3FFFE0
7FFFE0
FFFFF0
FF9FF0
FF0FF0
1E07F8
0007F8
0007F8
000FF0
03FFF0
03FFF0
03FFE0
03FFC0
03FF80
03FF00
03F800
03F800
03F800
000000
000000
01F800
03FC00
03FC00
03FC00
03FC00
03FC00
03FC00
01F800
ENDCHAR
STARTCHAR 0040
ENCODING 64
SWIDTH 990 0
DWIDTH 44 0
BBX 41 39 2 -7
BITMAP
0000FFF80000
0007FFFF0000
001FFFFF8000
007FFFFFE000
00FF000FF000
03FC0003F800
07F00000FC00
0FC000007E00
0F8000003E00
1F0000001F00
3F007E001F00
3E01FF3E0F00
7C03FFFC0F00
7C07FFFC0F80
780FC1FC0F80
F81F80FC0F80
F81F00F80F80
F83F00F80F80
F03E00F80F00
F03E01F80F00
F03E01F01F00
F03E01F01F00
F03E01F03E00
F03E03F07E00
F83E07E0FC00
F83F0FF1F800
783FFFFFF000
7C1FFDFFE000
7C0FF8FF8000
3E01E03E0000
3F0000000000
1F800000C000
0FE00001E000
07F80007E000
03FF007FE000
00FFFFFF8000
007FFFFE0000
000FFFF80000
0000FF800000
ENDCHAR
STARTCHAR 0041
ENCODING 65
SWIDTH 607 0
DWIDTH 27 0
BBX 24 32 2 0
BITMAP
001C00
01FF80
07FFE0
0FFFF0
1FFFF8
3FFFFC
3FFFFC
7FFFFE
7FC3FE
FF81FE
FF00FE
FF00FF
FF00FF
FF7FFF
FF7FFF
FF7FFF
FF7FFF
FF7FFF
FF7FFF
FF7FFF
FF7FFF
FF00FF
FF00FF
FF00FF
FF00FF
FF00FF
FF00FF
FF00FF
FF00FF
FF00FF
FF00FF
FF00FF
ENDCHAR
STARTCHAR 0042
ENCODING 66
SWIDTH 585 0
DWIDTH 26 0
BBX 23 32 2 0
BITMAP
003800
03FF00
0FFFC0
1FFFE0
3FFFF0
3FFFF8
7FFFF8
7FCFF8
FF03FC
FF03FC
FF03FC
FF03F8
FF07F8
FF7FF0
FF7FE0
FF7FE0
FF7FF0
FF7FF8
FF7FFC
FF07FE
FF01FE
FF01FE
FF01FE
FF01FE
FF03FE
FF7FFE
FF7FFE
FF7FFC
FF7FF8
FF7FF0
FF7FE0
FF7F00
ENDCHAR
STARTCHAR 0043
ENCODING 67
SWIDTH 495 0
DWIDTH 22 0
BBX 20 31 1 0
BITMAP
0007F0
007FF0
01FFF0
03FFF0
07FFF0
0FFFF0
1FFFF0
3FFF00
3FF000
7FE000
7FC000
7F8000
FF8000
FF0000
FF0000
FF0000
FF0000
FF0000
FF8000
7F8000
7FC000
7FE000
3FF000
3FFF00
1FFFF0
0FFFF0
07FFF0
03FFF0
00FFF0
003FF0
0007F0
ENDCHAR
STARTCHAR 0044
ENCODING 68
SWIDTH 630 0
DWIDTH 28 0
BBX 25 31 2 0
BITMAP
FFF80000
FFFF0000
FFFFC000
FFFFF000
FFFFF800
FFFFFC00
FFFFFC00
FF1FFE00
FF03FF00
FF01FF00
FF00FF80
FF00FF80
FF007F80
FF007F80
FF007F80
FF007F80
FF007F80
FF007F80
FF007F80
FF00FF80
FF00FF00
FF01FF00
FF07FF00
FF3FFE00
FF7FFC00
FF7FFC00
FF7FF800
FF7FF000
FF7FC000
FF7F0000
FF780000
ENDCHAR
STARTCHAR 0045
ENCODING 69
SWIDTH 517 0
DWIDTH 23 0
BBX 20 31 1 0
BITMAP
0007F0
007FF0
01FFF0
03FFF0
07FFF0
0FFFF0
1FFFF0
3FFC00
3FF000
7FC000
7FC000
7F8000
FFFFF0
FFFFF0
FFFFF0
FFFFF0
FFFFF0
FFFFF0
FFFFF0
7F8000
7F8000
7FC000
3FF000
3FFE00
1FFFF0
0FFFF0
07FFF0
03FFF0
00FFF0
003FF0
0007F0
ENDCHAR
STARTCHAR 0046
ENCODING 70
SWIDTH 450 0
DWIDTH 20 0
BBX 16 31 2 0
BITMAP
03FF
0FFF
1FFF
3FFF
7FFF
7FFF
7FFF
FF80
FF00
FF00
FF00
FF00
FFFF
FFFF
FFFF
FFFF
FFFF
FFFF
FFFF
FFFF
FF00
FF00
FF00
FF00
FF00
FF00
FF00
FF00
FF00
FF00
FF00
ENDCHAR
STARTCHAR 0047
ENCODING 71
SWIDTH 765 0
DWIDTH 34 0
BBX 32 33 1 -1
BITMAP
0003C000
003FFE00
00FFFF80
01FFFFC0
03FFFFF0
07FFFFF0
0FFFFFE0
1FFFFFC0
3FF80F80
3FF00380
7FC00100
7FC00000
7F800000
7F80FFFF
FF00FFFF
FF00FFFF
FF00FFFF
FF00FFFF
FF80FFFF
7F80FFFF
7F8001FE
7FC001FE
7FE003FE
3FF007FC
3FFC1FFC
1FFFFFF8
0FFFFFF8
07FFFFF0
03FFFFE0
01FFFFC0
00FFFF00
003FFC00
00008000
ENDCHAR
STARTCHAR 0048
ENCODING 72
SWIDTH 630 0
DWIDTH 28 0
BBX 24 31 2 0
BITMAP
FF00FF
FF00FF
FF00FF
FF00FF
FF00FF
FF00FF
FF00FF
FF00FF
FF00FF
FF00FF
FF00FF
FFFFFF
FFFFFF
FFFFFF
FFFFFF
FFFFFF
FFFFFF
FFFFFF
FF00FF
FF00FF
FF00FF
FF00FF
FF00FF
FF00FF
FF00FF
FF00FF
FF00FF
FF00FF
FF00FF
FF00FF
FF00FF
ENDCHAR
STARTCHAR 0049
ENCODING 73
SWIDTH 270 0
DWIDTH 12 0
BBX 8 31 2 0
BITMAP
FF
FF
FF
FF
FF
FF
FF
FF
FF
FF
FF
FF
FF
FF
FF
FF
FF
FF
FF
FF
FF
FF
FF
FF
FF
FF
FF
FF
FF
FF
FF
ENDCHAR
STARTCHAR 004A
ENCODING 74
SWIDTH 405 0
DWIDTH 18 0
BBX 17 31 0 0
BITMAP
007F80
007F80
007F80
007F80
007F80
007F80
007F80
007F80
007F80
007F80
007F80
007F80
007F80
007F80
007F80
007F80
007F80
007F80
007F80
007F80
007F80
007F80
00FF80
01FF00
FFFF00
FFFF00
FFFE00
FFFE00
FFFC00
FFF000
FFC000
ENDCHAR
STARTCHAR 004B
ENCODING 75
SWIDTH 585 0
DWIDTH 26 0
BBX 25 31 2 0
BITMAP
FF00FF80
FF01FF00
FF01FF00
FF01FE00
FF03FE00
FF03FC00
FF07FC00
FF07F800
FF0FF800
FF1FF000
FF3FF000
FFFFE000
FFFFC000
FFFFE000
FFFFF800
FFFFFC00
FFFFFC00
FFFFFC00
FF07FE00
FF01FE00
FF01FE00
FF01FE00
FF01FE00
FF01FE00
FF01FE00
FF01FE00
FF01FE00
FF01FE00
FF01FE00
FF01FE00
FF01FE00
ENDCHAR
STARTCHAR 004C
ENCODING 76
SWIDTH 427 0
DWIDTH 19 0
BBX 17 31 2 0
BITMAP
FF0000
FF0000
FF0000
FF0000
FF0000
FF0000
FF0000
FF0000
FF0000
FF0000
FF0000
FF0000
FF0000
FF0000
FF0000
FF0000
FF0000
FF0000
FF0000
FF0000
FF0000
FF0000
FF0000
FFC000
7FFF80
7FFF80
7FFF80
3FFF80
1FFF80
0FFF80
01FF80
ENDCHAR
STARTCHAR 004D
ENCODING 77
SWIDTH 832 0
DWIDTH 37 0
BBX 36 32 1 0
BITMAP
00C0002000
07F001FC00
0FF803FE00
0FFC03FE00
1FFC07FF00
1FFE07FF00
1FFE0FFF00
1FFE0FFF00
1FFE0FFF80
1FBE0FFF80
3FBF0FBF80
3FBF1FBF80
3FBF1F9F80
3FBF1F9F80
3F9F9F9F80
3F9FBF1F80
3F1FBF1FC0
3F1FBF1FC0
7F0FBF1FC0
7F0FBE1FC0
7F0FFE1FC0
7F0FFE1FC0
7F0FFE1FC0
7F07FE1FE0
7F07FC0FE0
FF07FC0FE0
FF07FC0FE0
FE03FC0FE0
FE03FC0FE0
FE03F80FE0
FE01F80FE0
FE01F00FF0
ENDCHAR
STARTCHAR 004E
ENCODING 78
SWIDTH 652 0
DWIDTH 29 0
BBX 25 32 2 -1
BITMAP
1C000000
3F003F80
7F803F80
7FC03F80
FFE03F80
FFE03F80
FFF03F80
FFF03F80
FFF83F80
FFF83F80
FFFC3F80
FFFC3F80
FEFE3F80
FEFE3F80
FEFF3F80
FE7FBF80
FF3FBF80
FF3FBF80
FF1FFF80
FF1FFF80
FF0FFF80
FF0FFF80
FF07FF80
FF07FF80
FF03FF80
FF01FF80
FF01FF80
FF00FF80
FF00FF80
FF007F80
FF007F80
FF003F00
ENDCHAR
STARTCHAR 004F
ENCODING 79
SWIDTH 765 0
DWIDTH 34 0
BBX 32 33 1 -1
BITMAP
00038000
003FFC00
00FFFF00
01FFFFC0
03FFFFE0
07FFFFF0
0FFFFFF8
1FFFFFF8
3FFC1FFC
3FF007FE
7FC003FE
7FC001FE
7F8001FF
FF8000FF
FF0000FF
FF0000FF
FF0000FF
FF0000FF
FF0000FF
FF8000FF
7F8001FF
7FC001FE
7FE003FE
3FF007FE
3FFC3FFC
1FFFFFF8
0FFFFFF8
07FFFFF0
03FFFFE0
01FFFFC0
00FFFF00
003FFC00
0000C000
ENDCHAR
STARTCHAR 0050
ENCODING 80
SWIDTH 562 0
DWIDTH 25 0
BBX 22 32 2 0
BITMAP
007800
03FF80
0FFFC0
1FFFE0
3FFFF0
3FFFF8
7FFFF8
7FFFFC
FF87FC
FF03FC
FF01FC
FF01FC
FF03FC
FF03FC
FF1FFC
FF7FFC
FF7FF8
FF7FF8
FF7FF0
FF7FE0
FF7F80
FF7C00
FF0000
FF0000
FF0000
FF0000
FF0000
FF0000
FF0000
FF0000
FF0000
FF0000
ENDCHAR
STARTCHAR 0051
ENCODING 81
SWIDTH 765 0
DWIDTH 34 0
BBX 32 36 1 -4
BITMAP
00038000
003FFC00
00FFFF00
01FFFFC0
03FFFFE0
07FFFFF0
0FFFFFF8
1FFFFFF8
3FFC1FFC
3FF007FE
7FC003FE
7FC001FE
7F8001FF
FF8000FF
FF0000FF
FF0000FF
FF0000FF
FF0000FF
FF0000FF
FF8000FF
7F87E1FF
7FC7E1FF
7FE7E3FE
3FE7EFFE
3FE7FFFC
1FE7FFFC
0FE7FFF8
0FE7FFF0
07E7FFE0
01E7FFC0
00E7FF00
0027FC00
0007E000
0007E000
0007E000
0007E000
ENDCHAR
STARTCHAR 0052
ENCODING 82
SWIDTH 562 0
DWIDTH 25 0
BBX 23 32 2 0
BITMAP
007800
03FF00
0FFFC0
1FFFE0
3FFFF0
3FFFF8
7FFFFC
7FEFFC
FF87FC
FF03FC
FF03FC
FF03FC
FF07F8
FF7FF8
FF7FF0
FF7FC0
FF7FE0
FF7FF8
FF7FFC
FF7FFC
FF0FFC
FF03FC
FF01FE
FF01FE
FF01FE
FF01FE
FF01FE
FF01FE
FF01FE
FF01FE
FF01FE
FF01FE
ENDCHAR
STARTCHAR 0053
ENCODING 83
SWIDTH 517 0
DWIDTH 23 0
BBX 21 31 1 0
BITMAP
03FFF0
0FFFF0
1FFFF0
3FFFF0
7FFFF0
7FFFF0
7FFFF0
7F8000
7F0000
7F8000
7FC000
7FF000
3FFC00
3FFE00
1FFF80
0FFFC0
03FFE0
00FFF0
007FF8
001FF8
000FF8
0007F8
0007F8
001FF8
FFFFF8
FFFFF8
FFFFF0
FFFFF0
FFFFE0
FFFFC0
FFFE00
ENDCHAR
STARTCHAR 0054
ENCODING 84
SWIDTH 495 0
DWIDTH 22 0
BBX 21 31 1 0
BITMAP
FFFFF8
FFFFF8
FFFFF8
FFFFF8
FFFFF8
FFFFF8
FFFFF8
03FC00
03FC00
03FC00
03FC00
03FC00
03FC00
03FC00
03FC00
03FC00
03FC00
03FC00
03FC00
03FC00
03FC00
03FC00
03FC00
03FC00
03FC00
03FC00
03FC00
03FC00
03FC00
03FC00
03FC00
ENDCHAR
STARTCHAR 0055
ENCODING 85
SWIDTH 607 0
DWIDTH 27 0
BBX 24 32 2 -1
BITMAP
FF00FF
FF00FF
FF00FF
FF00FF
FF00FF
FF00FF
FF00FF
FF00FF
FF00FF
FF00FF
FF00FF
FF00FF
FF00FF
FF00FF
FF00FF
FF00FF
FF00FF
FF00FF
FF00FF
FF00FF
FF00FF
FF00FE
FF81FE
7FC3FE
7FFFFE
3FFFFC
3FFFFC
1FFFF8
0FFFF0
07FFE0
01FF80
003000
ENDCHAR
STARTCHAR 0056
ENCODING 86
SWIDTH 540 0
DWIDTH 24 0
BBX 26 32 -1 -1
BITMAP
FF003FC0
7F003FC0
7F803FC0
7F803F80
7F807F80
3F807F80
3FC07F80
3FC07F00
3FC0FF00
1FC0FF00
1FE0FF00
1FE0FE00
0FE1FE00
0FE1FE00
0FF1FE00
0FF1FC00
07F3FC00
07F3FC00
07FBFC00
07FBF800
03FBF800
03FFF800
03FFF000
03FFF000
01FFF000
01FFF000
01FFE000
00FFE000
00FFC000
007FC000
003F8000
00040000
ENDCHAR
STARTCHAR 0057
ENCODING 87
SWIDTH 900 0
DWIDTH 40 0
BBX 37 32 2 -1
BITMAP
FF01FC07F8
FF01FC07F8
FF01FC07F8
FF01FC07F8
FF01FC07F8
FF01FC07F8
FF01FC07F8
FF01FC07F8
FF01FC07F8
FF01FC07F8
FF01FC07F8
FF01FC07F8
FF01FC07F8
FF01FC07F8
FF01FC07F8
FF01FC07F8
FF01FC07F8
FF01FC07F8
FF01FC07F8
FF01FC07F8
FF01FC07F0
FF03FC07F0
FF03FE0FF0
7F87FF1FF0
7FFFFFFFF0
7FFFFFFFE0
3FFFFFFFE0
1FFFFFFFC0
1FFFDFFF80
0FFF8FFF00
03FE07FC00
001000C000
ENDCHAR
STARTCHAR 0058
ENCODING 88
SWIDTH 630 0
DWIDTH 28 0
BBX 26 31 1 0
BITMAP
F00003C0
FE001FC0
FF807FC0
FFE0FFC0
FFF3FFC0
FFFBFFC0
FFFFFFC0
3FFFFF00
07FFF800
01FFF000
00FFE000
00FFC000
007F8000
007F8000
007F8000
007F8000
007F8000
007F8000
007FC000
00FFC000
01FFE000
01FFF000
07FFF800
3FFFFF00
FFFFFFC0
FFFBFFC0
FFF3FFC0
FFC0FFC0
FF807FC0
FE001FC0
F00003C0
ENDCHAR
STARTCHAR 0059
ENCODING 89
SWIDTH 562 0
DWIDTH 25 0
BBX 21 31 2 0
BITMAP
FF03F8
FF03F8
FF03F8
FF03F8
FF03F8
FF03F8
FF03F8
FF03F8
FF03F8
FF03F8
FF03F8
FF03F8
FF07F8
FFDFF8
7FFFF0
7FFFF0
3FFFE0
1FFFE0
0FFFC0
07FF00
01FC00
01FC00
01FC00
01FC00
01FC00
01FC00
01FC00
01FC00
01FC00
01FC00
01FC00
ENDCHAR
STARTCHAR 005A
ENCODING 90
SWIDTH 517 0
DWIDTH 23 0
BBX 23 31 0 0
BITMAP
3FFFF8
3FFFFC
3FFFFE
3FFFFE
3FFFFE
3FFFFE
3FFFFE
0007FC
000FFC
000FF8
001FF0
003FE0
007FE0
007FC0
00FF80
01FF00
03FF00
03FE00
07FC00
0FFC00
1FF800
1FF000
3FE000
7FE000
7FFFFE
7FFFFE
FFFFFE
7FFFFE
7FFFFE
3FFFFE
1FFFFE
ENDCHAR
STARTCHAR 005B
ENCODING 91
SWIDTH 337 0
DWIDTH 15 0
BBX 9 41 4 -10
BITMAP
FF80
FF80
FF80
F800
F800
F800
F800
F800
F800
F800
F800
F800
F800
F800
F800
F800
F800
F800
F800
F800
F800
F800
F800
F800
F800
F800
F800
F800
F800
F800
F800
F800
F800
F800
F800
F800
F800
F800
FF80
FF80
FF80
ENDCHAR
STARTCHAR 005C
ENCODING 92
SWIDTH 270 0
DWIDTH 12 0
BBX 16 36 -2 -4
BITMAP
F000
7800
7800
7800
3C00
3C00
3C00
1E00
1E00
1E00
0F00
0F00
0F00
0780
0780
0780
03C0
03C0
03C0
03C0
01E0
01E0
01E0
00F0
00F0
00F0
0078
0078
0078
003C
003C
003C
001E
001E
001E
000F
ENDCHAR
STARTCHAR 005D
ENCODING 93
SWIDTH 337 0
DWIDTH 15 0
BBX 9 41 2 -10
BITMAP
FF80
FF80
FF80
0F80
0F80
0F80
0F80
0F80
0F80
0F80
0F80
0F80
0F80
0F80
0F80
0F80
0F80
0F80
0F80
0F80
0F80
0F80
0F80
0F80
0F80
0F80
0F80
0F80
0F80
0F80
0F80
0F80
0F80
0F80
0F80
0F80
0F80
0F80
FF80
FF80
FF80
ENDCHAR
STARTCHAR 005E
ENCODING 94
SWIDTH 990 0
DWIDTH 44 0
BBX 26 13 9 19
BITMAP
003F8000
007F8000
00FFC000
01FFE000
01FFF000
03FBF800
07F1F800
0FE0FC00
1FC07E00
3F803F00
3F001F80
7E000FC0
FC0007C0
ENDCHAR
STARTCHAR 005F
ENCODING 95
SWIDTH 495 0
DWIDTH 22 0
BBX 22 5 0 -10
BITMAP
FFFFFC
FFFFFC
FFFFFC
FFFFFC
FFFFFC
ENDCHAR
STARTCHAR 0060
ENCODING 96
SWIDTH 495 0
DWIDTH 22 0
BBX 10 8 5 24
BITMAP
FC00
7C00
3E00
1E00
0F00
0780
0380
03C0
ENDCHAR
STARTCHAR 0061
ENCODING 97
SWIDTH 540 0
DWIDTH 24 0
BBX 22 22 1 0
BITMAP
03FF00
07FFC0
1FFFE0
1FFFF0
3FFFF0
7FFFF8
7FFFF8
FF03FC
FF01FC
FE01FC
FE01FC
FE01FC
FE01FC
FF01FC
7F81FC
7FFDFC
7FFDFC
3FFDFC
1FFDFC
0FFDFC
07FDFC
01FDFC
ENDCHAR
STARTCHAR 0062
ENCODING 98
SWIDTH 540 0
DWIDTH 24 0
BBX 22 31 2 0
BITMAP
FE0000
FE0000
FE0000
FE0000
FE0000
FE0000
FE0000
FE0000
FE7800
FEFF00
FEFFC0
FEFFE0
FEFFF0
FEFFF0
FEFFF8
FE8FF8
FE03F8
FE03FC
FE01FC
FE01FC
FE01FC
FE01FC
FE03FC
FF07F8
7FFFF8
7FFFF8
3FFFF0
3FFFE0
1FFFC0
07FF80
01FE00
ENDCHAR
STARTCHAR 0063
ENCODING 99
SWIDTH 382 0
DWIDTH 17 0
BBX 16 22 1 0
BITMAP
007F
03FF
0FFF
1FFF
3FFF
7FFF
7FFF
7F80
FF00
FE00
FE00
FE00
FE00
FF00
7F80
7FFF
7FFF
3FFF
1FFF
0FFF
03FF
007F
ENDCHAR
STARTCHAR 0064
ENCODING 100
SWIDTH 540 0
DWIDTH 24 0
BBX 22 31 1 0
BITMAP
0001FC
0001FC
0001FC
0001FC
0001FC
0001FC
0001FC
0001FC
0001FC
01FDFC
07FDFC
0FFDFC
1FFDFC
3FFDFC
7FFDFC
7FFDFC
FF81FC
FF01FC
FE01FC
FE01FC
FE01FC
FE01FC
FF01FC
FF83FC
7FFFF8
7FFFF8
3FFFF0
1FFFF0
1FFFE0
07FF80
01FF00
ENDCHAR
STARTCHAR 0065
ENCODING 101
SWIDTH 540 0
DWIDTH 24 0
BBX 23 22 1 0
BITMAP
01FF00
07FF80
0FFFE0
1FFFF0
3FFFF0
7F83F8
7F07FC
7E1FF0
FE3FE0
FE7F80
FE7F00
FE7C00
FE3870
FF00FE
7F01FE
7FC7FC
7FFFFC
3FFFF8
1FFFF0
0FFFE0
07FFC0
01FF00
ENDCHAR
STARTCHAR 0066
ENCODING 102
SWIDTH 337 0
DWIDTH 15 0
BBX 13 31 2 0
BITMAP
07F8
1FF8
3FF8
7FF8
7FF8
FFF8
FF80
FE00
FE00
FFF8
FFF8
FFF8
FFF8
FFF8
FFF8
FE00
FE00
FE00
FE00
FE00
FE00
FE00
FE00
FE00
FE00
FE00
FE00
FE00
FE00
FE00
FE00
ENDCHAR
STARTCHAR 0067
ENCODING 103
SWIDTH 540 0
DWIDTH 24 0
BBX 22 32 1 -10
BITMAP
03FF00
07FFC0
1FFFE0
1FFFF0
3FFFF0
7FFFF8
7FFFF8
7F83FC
FF01FC
FE01FC
FE01FC
FE01FC
FE01FC
FF01FC
7F81FC
7FFDFC
7FFDFC
3FFDFC
1FFDFC
0FFDFC
07FDFC
01FDFC
0001FC
0001FC
1003FC
1FFFF8
1FFFF8
1FFFF0
1FFFF0
1FFFE0
1FFF80
03FC00
ENDCHAR
STARTCHAR 0068
ENCODING 104
SWIDTH 540 0
DWIDTH 24 0
BBX 20 31 2 0
BITMAP
FE0000
FE0000
FE0000
FE0000
FE0000
FE0000
FE0000
FE0000
FE0000
FEFF00
FFFF80
FFFFC0
FFFFE0
FFFFE0
FFFFF0
FF9FF0
FF07F0
FE07F0
FE07F0
FE07F0
FE07F0
FE07F0
FE07F0
FE07F0
FE07F0
FE07F0
FE07F0
FE07F0
FE07F0
FE07F0
FE07F0
ENDCHAR
STARTCHAR 0069
ENCODING 105
SWIDTH 247 0
DWIDTH 11 0
BBX 8 32 2 0
BITMAP
38
FE
FE
FF
FF
FE
FE
7C
00
00
FE
FE
FE
FE
FE
FE
FE
FE
FE
FE
FE
FE
FE
FE
FE
FE
FE
FE
FE
FE
FE
FE
ENDCHAR
STARTCHAR 006A
ENCODING 106
SWIDTH 247 0
DWIDTH 11 0
BBX 13 41 -3 -9
BITMAP
01E0
07F0
07F0
07F8
07F8
07F0
07F0
03E0
0000
0000
07F0
07F0
07F0
07F0
07F0
07F0
07F0
07F0
07F0
07F0
07F0
07F0
07F0
07F0
07F0
07F0
07F0
07F0
07F0
07F0
07F0
07F0
07F0
07F0
0FF0
FFF0
FFE0
FFE0
FFC0
FF80
FF00
ENDCHAR
STARTCHAR 006B
ENCODING 107
SWIDTH 517 0
DWIDTH 23 0
BBX 20 31 2 0
BITMAP
FE0000
FE0000
FE0000
FE0000
FE0000
FE0000
FE0000
FE0000
FE0000
FE07F0
FE0FF0
FE0FE0
FE1FE0
FE1FC0
FE3FC0
FE3FC0
FFFF80
FFFF00
FFFE00
FFFF80
FFFFC0
FFFFE0
FE3FE0
FE0FE0
FE07F0
FE07F0
FE07F0
FE07F0
FE07F0
FE07F0
FE07F0
ENDCHAR
STARTCHAR 006C
ENCODING 108
SWIDTH 247 0
DWIDTH 11 0
BBX 7 31 2 0
BITMAP
FE
FE
FE
FE
FE
FE
FE
FE
FE
FE
FE
FE
FE
FE
FE
FE
FE
FE
FE
FE
FE
FE
FE
FE
FE
FE
FE
FE
FE
FE
FE
ENDCHAR
STARTCHAR 006D
ENCODING 109
SWIDTH 787 0
DWIDTH 35 0
BBX 32 22 2 0
BITMAP
07F83FC0
1FFE7FF0
3FFFFFF8
3FFFFFFC
7FFFFFFC
7FFFFFFE
FF1FF9FE
FE0FF0FE
FE0FE07F
FE0FE07F
FE0FE07F
FE0FE07F
FE0FE07F
FE0FE07F
FE0FE07F
FE0FE07F
FE0FE07F
FE0FE07F
FE0FE07F
FE0FE07F
FE0FE07F
FE0FE07F
ENDCHAR
STARTCHAR 006E
ENCODING 110
SWIDTH 517 0
DWIDTH 23 0
BBX 20 22 2 0
BITMAP
07FC00
0FFF00
1FFF80
3FFFC0
7FFFE0
7FFFE0
FF9FE0
FE0FF0
FE07F0
FE07F0
FE07F0
FE07F0
FE07F0
FE07F0
FE07F0
FE07F0
FE07F0
FE07F0
FE07F0
FE07F0
FE07F0
FE07F0
ENDCHAR
STARTCHAR 006F
ENCODING 111
SWIDTH 540 0
DWIDTH 24 0
BBX 22 22 1 0
BITMAP
01FF00
07FFC0
0FFFE0
1FFFF0
3FFFF0
7FFFF8
7FFFF8
7F83FC
FF01FC
FE01FC
FE01FC
FE01FC
FE01FC
FF01FC
7F83FC
7FFFF8
7FFFF8
3FFFF0
1FFFF0
0FFFE0
07FF80
01FF00
ENDCHAR
STARTCHAR 0070
ENCODING 112
SWIDTH 540 0
DWIDTH 24 0
BBX 22 31 2 -9
BITMAP
03FF00
0FFF80
1FFFE0
3FFFE0
7FFFF0
7FFFF8
FFFFF8
FF07F8
FE03FC
FE01FC
FE01FC
FE01FC
FE01FC
FE03FC
FE07F8
FEFFF8
FEFFF8
FEFFF0
FEFFE0
FEFFC0
FEFF80
FEFE00
FE0000
FE0000
FE0000
FE0000
FE0000
FE0000
FE0000
FE0000
FE0000
ENDCHAR
STARTCHAR 0071
ENCODING 113
SWIDTH 540 0
DWIDTH 24 0
BBX 22 31 1 -9
BITMAP
03FF00
07FFC0
1FFFE0
1FFFF0
3FFFF0
7FFFF8
7FFFF8
FF03FC
FF01FC
FE01FC
FE01FC
FE01FC
FE01FC
FF01FC
7F81FC
7FFDFC
7FFDFC
3FFDFC
1FFDFC
0FFDFC
07FDFC
01FDFC
0001FC
0001FC
0001FC
0001FC
0001FC
0001FC
0001FC
0001FC
0001FC
ENDCHAR
STARTCHAR 0072
ENCODING 114
SWIDTH 360 0
DWIDTH 16 0
BBX 14 22 2 0
BITMAP
FC3C
FCFC
FDFC
FFFC
FFFC
FFFC
FFFC
FFC0
FF00
FF00
FE00
FE00
FE00
FE00
FE00
FE00
FE00
FE00
FE00
FE00
FE00
FE00
ENDCHAR
STARTCHAR 0073
ENCODING 115
SWIDTH 427 0
DWIDTH 19 0
BBX 17 22 1 0
BITMAP
07FF00
1FFF00
3FFF00
7FFF00
7FFF00
7FFF00
7F0000
7F0000
7FC000
3FF000
1FFC00
0FFE00
03FF00
00FF80
003F80
003F80
FFFF80
FFFF80
FFFF80
FFFF00
FFFE00
FFF800
ENDCHAR
STARTCHAR 0074
ENCODING 116
SWIDTH 337 0
DWIDTH 15 0
BBX 12 27 2 0
BITMAP
FE00
FE00
FE00
FE00
FE00
FFF0
FFF0
FFF0
FFF0
FFF0
FFF0
FE00
FE00
FE00
FE00
FE00
FE00
FE00
FE00
FE00
FF80
FFF0
7FF0
7FF0
3FF0
1FF0
03F0
ENDCHAR
STARTCHAR 0075
ENCODING 117
SWIDTH 517 0
DWIDTH 23 0
BBX 20 22 2 0
BITMAP
FE07F0
FE07F0
FE07F0
FE07F0
FE07F0
FE07F0
FE07F0
FE07F0
FE07F0
FE07F0
FE07F0
FE07F0
FE07F0
FE07F0
FE0FF0
FF9FE0
7FFFE0
7FFFE0
3FFFC0
1FFF80
0FFF00
03FC00
ENDCHAR
STARTCHAR 0076
ENCODING 118
SWIDTH 472 0
DWIDTH 21 0
BBX 21 22 0 0
BITMAP
FE03F8
FE03F8
FE03F8
7F03F8
7F07F0
7F07F0
3F07F0
3F8FE0
3F8FE0
1F8FE0
1FCFC0
1FDFC0
0FDFC0
0FDF80
0FDF80
07FF80
07FF00
07FF00
07FF00
03FE00
01FE00
00FC00
ENDCHAR
STARTCHAR 0077
ENCODING 119
SWIDTH 787 0
DWIDTH 35 0
BBX 32 22 2 0
BITMAP
FE0FE07F
FE0FE07F
FE0FE07F
FE0FE07F
FE0FE07F
FE0FE07F
FE0FE07F
FE0FE07F
FE0FE07F
FE0FE07F
FE0FE07F
FE0FE07F
FE0FE07F
FE0FE07F
FE0FF0FE
FF1FF9FE
7FFFFFFE
7FFFFFFC
3FFFFFFC
3FFFFFF8
0FFE7FF0
07F83FE0
ENDCHAR
STARTCHAR 0078
ENCODING 120
SWIDTH 427 0
DWIDTH 19 0
BBX 19 22 0 0
BITMAP
F801E0
FE07E0
FF9FE0
FFFFE0
FFFFE0
FFFFE0
FFFFE0
0FFF00
03FC00
03FC00
03F800
03F800
03FC00
03FC00
0FFE00
FFFFE0
FFFFE0
FFFFE0
FFFFE0
FF9FE0
FE07E0
F001E0
ENDCHAR
STARTCHAR 0079
ENCODING 121
SWIDTH 517 0
DWIDTH 23 0
BBX 20 31 2 -9
BITMAP
FE07F0
FE07F0
FE07F0
FE07F0
FE07F0
FE07F0
FE07F0
FE07F0
FE07F0
FE07F0
FE07F0
FE07F0
FE07F0
FE07F0
FE07F0
FF0FE0
7FFFE0
7FFFE0
3FFFC0
3FFF80
0FFF00
07FC00
03F800
03F800
03F800
03F800
03F800
03F800
03F800
03F800
03F800
ENDCHAR
STARTCHAR 007A
ENCODING 122
SWIDTH 450 0
DWIDTH 20 0
BBX 18 22 1 0
BITMAP
7FFF00
7FFF80
7FFFC0
7FFFC0
7FFFC0
7FFFC0
007F80
00FF80
01FF00
03FE00
07FC00
0FF800
1FF000
3FE000
3FC000
7FFFC0
FFFFC0
FFFFC0
FFFFC0
FFFFC0
FFFFC0
3FFFC0
ENDCHAR
STARTCHAR 007B
ENCODING 123
SWIDTH 495 0
DWIDTH 22 0
BBX 16 41 3 -9
BITMAP
003F
01FF
01FF
03FF
03FF
03F8
03F0
03F0
03F0
03F0
03F0
03F0
03F0
03F0
03F0
07F0
07F0
0FE0
FFE0
FFC0
FE00
FFC0
FFE0
0FE0
07F0
07F0
03F0
03F0
03F0
03F0
03F0
03F0
03F0
03F0
03F0
03F8
03FF
03FF
01FF
01FF
003F
ENDCHAR
STARTCHAR 007C
ENCODING 124
SWIDTH 495 0
DWIDTH 22 0
BBX 5 44 9 -10
BITMAP
F8
F8
F8
F8
F8
F8
F8
F8
F8
F8
F8
F8
F8
F8
F8
F8
F8
F8
F8
F8
F8
F8
F8
F8
F8
F8
F8
F8
F8
F8
F8
F8
F8
F8
F8
F8
F8
F8
F8
F8
F8
F8
F8
F8
ENDCHAR
STARTCHAR 007D
ENCODING 125
SWIDTH 495 0
DWIDTH 22 0
BBX 16 41 3 -9
BITMAP
FE00
FF80
FFC0
FFC0
FFC0
1FC0
0FC0
0FC0
0FC0
0FC0
0FC0
0FC0
0FC0
0FC0
0FE0
0FE0
07E0
07F8
07FF
03FF
007F
03FF
07FF
07F8
07E0
0FE0
0FE0
0FC0
0FC0
0FC0
0FC0
0FC0
0FC0
0FC0
0FC0
1FC0
FFC0
FFC0
FFC0
FF80
FE00
ENDCHAR
STARTCHAR 007E
ENCODING 126
SWIDTH 832 0
DWIDTH 37 0
BBX 29 8 4 10
BITMAP
0FF80018
3FFF0078
FFFFFFF8
FFFFFFF8
FFFFFFF8
F80FFFF0
E000FFC0
80001E00
ENDCHAR
STARTCHAR 0080
ENCODING 128
SWIDTH 562 0
DWIDTH 25 0
BBX 24 31 0 0
BITMAP
0000FF
0007FF
001FFF
007FFF
00FFFF
01FFFF
03FFFF
03FF00
07FC00
07F800
07F800
7FFFFC
FFFFFC
FFFFFC
0FF000
0FE000
0FE000
7FFFF8
FFFFF0
0FF000
07F800
07F800
07FE00
03FF80
03FFFF
01FFFF
00FFFF
007FFF
001FFF
0007FF
0000FF
ENDCHAR
STARTCHAR 00A0
ENCODING 160
SWIDTH 562 0
DWIDTH 25 0
BBX 0 0 0 0
BITMAP
ENDCHAR
STARTCHAR 00A1
ENCODING 161
SWIDTH 315 0
DWIDTH 14 0
BBX 9 32 3 0
BITMAP
0800
7E00
FF00
FF80
FF80
FF80
FF00
7F00
3E00
0000
0000
7F00
7F00
7F00
7F00
7F00
7F00
7F00
7F00
FF00
FF00
FF00
FF00
FF00
FF00
FF00
FF00
FF00
FF00
FF00
FF00
FF00
ENDCHAR
STARTCHAR 00A2
ENCODING 162
SWIDTH 562 0
DWIDTH 25 0
BBX 15 30 5 0
BITMAP
01E0
01E0
01E0
01E0
01E0
03FE
0FFE
3FFE
7FFE
7FFE
FFFE
FE00
FC00
FC00
FC00
FC00
FC00
FE00
FFFE
7FFE
7FFE
3FFE
1FFE
03FE
01E0
01E0
01E0
01E0
01E0
01E0
ENDCHAR
STARTCHAR 00A3
ENCODING 163
SWIDTH 562 0
DWIDTH 25 0
BBX 24 32 0 0
BITMAP
000700
007FE0
00FFE0
01FFE0
03FFE0
03FFE0
07FFE0
07FE20
07F800
07F000
07F000
07F000
3FFE00
3FFE00
3FFE00
3FFE00
3FFE00
3FFE00
07F07F
07F07F
07F07F
0FF07F
0FF07F
0FE0FF
3FC3FF
FFFFFF
FFFFFE
FFFFFE
FFFFFC
FFFFF8
FFFFF0
FFFFC0
ENDCHAR
STARTCHAR 00A4
ENCODING 164
SWIDTH 562 0
DWIDTH 25 0
BBX 24 31 0 0
BITMAP
0000FF
0007FF
001FFF
007FFF
00FFFF
01FFFF
03FFFF
03FF00
07FC00
07F800
07F800
7FFFFC
FFFFFC
FFFFFC
0FF000
0FE000
0FE000
7FFFF8
FFFFF0
0FF000
07F800
07F800
07FE00
03FF80
03FFFF
01FFFF
00FFFF
007FFF
001FFF
0007FF
0000FF
ENDCHAR
STARTCHAR 00A5
ENCODING 165
SWIDTH 585 0
DWIDTH 26 0
BBX 26 31 0 0
BITMAP
7F001FC0
7F003F80
7F003F80
3F807F00
3F807F00
1FC07F00
1FC0FE00
0FC0FE00
FFE1FFC0
FFE1FFC0
FFF1FFC0
FFF3FFC0
03F3F000
03FFF000
01FFF000
FFFFFFC0
FFFFFFC0
FFFFFFC0
007FC000
007F8000
003F8000
003F8000
003F8000
003F8000
003F8000
003F8000
003F8000
003F8000
003F8000
003F8000
003F8000
ENDCHAR
STARTCHAR 00A6
ENCODING 166
SWIDTH 495 0
DWIDTH 22 0
BBX 5 39 9 -8
BITMAP
F8
F8
F8
F8
F8
F8
F8
F8
F8
F8
F8
F8
F8
F8
F8
F8
00
00
00
00
00
00
F8
F8
F8
F8
F8
F8
F8
F8
F8
F8
F8
F8
F8
F8
F8
F8
F8
ENDCHAR
STARTCHAR 00A7
ENCODING 167
SWIDTH 517 0
DWIDTH 23 0
BBX 19 34 3 -3
BITMAP
07FF80
3FFF80
7FFF80
7FFF80
FFFF80
FFFF80
FFFF80
FF0000
FE0000
7F0000
7FC000
3FF000
7FFC00
FFFF00
FFFF80
FC7FC0
FC1FC0
FE0FE0
7F87E0
7FFFE0
3FFFC0
0FFF80
03FF00
007F80
001FC0
000FE0
001FE0
FFFFE0
FFFFE0
FFFFC0
FFFFC0
FFFF80
FFFF00
FFFC00
ENDCHAR
STARTCHAR 00A8
ENCODING 168
SWIDTH 495 0
DWIDTH 22 0
BBX 14 5 4 26
BITMAP
7878
7CFC
FCFC
7CFC
7878
ENDCHAR
STARTCHAR 00A9
ENCODING 169
SWIDTH 832 0
DWIDTH 37 0
BBX 33 32 2 0
BITMAP
000FFC0000
007FFF0000
01FFFFC000
03F007E000
07C001F000
0F00007800
1E01C03C00
1C0FF81C00
3C1FFE1E00
383FFE0E00
707C1F0700
70F80F0700
70F80F0700
E0F8000380
E0F8000380
E0F8000380
E0F8000380
E0F8000380
E0F8000380
70F80F8700
70FC0F0700
707E1F0700
383FFE0E00
3C3FFE1E00
1C0FF81C00
1E01E03C00
0F80007800
07C001F000
03F007E000
00FFFF8000
007FFF0000
000FF80000
ENDCHAR
STARTCHAR 00AA
ENCODING 170
SWIDTH 405 0
DWIDTH 18 0
BBX 16 15 1 15
BITMAP
0FF0
1FFC
3FFE
7FFE
FFFF
FC1F
F81F
F81F
F81F
FC1F
FE5F
7FDF
7FDF
3FDF
0FDF
ENDCHAR
STARTCHAR 00AB
ENCODING 171
SWIDTH 540 0
DWIDTH 24 0
BBX 19 14 3 4
BITMAP
07C3E0
0F87C0
1F0F80
3E1F00
3E3E00
7C3E00
F87C00
F87C00
7C3E00
3E3E00
3E1F00
1F0F80
0F87C0
07C3E0
ENDCHAR
STARTCHAR 00AC
ENCODING 172
SWIDTH 832 0
DWIDTH 37 0
BBX 26 11 6 8
BITMAP
FFFFFFC0
FFFFFFC0
FFFFFFC0
FFFFFFC0
FFFFFFC0
000007C0
000007C0
000007C0
000007C0
000007C0
000007C0
ENDCHAR
STARTCHAR 00AD
ENCODING 173
SWIDTH 315 0
DWIDTH 14 0
BBX 11 6 2 8
BITMAP
FFE0
FFE0
FFE0
FFE0
FFE0
FFE0
ENDCHAR
STARTCHAR 00AE
ENCODING 174
SWIDTH 832 0
DWIDTH 37 0
BBX 33 32 2 0
BITMAP
000FFC0000
007FFF0000
01FFFFC000
03F007E000
07C001F000
0F00007800
1E00003C00
1C3FFC1C00
3C3FFE1E00
383FFF0E00
703E1F0700
703E1F0700
703E1F0700
F03E1F0380
E03E7F0380
E03FFE0380
E03FF80380
E03EF80380
F03EFC0380
703E7C0700
703E7E0700
703E3E0700
383E3F0E00
3C3E1F1E00
1C3E1F9C00
1E00003C00
0F00007800
07C001F000
03F007E000
00FFFF8000
007FFF0000
000FF80000
ENDCHAR
STARTCHAR 00AF
ENCODING 175
SWIDTH 495 0
DWIDTH 22 0
BBX 12 3 5 27
BITMAP
FFF0
FFF0
FFF0
ENDCHAR
STARTCHAR 00B0
ENCODING 176
SWIDTH 315 0
DWIDTH 14 0
BBX 13 14 1 18
BITMAP
0F00
3FC0
7FE0
F9F0
F078
E038
E038
E038
E038
F078
7FF0
7FE0
3FC0
0700
ENDCHAR
STARTCHAR 00B1
ENCODING 177
SWIDTH 832 0
DWIDTH 37 0
BBX 26 27 6 0
BITMAP
003E0000
003E0000
003E0000
003E0000
003E0000
003E0000
003E0000
FFFFFFC0
FFFFFFC0
FFFFFFC0
FFFFFFC0
FFFFFFC0
003E0000
003E0000
003E0000
003E0000
003E0000
003E0000
003E0000
00000000
00000000
00000000
FFFFFFC0
FFFFFFC0
FFFFFFC0
FFFFFFC0
FFFFFFC0
ENDCHAR
STARTCHAR 00B2
ENCODING 178
SWIDTH 360 0
DWIDTH 16 0
BBX 14 19 1 12
BITMAP
1FE0
3FF0
7FF8
7FFC
FC7C
F87C
7C7C
7CF8
79F8
33F0
07E0
0FC0
3F80
7F00
7FFC
FFFC
FFFC
7FFC
1FFC
ENDCHAR
STARTCHAR 00B3
ENCODING 179
SWIDTH 360 0
DWIDTH 16 0
BBX 14 19 1 12
BITMAP
7FF0
7FF8
7FF8
7FF8
01F8
03F0
07E0
0FC0
1FF0
1FF8
1FFC
007C
007C
007C
FFFC
FFFC
FFF8
FFF0
FF00
ENDCHAR
STARTCHAR 00B4
ENCODING 180
SWIDTH 495 0
DWIDTH 22 0
BBX 9 8 8 24
BITMAP
1F80
1F00
3E00
3C00
7800
7000
F000
E000
ENDCHAR
STARTCHAR 00B5
ENCODING 181
SWIDTH 630 0
DWIDTH 28 0
BBX 28 33 -1 -9
BITMAP
07F807F0
07F80FF0
07F80FF0
07F00FF0
07F00FF0
0FF00FF0
0FF00FE0
0FF01FE0
0FF01FE0
0FF01FE0
0FE01FE0
1FE01FE0
1FE01FC0
1FE03FC0
1FE03FC0
1FE03FC0
1FE07FC0
3FF07FC0
3FF9FF80
3FFFFF80
3FFFFF80
3FFFFF80
3FBFBF80
3F9F3F80
7F800000
7F800000
7F800000
7F800000
7F000000
7F000000
FF000000
FF000000
FF000000
ENDCHAR
STARTCHAR 00B6
ENCODING 182
SWIDTH 495 0
DWIDTH 22 0
BBX 21 32 1 0
BITMAP
0FFFF8
1FFFF8
7FFFF8
7FE1C0
FFE1C0
FFE1C0
FFE1C0
FFE1C0
FFE1C0
FFE1C0
FFE1C0
7FE1C0
7FE1C0
1FE1C0
07E1C0
01E1C0
01E1C0
01E1C0
01E1C0
01E1C0
01E1C0
01E1C0
01E1C0
01E1C0
01E1C0
01E1C0
01E1C0
01E1C0
01E1C0
01E1C0
01E1C0
01E1C0
ENDCHAR
STARTCHAR 00B7
ENCODING 183
SWIDTH 270 0
DWIDTH 12 0
BBX 9 8 2 11
BITMAP
3E00
7F00
FF00
FF80
FF80
FF00
7F00
7E00
ENDCHAR
STARTCHAR 00B8
ENCODING 184
SWIDTH 495 0
DWIDTH 22 0
BBX 12 12 6 -10
BITMAP
0600
0600
0600
0E00
0F80
0FE0
0FE0
00F0
00F0
F3E0
FFE0
FFC0
ENDCHAR
STARTCHAR 00B9
ENCODING 185
SWIDTH 360 0
DWIDTH 16 0
BBX 8 19 4 12
BITMAP
FF
FF
FF
FF
1F
1F
1F
1F
1F
1F
1F
1F
1F
1F
1F
1F
1F
1F
1F
ENDCHAR
STARTCHAR 00BA
ENCODING 186
SWIDTH 405 0
DWIDTH 18 0
BBX 17 16 1 15
BITMAP
0FF000
1FFC00
3FFE00
7FFE00
FF7F00
FC3F00
F81F00
F81F80
F81F00
FC1F00
FE7F00
7FFF00
3FFE00
1FFC00
0FF000
01C000
ENDCHAR
STARTCHAR 00BB
ENCODING 187
SWIDTH 540 0
DWIDTH 24 0
BBX 19 14 2 4
BITMAP
FC7C00
7C3E00
3E1F00
1F0F80
0F87C0
0FC7C0
07C3E0
07C3E0
0F87C0
0F87C0
1F0F80
3E1F00
7C3E00
7C7C00
ENDCHAR
STARTCHAR 00BC
ENCODING 188
SWIDTH 877 0
DWIDTH 39 0
BBX 34 31 4 0
BITMAP
FE0003C000
FE0007C000
FE00078000
FE000F8000
1E000F0000
1E001E0000
1E003E0000
1E003C0000
1E007C0000
1E00780000
1E00F80000
1E00F00000
1E01E00000
1E03E00000
1E03C03D00
1E07C07D00
1E0780FB00
000F80F700
000F01F700
001E01EF00
003E03CF00
003C07CF00
007C078F00
00780F0F00
00F80FFFC0
00F00FFFC0
01E007FFC0
03E0000F00
03C0000F00
07C0000F00
0780000F00
ENDCHAR
STARTCHAR 00BD
ENCODING 189
SWIDTH 877 0
DWIDTH 39 0
BBX 34 31 4 0
BITMAP
FE0003C000
FE0007C000
FE00078000
FE000F8000
1E000F0000
1E001E0000
1E003E0000
1E003C0000
1E007C0000
1E00780000
1E00F80000
1E00F00000
1E01E00000
1E03E03000
1E03C1FE00
1E07C3FF00
1E0787FF80
000F87CF80
000F078780
001E078780
003E07CF80
003C079F00
007C033F00
007800FE00
00F801FC00
00F003F000
01E007E000
03E007FFC0
03C00FFFC0
07C007FFC0
078007FFC0
ENDCHAR
STARTCHAR 00BE
ENCODING 190
SWIDTH 877 0
DWIDTH 39 0
BBX 37 31 1 0
BITMAP
7FE0007800
7FF000F800
7FF800F000
7FF801F000
01F001E000
07E003C000
0FC007C000
1FE0078000
1FF00F8000
1FF80F0000
00781F0000
007C1E0000
007C3C0000
FFF87C0000
FFF87807A0
FFF0F80FA0
FFE0F01F60
0001F01EE0
0001E03EE0
0003C03DE0
0007C079E0
000780F9E0
000F80F1E0
000F01E1E0
001F01FFF8
001E01FFF8
003C00FFF8
007C0001E0
00780001E0
00F80001E0
00F00001E0
ENDCHAR
STARTCHAR 00BF
ENCODING 191
SWIDTH 517 0
DWIDTH 23 0
BBX 21 33 1 -1
BITMAP
001000
00FC00
01FE00
01FE00
01FE00
01FE00
01FE00
01FE00
00FC00
000000
000000
00FE00
00FE00
00FE00
07FE00
1FFE00
3FFE00
3FFE00
7FFE00
7FFE00
7F8000
FF0000
FF0000
FF03C0
7F87F8
7FEFF8
7FFFF0
3FFFF0
3FFFE0
1FFFE0
0FFFC0
03FF00
002000
ENDCHAR
STARTCHAR 00C0
ENCODING 192
SWIDTH 607 0
DWIDTH 27 0
BBX 24 42 2 0
BITMAP
03E000
01F000
00F000
00F800
007C00
003C00
001E00
000E00
000000
000000
001C00
01FF80
07FFE0
0FFFF0
1FFFF8
3FFFFC
3FFFFC
7FFFFE
7FC3FE
FF81FE
FF00FE
FF00FF
FF00FF
FF7FFF
FF7FFF
FF7FFF
FF7FFF
FF7FFF
FF7FFF
FF7FFF
FF7FFF
FF00FF
FF00FF
FF00FF
FF00FF
FF00FF
FF00FF
FF00FF
FF00FF
FF00FF
FF00FF
FF00FF
ENDCHAR
STARTCHAR 00C1
ENCODING 193
SWIDTH 607 0
DWIDTH 27 0
BBX 24 42 2 0
BITMAP
000FC0
000F80
001F00
001E00
003C00
003C00
007800
007000
000000
000000
001C00
01FF80
07FFE0
0FFFF0
1FFFF8
3FFFFC
3FFFFC
7FFFFE
7FC3FE
FF81FE
FF00FE
FF00FF
FF00FF
FF7FFF
FF7FFF
FF7FFF
FF7FFF
FF7FFF
FF7FFF
FF7FFF
FF7FFF
FF00FF
FF00FF
FF00FF
FF00FF
FF00FF
FF00FF
FF00FF
FF00FF
FF00FF
FF00FF
FF00FF
ENDCHAR
STARTCHAR 00C2
ENCODING 194
SWIDTH 607 0
DWIDTH 27 0
BBX 24 41 2 0
BITMAP
007E00
007E00
00FF00
00FF00
01E780
03C380
0383C0
0781C0
000000
001C00
01FF80
07FFE0
0FFFF0
1FFFF8
3FFFFC
3FFFFC
7FFFFE
7FC3FE
FF81FE
FF00FE
FF00FF
FF00FF
FF7FFF
FF7FFF
FF7FFF
FF7FFF
FF7FFF
FF7FFF
FF7FFF
FF7FFF
FF00FF
FF00FF
FF00FF
FF00FF
FF00FF
FF00FF
FF00FF
FF00FF
FF00FF
FF00FF
FF00FF
ENDCHAR
STARTCHAR 00C3
ENCODING 195
SWIDTH 607 0
DWIDTH 27 0
BBX 24 41 2 0
BITMAP
0000E0
01F0C0
03FFC0
03FFC0
07BF80
070000
000000
000000
000000
001C00
01FF80
07FFE0
0FFFF0
1FFFF8
3FFFFC
3FFFFC
7FFFFE
7FC3FE
FF81FE
FF00FE
FF00FF
FF00FF
FF7FFF
FF7FFF
FF7FFF
FF7FFF
FF7FFF
FF7FFF
FF7FFF
FF7FFF
FF00FF
FF00FF
FF00FF
FF00FF
FF00FF
FF00FF
FF00FF
FF00FF
FF00FF
FF00FF
FF00FF
ENDCHAR
STARTCHAR 00C4
ENCODING 196
SWIDTH 607 0
DWIDTH 27 0
BBX 24 41 2 0
BITMAP
018180
03C7C0
07E7C0
07E7E0
03E7C0
01C380
000000
000000
000000
001C00
01FF80
07FFE0
0FFFF0
1FFFF8
3FFFFC
3FFFFC
7FFFFE
7FC3FE
FF81FE
FF00FE
FF00FF
FF00FF
FF7FFF
FF7FFF
FF7FFF
FF7FFF
FF7FFF
FF7FFF
FF7FFF
FF7FFF
FF00FF
FF00FF
FF00FF
FF00FF
FF00FF
FF00FF
FF00FF
FF00FF
FF00FF
FF00FF
FF00FF
ENDCHAR
STARTCHAR 00C5
ENCODING 197
SWIDTH 607 0
DWIDTH 27 0
BBX 24 43 2 0
BITMAP
001800
00FE00
01FF00
01E780
03C380
038380
038380
01C380
01FF80
00FF00
007E00
001C00
01FF80
07FFE0
0FFFF0
1FFFF8
3FFFFC
3FFFFC
7FFFFE
7FC3FE
FF81FE
FF00FE
FF00FF
FF00FF
FF7FFF
FF7FFF
FF7FFF
FF7FFF
FF7FFF
FF7FFF
FF7FFF
FF7FFF
FF00FF
FF00FF
FF00FF
FF00FF
FF00FF
FF00FF
FF00FF
FF00FF
FF00FF
FF00FF
FF00FF
ENDCHAR
STARTCHAR 00C6
ENCODING 198
SWIDTH 855 0
DWIDTH 38 0
BBX 35 32 2 0
BITMAP
0010000000
01FF800FE0
07FFC07FE0
0FFFF3FFE0
1FFFFFFFE0
3FFFFFFFE0
3FFFFFFFE0
7FFFFFFFE0
7FC3FFF800
FF81FFC000
FF00FF8000
FF00FF0000
FF00FE0000
FF7FFFFFE0
FF7FFFFFE0
FF7FFFFFE0
FF7FFFFFE0
FF7FFFFFE0
FF7FFFFFE0
FF7FFFFFE0
FF00FE0000
FF00FF0000
FF00FF8000
FF00FFC000
FF00FFF800
FF00FFFFE0
FF00FFFFE0
FF00FFFFE0
FF00FFFFE0
FF00FFFFE0
FF00FEFFE0
FF00FE0FE0
ENDCHAR
STARTCHAR 00C7
ENCODING 199
SWIDTH 495 0
DWIDTH 22 0
BBX 20 41 1 -10
BITMAP
0007F0
007FF0
01FFF0
03FFF0
07FFF0
0FFFF0
1FFFF0
3FFF00
3FF000
7FE000
7FC000
7F8000
FF8000
FF0000
FF0000
FF0000
FF0000
FF0000
FF8000
7F8000
7FC000
7FE000
3FF000
3FFF00
1FFFF0
0FFFF0
07FFF0
03FFF0
00FFF0
003FF0
000FF0
000C00
001C00
001F00
001FC0
001FC0
0001E0
0001E0
01E7C0
01FFC0
01FF80
ENDCHAR
STARTCHAR 00C8
ENCODING 200
SWIDTH 517 0
DWIDTH 23 0
BBX 20 42 1 0
BITMAP
00F800
00FC00
007C00
003E00
001E00
000F00
000700
000380
000000
000000
000000
0007F0
007FF0
01FFF0
03FFF0
07FFF0
0FFFF0
1FFFF0
3FFC00
3FF000
7FC000
7FC000
7F8000
FFFFF0
FFFFF0
FFFFF0
FFFFF0
FFFFF0
FFFFF0
FFFFF0
7F8000
7F8000
7FC000
3FF000
3FFE00
1FFFF0
0FFFF0
07FFF0
03FFF0
00FFF0
003FF0
0007F0
ENDCHAR
STARTCHAR 00C9
ENCODING 201
SWIDTH 517 0
DWIDTH 23 0
BBX 20 42 1 0
BITMAP
0003F0
0003E0
0007C0
000F80
000F00
001E00
001C00
003C00
000000
000000
000000
0007F0
007FF0
01FFF0
03FFF0
07FFF0
0FFFF0
1FFFF0
3FFC00
3FF000
7FC000
7FC000
7F8000
FFFFF0
FFFFF0
FFFFF0
FFFFF0
FFFFF0
FFFFF0
FFFFF0
7F8000
7F8000
7FC000
3FF000
3FFE00
1FFFF0
0FFFF0
07FFF0
03FFF0
00FFF0
003FF0
0007F0
ENDCHAR
STARTCHAR 00CA
ENCODING 202
SWIDTH 517 0
DWIDTH 23 0
BBX 20 41 1 0
BITMAP
001F00
003F80
003F80
007BC0
007BC0
00F1E0
00E0F0
01C070
000000
000000
0007F0
007FF0
01FFF0
03FFF0
07FFF0
0FFFF0
1FFFF0
3FFC00
3FF000
7FC000
7FC000
7F8000
FFFFF0
FFFFF0
FFFFF0
FFFFF0
FFFFF0
FFFFF0
FFFFF0
7F8000
7F8000
7FC000
3FF000
3FFE00
1FFFF0
0FFFF0
07FFF0
03FFF0
00FFF0
003FF0
0007F0
ENDCHAR
STARTCHAR 00CB
ENCODING 203
SWIDTH 517 0
DWIDTH 23 0
BBX 20 41 1 0
BITMAP
0060E0
01F1F0
01F9F0
01F9F0
01F1F0
00E0E0
000000
000000
000000
000000
0007F0
007FF0
01FFF0
03FFF0
07FFF0
0FFFF0
1FFFF0
3FFC00
3FF000
7FC000
7FC000
7F8000
FFFFF0
FFFFF0
FFFFF0
FFFFF0
FFFFF0
FFFFF0
FFFFF0
7F8000
7F8000
7FC000
3FF000
3FFE00
1FFFF0
0FFFF0
07FFF0
03FFF0
00FFF0
003FF0
0007F0
ENDCHAR
STARTCHAR 00CC
ENCODING 204
SWIDTH 270 0
DWIDTH 12 0
BBX 10 42 0 0
BITMAP
FC00
7C00
3E00
1E00
0F00
0700
0780
0380
0000
0000
0000
3FC0
3FC0
3FC0
3FC0
3FC0
3FC0
3FC0
3FC0
3FC0
3FC0
3FC0
3FC0
3FC0
3FC0
3FC0
3FC0
3FC0
3FC0
3FC0
3FC0
3FC0
3FC0
3FC0
3FC0
3FC0
3FC0
3FC0
3FC0
3FC0
3FC0
3FC0
ENDCHAR
STARTCHAR 00CD
ENCODING 205
SWIDTH 270 0
DWIDTH 12 0
BBX 10 42 2 0
BITMAP
07C0
0F80
0F80
1F00
1E00
3C00
3800
7000
0000
0000
0000
FF00
FF00
FF00
FF00
FF00
FF00
FF00
FF00
FF00
FF00
FF00
FF00
FF00
FF00
FF00
FF00
FF00
FF00
FF00
FF00
FF00
FF00
FF00
FF00
FF00
FF00
FF00
FF00
FF00
FF00
FF00
ENDCHAR
STARTCHAR 00CE
ENCODING 206
SWIDTH 270 0
DWIDTH 12 0
BBX 13 42 0 0
BITMAP
1F80
1FC0
3FC0
3FE0
79E0
78F0
F070
E038
0000
0000
0000
3FC0
3FC0
3FC0
3FC0
3FC0
3FC0
3FC0
3FC0
3FC0
3FC0
3FC0
3FC0
3FC0
3FC0
3FC0
3FC0
3FC0
3FC0
3FC0
3FC0
3FC0
3FC0
3FC0
3FC0
3FC0
3FC0
3FC0
3FC0
3FC0
3FC0
3FC0
ENDCHAR
STARTCHAR 00CF
ENCODING 207
SWIDTH 270 0
DWIDTH 12 0
BBX 13 41 0 0
BITMAP
7060
F8F0
F9F8
F9F8
F8F8
7070
0000
0000
0000
0000
3FC0
3FC0
3FC0
3FC0
3FC0
3FC0
3FC0
3FC0
3FC0
3FC0
3FC0
3FC0
3FC0
3FC0
3FC0
3FC0
3FC0
3FC0
3FC0
3FC0
3FC0
3FC0
3FC0
3FC0
3FC0
3FC0
3FC0
3FC0
3FC0
3FC0
3FC0
ENDCHAR
STARTCHAR 00D0
ENCODING 208
SWIDTH 630 0
DWIDTH 28 0
BBX 28 31 0 0
BITMAP
1FFF0000
1FFFE000
1FFFF000
1FFFFC00
1FFFFE00
1FFFFF00
1FFFFF80
1FC7FF80
1FC0FFC0
1FC07FC0
1FC03FE0
1FC01FE0
FFFC1FE0
FFFC1FE0
FFFC0FE0
FFFC0FF0
FFFC0FE0
1FC01FE0
1FC01FE0
1FC01FE0
1FC03FE0
1FC07FC0
1FC1FFC0
1FCFFF80
1FDFFF80
1FDFFF00
1FDFFE00
1FDFFC00
1FDFF000
1FDFE000
1FDF0000
ENDCHAR
STARTCHAR 00D1
ENCODING 209
SWIDTH 652 0
DWIDTH 29 0
BBX 25 41 2 -1
BITMAP
00006000
00F8E000
01FFE000
01FFC000
03DF8000
03000000
00000000
00000000
00000000
1C000000
3F003F80
7F803F80
7FC03F80
FFE03F80
FFE03F80
FFF03F80
FFF03F80
FFF83F80
FFF83F80
FFFC3F80
FFFC3F80
FEFE3F80
FEFE3F80
FEFF3F80
FE7FBF80
FF3FBF80
FF3FBF80
FF1FFF80
FF1FFF80
FF0FFF80
FF0FFF80
FF07FF80
FF07FF80
FF03FF80
FF01FF80
FF01FF80
FF00FF80
FF00FF80
FF007F80
FF007F80
FF003F00
ENDCHAR
STARTCHAR 00D2
ENCODING 210
SWIDTH 765 0
DWIDTH 34 0
BBX 32 43 1 -1
BITMAP
003F0000
001F0000
000F8000
00078000
0003C000
0003C000
0001E000
0000E000
00000000
00000000
00038000
003FFC00
00FFFF00
01FFFFC0
03FFFFE0
07FFFFF0
0FFFFFF8
1FFFFFF8
3FFC1FFC
3FF007FE
7FC003FE
7FC001FE
7F8001FF
FF8000FF
FF0000FF
FF0000FF
FF0000FF
FF0000FF
FF0000FF
FF8000FF
7F8001FF
7FC001FE
7FE003FE
3FF007FE
3FFC3FFC
1FFFFFF8
0FFFFFF8
07FFFFF0
03FFFFE0
01FFFFC0
00FFFF00
003FFC00
0000C000
ENDCHAR
STARTCHAR 00D3
ENCODING 211
SWIDTH 765 0
DWIDTH 34 0
BBX 32 43 1 -1
BITMAP
00007C00
0000F800
0000F000
0001F000
0001E000
0003C000
00038000
00070000
00000000
00000000
00038000
003FFC00
00FFFF00
01FFFFC0
03FFFFE0
07FFFFF0
0FFFFFF8
1FFFFFF8
3FFC1FFC
3FF007FE
7FC003FE
7FC001FE
7F8001FF
FF8000FF
FF0000FF
FF0000FF
FF0000FF
FF0000FF
FF0000FF
FF8000FF
7F8001FF
7FC001FE
7FE003FE
3FF007FE
3FFC3FFC
1FFFFFF8
0FFFFFF8
07FFFFF0
03FFFFE0
01FFFFC0
00FFFF00
003FFC00
0000C000
ENDCHAR
STARTCHAR 00D4
ENCODING 212
SWIDTH 765 0
DWIDTH 34 0
BBX 32 42 1 -1
BITMAP
0007E000
0007E000
000FF000
000FF800
001E7800
001C3C00
003C1C00
00381E00
00000000
00038000
003FFC00
00FFFF00
01FFFFC0
03FFFFE0
07FFFFF0
0FFFFFF8
1FFFFFF8
3FFC1FFC
3FF007FE
7FC003FE
7FC001FE
7F8001FF
FF8000FF
FF0000FF
FF0000FF
FF0000FF
FF0000FF
FF0000FF
FF8000FF
7F8001FF
7FC001FE
7FE003FE
3FF007FE
3FFC3FFC
1FFFFFF8
0FFFFFF8
07FFFFF0
03FFFFE0
01FFFFC0
00FFFF00
003FFC00
0000C000
ENDCHAR
STARTCHAR 00D5
ENCODING 213
SWIDTH 765 0
DWIDTH 34 0
BBX 32 42 1 -1
BITMAP
00000600
000F8E00
001FFC00
003FFC00
0039F800
00700000
00000000
00000000
00000000
00038000
003FFC00
00FFFF00
01FFFFC0
03FFFFE0
07FFFFF0
0FFFFFF8
1FFFFFF8
3FFC1FFC
3FF007FE
7FC003FE
7FC001FE
7F8001FF
FF8000FF
FF0000FF
FF0000FF
FF0000FF
FF0000FF
FF0000FF
FF8000FF
7F8001FF
7FC001FE
7FE003FE
3FF007FE
3FFC3FFC
1FFFFFF8
0FFFFFF8
07FFFFF0
03FFFFE0
01FFFFC0
00FFFF00
003FFC00
0000C000
ENDCHAR
STARTCHAR 00D6
ENCODING 214
SWIDTH 765 0
DWIDTH 34 0
BBX 32 42 1 -1
BITMAP
001C1800
003E3C00
003E7E00
003E7E00
003E3C00
001C1C00
00000000
00000000
00000000
00038000
003FFC00
00FFFF00
01FFFFC0
03FFFFE0
07FFFFF0
0FFFFFF8
1FFFFFF8
3FFC1FFC
3FF007FE
7FC003FE
7FC001FE
7F8001FF
FF8000FF
FF0000FF
FF0000FF
FF0000FF
FF0000FF
FF0000FF
FF8000FF
7F8001FF
7FC001FE
7FE003FE
3FF007FE
3FFC3FFC
1FFFFFF8
0FFFFFF8
07FFFFF0
03FFFFE0
01FFFFC0
00FFFF00
003FFC00
0000C000
ENDCHAR
STARTCHAR 00D7
ENCODING 215
SWIDTH 832 0
DWIDTH 37 0
BBX 26 26 6 0
BITMAP
30000200
78000700
FC000F80
FE001FC0
7F003F80
3F807F00
1FC0FE00
0FE1FC00
07F3F800
03FFF000
01FFE000
00FFC000
007F8000
007F8000
00FFC000
01FFE000
03FFF000
07F3F800
0FE1FC00
1FC0FE00
3F807F00
7F003F80
FE001FC0
7C000F80
38000700
10000200
ENDCHAR
STARTCHAR 00D8
ENCODING 216
SWIDTH 765 0
DWIDTH 34 0
BBX 32 35 1 -2
BITMAP
00000008
0003C01C
003FFC3E
00FFFF7E
01FFFFFC
07FFFFFC
0FFFFFF8
0FFFFFF8
1FFFFFF8
3FF81FFC
3FE01FFE
7FC01FFE
7F803FFE
7F807DFF
FF00F8FF
FF01F0FF
FF03F0FF
FF07E0FF
FF0FC0FF
FF1F80FF
FF9F00FF
7FBE01FF
7FFC01FE
7FF803FE
3FF807FE
3FFC1FFC
1FFFFFF8
0FFFFFF8
1FFFFFF0
3FFFFFE0
3FFFFFC0
7EFFFF00
7C3FFC00
38008000
10000000
ENDCHAR
STARTCHAR 00D9
ENCODING 217
SWIDTH 607 0
DWIDTH 27 0
BBX 24 43 2 -1
BITMAP
03E000
01F000
00F000
00F800
007C00
003C00
001E00
000E00
000000
000000
000000
FF00FF
FF00FF
FF00FF
FF00FF
FF00FF
FF00FF
FF00FF
FF00FF
FF00FF
FF00FF
FF00FF
FF00FF
FF00FF
FF00FF
FF00FF
FF00FF
FF00FF
FF00FF
FF00FF
FF00FF
FF00FF
FF00FE
FF81FE
7FC3FE
7FFFFE
3FFFFC
3FFFFC
1FFFF8
0FFFF0
07FFE0
01FF80
003000
ENDCHAR
STARTCHAR 00DA
ENCODING 218
SWIDTH 607 0
DWIDTH 27 0
BBX 24 43 2 -1
BITMAP
000FC0
000F80
001F00
001E00
003C00
003C00
007800
007000
000000
000000
000000
FF00FF
FF00FF
FF00FF
FF00FF
FF00FF
FF00FF
FF00FF
FF00FF
FF00FF
FF00FF
FF00FF
FF00FF
FF00FF
FF00FF
FF00FF
FF00FF
FF00FF
FF00FF
FF00FF
FF00FF
FF00FF
FF00FE
FF81FE
7FC3FE
7FFFFE
3FFFFC
3FFFFC
1FFFF8
0FFFF0
07FFE0
01FF80
003000
ENDCHAR
STARTCHAR 00DB
ENCODING 219
SWIDTH 607 0
DWIDTH 27 0
BBX 24 43 2 -1
BITMAP
007E00
007E00
00FF00
01FF00
01E780
03C380
0383C0
0781C0
000000
000000
000000
FF00FF
FF00FF
FF00FF
FF00FF
FF00FF
FF00FF
FF00FF
FF00FF
FF00FF
FF00FF
FF00FF
FF00FF
FF00FF
FF00FF
FF00FF
FF00FF
FF00FF
FF00FF
FF00FF
FF00FF
FF00FF
FF00FE
FF81FE
7FC3FE
7FFFFE
3FFFFC
3FFFFC
1FFFF8
0FFFF0
07FFE0
01FF80
003000
ENDCHAR
STARTCHAR 00DC
ENCODING 220
SWIDTH 607 0
DWIDTH 27 0
BBX 24 42 2 -1
BITMAP
018180
03C7C0
07E7C0
07E7E0
03E7C0
01C380
000000
000000
000000
000000
FF00FF
FF00FF
FF00FF
FF00FF
FF00FF
FF00FF
FF00FF
FF00FF
FF00FF
FF00FF
FF00FF
FF00FF
FF00FF
FF00FF
FF00FF
FF00FF
FF00FF
FF00FF
FF00FF
FF00FF
FF00FF
FF00FE
FF81FE
7FC3FE
7FFFFE
3FFFFC
3FFFFC
1FFFF8
0FFFF0
07FFE0
01FF80
003000
ENDCHAR
STARTCHAR 00DD
ENCODING 221
SWIDTH 562 0
DWIDTH 25 0
BBX 21 42 2 0
BITMAP
001F80
001F00
003E00
003C00
007800
007000
00F000
01E000
000000
000000
000000
FF03F8
FF03F8
FF03F8
FF03F8
FF03F8
FF03F8
FF03F8
FF03F8
FF03F8
FF03F8
FF03F8
FF03F8
FF07F8
FFDFF8
7FFFF0
7FFFF0
3FFFE0
1FFFE0
0FFFC0
07FF00
01FC00
01FC00
01FC00
01FC00
01FC00
01FC00
01FC00
01FC00
01FC00
01FC00
01FC00
ENDCHAR
STARTCHAR 00DE
ENCODING 222
SWIDTH 562 0
DWIDTH 25 0
BBX 22 32 2 0
BITMAP
FF0000
FF0000
FF0000
FF0000
FF0000
FFFF00
FFFFC0
FFFFE0
FFFFF0
FFFFF8
FFFFF8
FFFFFC
FF87FC
FF03FC
FF03FC
FF01FC
FF03FC
FF03FC
FF0FFC
FF7FFC
FF7FF8
FF7FF8
FF7FF0
FF7FE0
FF7F80
FF7E00
FF0000
FF0000
FF0000
FF0000
FF0000
FF0000
ENDCHAR
STARTCHAR 00DF
ENCODING 223
SWIDTH 585 0
DWIDTH 26 0
BBX 25 32 0 0
BITMAP
00100000
01FF0000
07FFC000
0FFFE000
0FFFF000
1FFFF000
1FFFF800
3FC7F800
3F83F800
3F83F000
FF87F000
FF87E000
FF8FC000
FF9FE000
FF9FF800
FF8FFC00
3F87FE00
3F83FF00
3F81FF00
3F807F80
3F807F80
3F803F80
3F803F80
3F803F80
3F803F80
3F81FF80
3F9FFF80
3F9FFF00
3F9FFF00
3F9FFE00
3F9FF800
3F9FE000
ENDCHAR
STARTCHAR 00E0
ENCODING 224
SWIDTH 540 0
DWIDTH 24 0
BBX 22 32 1 0
BITMAP
03E000
01F000
00F000
00F800
007800
003C00
001C00
000E00
000000
000000
03FF00
07FFC0
1FFFE0
1FFFF0
3FFFF0
7FFFF8
7FFFF8
FF03FC
FF01FC
FE01FC
FE01FC
FE01FC
FE01FC
FF01FC
7F81FC
7FFDFC
7FFDFC
3FFDFC
1FFDFC
0FFDFC
07FDFC
01FDFC
ENDCHAR
STARTCHAR 00E1
ENCODING 225
SWIDTH 540 0
DWIDTH 24 0
BBX 22 32 1 0
BITMAP
000F80
001F00
001E00
003C00
003C00
007800
007000
00E000
000000
000000
03FF00
07FFC0
1FFFE0
1FFFF0
3FFFF0
7FFFF8
7FFFF8
FF03FC
FF01FC
FE01FC
FE01FC
FE01FC
FE01FC
FF01FC
7F81FC
7FFDFC
7FFDFC
3FFDFC
1FFDFC
0FFDFC
07FDFC
01FDFC
ENDCHAR
STARTCHAR 00E2
ENCODING 226
SWIDTH 540 0
DWIDTH 24 0
BBX 22 32 1 0
BITMAP
00FE00
00FE00
01FF00
01EF00
03C780
038380
0783C0
0701C0
000000
000000
03FF00
07FFC0
1FFFE0
1FFFF0
3FFFF0
7FFFF8
7FFFF8
FF03FC
FF01FC
FE01FC
FE01FC
FE01FC
FE01FC
FF01FC
7F81FC
7FFDFC
7FFDFC
3FFDFC
1FFDFC
0FFDFC
07FDFC
01FDFC
ENDCHAR
STARTCHAR 00E3
ENCODING 227
SWIDTH 540 0
DWIDTH 24 0
BBX 22 31 1 0
BITMAP
00C0C0
03FFC0
03FF80
07FF80
070E00
000000
000000
000000
000000
03FF00
07FFC0
1FFFE0
1FFFF0
3FFFF0
7FFFF8
7FFFF8
FF03FC
FF01FC
FE01FC
FE01FC
FE01FC
FE01FC
FF01FC
7F81FC
7FFDFC
7FFDFC
3FFDFC
1FFDFC
0FFDFC
07FDFC
01FDFC
ENDCHAR
STARTCHAR 00E4
ENCODING 228
SWIDTH 540 0
DWIDTH 24 0
BBX 22 31 1 0
BITMAP
03C780
07C7C0
07CFC0
07C7C0
03C780
000000
000000
000000
000000
03FF00
07FFC0
1FFFE0
1FFFF0
3FFFF0
7FFFF8
7FFFF8
FF03FC
FF01FC
FE01FC
FE01FC
FE01FC
FE01FC
FF01FC
7F81FC
7FFDFC
7FFDFC
3FFDFC
1FFDFC
0FFDFC
07FDFC
01FDFC
ENDCHAR
STARTCHAR 00E5
ENCODING 229
SWIDTH 540 0
DWIDTH 24 0
BBX 22 35 1 0
BITMAP
007E00
00FF00
01FF80
03C380
03C3C0
0381C0
03C3C0
01C380
01FF80
00FF00
007E00
000000
000000
03FF00
07FFC0
1FFFE0
1FFFF0
3FFFF0
7FFFF8
7FFFF8
FF03FC
FF01FC
FE01FC
FE01FC
FE01FC
FE01FC
FF01FC
7F81FC
7FFDFC
7FFDFC
3FFDFC
1FFDFC
0FFDFC
07FDFC
01FDFC
ENDCHAR
STARTCHAR 00E6
ENCODING 230
SWIDTH 832 0
DWIDTH 37 0
BBX 36 22 0 0
BITMAP
0FFE07FC00
3FFF1FFF00
3FFFBFFF80
3FFFFFFFC0
1FFFFFFFE0
1C0FFF0FE0
0007FC07F0
003FFC3FF0
01FFF8FFF0
07FFF9FFC0
1FFFF9FF00
3FFBF8FC00
7FC3F8E000
7F03F80180
7E03FC03E0
FE07FE07F0
FF0FFFFFF0
7FFFFFFFE0
7FFFFFFFE0
3FFF3FFF80
1FFE1FFF00
0FF807FC00
ENDCHAR
STARTCHAR 00E7
ENCODING 231
SWIDTH 382 0
DWIDTH 17 0
BBX 16 32 1 -10
BITMAP
007F
03FF
0FFF
1FFF
3FFF
7FFF
7FFF
7F80
FF00
FE00
FE00
FE00
FE00
FF00
7F80
7FFF
7FFF
3FFF
1FFF
0FFF
03FF
007F
00E0
00C0
00F8
00FE
01FE
000E
000E
0F3E
0FFE
0FFC
ENDCHAR
STARTCHAR 00E8
ENCODING 232
SWIDTH 540 0
DWIDTH 24 0
BBX 23 32 1 0
BITMAP
07E000
01F000
01F000
00F800
007800
003C00
001C00
000E00
000000
000000
01FF00
07FF80
0FFFE0
1FFFF0
3FFFF0
7F83F8
7F07FC
7E1FF0
FE3FE0
FE7F80
FE7F00
FE7C00
FE3870
FF00FE
7F01FE
7FC7FC
7FFFFC
3FFFF8
1FFFF0
0FFFE0
07FFC0
01FF00
ENDCHAR
STARTCHAR 00E9
ENCODING 233
SWIDTH 540 0
DWIDTH 24 0
BBX 23 32 1 0
BITMAP
000F80
001F00
003E00
003C00
007800
007800
00F000
00E000
000000
000000
01FF00
07FF80
0FFFE0
1FFFF0
3FFFF0
7F83F8
7F07FC
7E1FF0
FE3FE0
FE7F80
FE7F00
FE7C00
FE3870
FF00FE
7F01FE
7FC7FC
7FFFFC
3FFFF8
1FFFF0
0FFFE0
07FFC0
01FF00
ENDCHAR
STARTCHAR 00EA
ENCODING 234
SWIDTH 540 0
DWIDTH 24 0
BBX 23 32 1 0
BITMAP
00FC00
00FE00
01FE00
01EF00
03C780
038780
0703C0
0F01C0
000000
000000
01FF00
07FF80
0FFFE0
1FFFF0
3FFFF0
7F83F8
7F07FC
7E1FF0
FE3FE0
FE7F80
FE7F00
FE7C00
FE3870
FF00FE
7F01FE
7FC7FC
7FFFFC
3FFFF8
1FFFF0
0FFFE0
07FFC0
01FF00
ENDCHAR
STARTCHAR 00EB
ENCODING 235
SWIDTH 540 0
DWIDTH 24 0
BBX 23 31 1 0
BITMAP
038780
07CFC0
07CFC0
07CFC0
07C780
000000
000000
000000
000000
01FF00
07FF80
0FFFE0
1FFFF0
3FFFF0
7F83F8
7F07FC
7E1FF0
FE3FE0
FE7F80
FE7F00
FE7C00
FE3870
FF00FE
7F01FE
7FC7FC
7FFFFC
3FFFF8
1FFFF0
0FFFE0
07FFC0
01FF00
ENDCHAR
STARTCHAR 00EC
ENCODING 236
SWIDTH 247 0
DWIDTH 11 0
BBX 9 32 0 0
BITMAP
F800
7C00
3C00
1E00
1E00
0F00
0780
0380
0000
0000
3F80
3F80
3F80
3F80
3F80
3F80
3F80
3F80
3F80
3F80
3F80
3F80
3F80
3F80
3F80
3F80
3F80
3F80
3F80
3F80
3F80
3F80
ENDCHAR
STARTCHAR 00ED
ENCODING 237
SWIDTH 247 0
DWIDTH 11 0
BBX 9 32 2 0
BITMAP
0F80
1F00
1E00
3E00
3C00
7800
7000
E000
0000
0000
FE00
FE00
FE00
FE00
FE00
FE00
FE00
FE00
FE00
FE00
FE00
FE00
FE00
FE00
FE00
FE00
FE00
FE00
FE00
FE00
FE00
FE00
ENDCHAR
STARTCHAR 00EE
ENCODING 238
SWIDTH 247 0
DWIDTH 11 0
BBX 13 32 -1 0
BITMAP
1FC0
1FC0
3FE0
3DE0
78F0
7070
F078
E038
0000
0000
1FC0
1FC0
1FC0
1FC0
1FC0
1FC0
1FC0
1FC0
1FC0
1FC0
1FC0
1FC0
1FC0
1FC0
1FC0
1FC0
1FC0
1FC0
1FC0
1FC0
1FC0
1FC0
ENDCHAR
STARTCHAR 00EF
ENCODING 239
SWIDTH 247 0
DWIDTH 11 0
BBX 13 31 -1 0
BITMAP
78F0
F8F8
FCF8
F8F8
78F0
0000
0000
0000
0000
1FC0
1FC0
1FC0
1FC0
1FC0
1FC0
1FC0
1FC0
1FC0
1FC0
1FC0
1FC0
1FC0
1FC0
1FC0
1FC0
1FC0
1FC0
1FC0
1FC0
1FC0
1FC0
ENDCHAR
STARTCHAR 00F0
ENCODING 240
SWIDTH 517 0
DWIDTH 23 0
BBX 22 32 1 -1
BITMAP
07F000
07F180
03FF80
01FFC0
03FF80
0FFE00
0FFF00
0F7F00
007F80
003FC0
019FC0
07DFE0
1FEFE0
3FEFF0
3FF7F0
7FF3F8
7F83F8
FF03F8
FE01FC
FE01FC
FE01FC
FE01FC
FE03F8
7F03F8
7FDFF8
7FFFF0
3FFFF0
1FFFE0
0FFFC0
07FF80
03FE00
002000
ENDCHAR
STARTCHAR 00F1
ENCODING 241
SWIDTH 517 0
DWIDTH 23 0
BBX 20 31 2 0
BITMAP
010380
07FF00
0FFF00
0FFE00
1C3C00
000000
000000
000000
000000
07FC00
0FFF00
1FFF80
3FFFC0
7FFFE0
7FFFE0
FF9FE0
FE0FF0
FE07F0
FE07F0
FE07F0
FE07F0
FE07F0
FE07F0
FE07F0
FE07F0
FE07F0
FE07F0
FE07F0
FE07F0
FE07F0
FE07F0
ENDCHAR
STARTCHAR 00F2
ENCODING 242
SWIDTH 540 0
DWIDTH 24 0
BBX 22 32 1 0
BITMAP
07E000
01F000
01F000
00F800
007800
003C00
001C00
000E00
000000
000000
01FF00
07FFC0
0FFFE0
1FFFF0
3FFFF0
7FFFF8
7FFFF8
7F83FC
FF01FC
FE01FC
FE01FC
FE01FC
FE01FC
FF01FC
7F83FC
7FFFF8
7FFFF8
3FFFF0
1FFFF0
0FFFE0
07FF80
01FF00
ENDCHAR
STARTCHAR 00F3
ENCODING 243
SWIDTH 540 0
DWIDTH 24 0
BBX 22 32 1 0
BITMAP
001F80
001F00
003E00
003C00
007800
007800
00F000
00E000
000000
000000
01FF00
07FFC0
0FFFE0
1FFFF0
3FFFF0
7FFFF8
7FFFF8
7F83FC
FF01FC
FE01FC
FE01FC
FE01FC
FE01FC
FF01FC
7F83FC
7FFFF8
7FFFF8
3FFFF0
1FFFF0
0FFFE0
07FF80
01FF00
ENDCHAR
STARTCHAR 00F4
ENCODING 244
SWIDTH 540 0
DWIDTH 24 0
BBX 22 32 1 0
BITMAP
00FC00
00FE00
01FE00
01EF00
03C700
038780
0703C0
0F01C0
000000
000000
01FF00
07FFC0
0FFFE0
1FFFF0
3FFFF0
7FFFF8
7FFFF8
7F83FC
FF01FC
FE01FC
FE01FC
FE01FC
FE01FC
FF01FC
7F83FC
7FFFF8
7FFFF8
3FFFF0
1FFFF0
0FFFE0
07FF80
01FF00
ENDCHAR
STARTCHAR 00F5
ENCODING 245
SWIDTH 540 0
DWIDTH 24 0
BBX 22 31 1 0
BITMAP
00C1C0
03FFC0
07FF80
07FF00
060E00
000000
000000
000000
000000
01FF00
07FFC0
0FFFE0
1FFFF0
3FFFF0
7FFFF8
7FFFF8
7F83FC
FF01FC
FE01FC
FE01FC
FE01FC
FE01FC
FF01FC
7F83FC
7FFFF8
7FFFF8
3FFFF0
1FFFF0
0FFFE0
07FF80
01FF00
ENDCHAR
STARTCHAR 00F6
ENCODING 246
SWIDTH 540 0
DWIDTH 24 0
BBX 22 31 1 0
BITMAP
038780
07CFC0
07CFC0
07CFC0
07C780
000000
000000
000000
000000
01FF00
07FFC0
0FFFE0
1FFFF0
3FFFF0
7FFFF8
7FFFF8
7F83FC
FF01FC
FE01FC
FE01FC
FE01FC
FE01FC
FF01FC
7F83FC
7FFFF8
7FFFF8
3FFFF0
1FFFF0
0FFFE0
07FF80
01FF00
ENDCHAR
STARTCHAR 00F7
ENCODING 247
SWIDTH 832 0
DWIDTH 37 0
BBX 26 25 6 1
BITMAP
000C0000
003E0000
007F0000
007F0000
007F0000
007F0000
003E0000
00080000
00000000
00000000
FFFFFFC0
FFFFFFC0
FFFFFFC0
FFFFFFC0
FFFFFFC0
00000000
00000000
00000000
001C0000
003E0000
007F0000
007F0000
007F0000
007F0000
003E0000
ENDCHAR
STARTCHAR 00F8
ENCODING 248
SWIDTH 540 0
DWIDTH 24 0
BBX 23 26 1 -2
BITMAP
000010
00003C
01FF7E
07FFFC
0FFFF8
1FFFF0
3FFFF0
7FFFF8
7F87F8
7F0FFC
FE1FFC
FE3FFC
FE7CFC
FEF8FC
FEF1FC
FFE1FC
7FE3FC
7FC7FC
3FFFF8
3FFFF0
3FFFF0
7FFFE0
7FFFC0
F9FF00
700000
200000
ENDCHAR
STARTCHAR 00F9
ENCODING 249
SWIDTH 517 0
DWIDTH 23 0
BBX 20 32 2 0
BITMAP
0FC000
07C000
03E000
01E000
00F000
007000
007800
003800
000000
000000
FE07F0
FE07F0
FE07F0
FE07F0
FE07F0
FE07F0
FE07F0
FE07F0
FE07F0
FE07F0
FE07F0
FE07F0
FE07F0
FE07F0
FE0FF0
FF9FE0
7FFFE0
7FFFE0
3FFFC0
1FFF80
0FFF00
03FC00
ENDCHAR
STARTCHAR 00FA
ENCODING 250
SWIDTH 517 0
DWIDTH 23 0
BBX 20 32 2 0
BITMAP
003F00
003E00
007C00
007800
00F000
01E000
01C000
03C000
000000
000000
FE07F0
FE07F0
FE07F0
FE07F0
FE07F0
FE07F0
FE07F0
FE07F0
FE07F0
FE07F0
FE07F0
FE07F0
FE07F0
FE07F0
FE0FF0
FF9FE0
7FFFE0
7FFFE0
3FFFC0
1FFF80
0FFF00
03FC00
ENDCHAR
STARTCHAR 00FB
ENCODING 251
SWIDTH 517 0
DWIDTH 23 0
BBX 20 32 2 0
BITMAP
01F800
03FC00
03FC00
07BE00
079E00
0F0F00
0E0700
1C0380
000000
000000
FE07F0
FE07F0
FE07F0
FE07F0
FE07F0
FE07F0
FE07F0
FE07F0
FE07F0
FE07F0
FE07F0
FE07F0
FE07F0
FE07F0
FE0FF0
FF9FE0
7FFFE0
7FFFE0
3FFFC0
1FFF80
0FFF00
03FC00
ENDCHAR
STARTCHAR 00FC
ENCODING 252
SWIDTH 517 0
DWIDTH 23 0
BBX 20 31 2 0
BITMAP
0F0F00
1F9F00
1F9F80
1F9F00
0F0F00
000000
000000
000000
000000
FE07F0
FE07F0
FE07F0
FE07F0
FE07F0
FE07F0
FE07F0
FE07F0
FE07F0
FE07F0
FE07F0
FE07F0
FE07F0
FE07F0
FE0FF0
FF9FE0
7FFFE0
7FFFE0
3FFFC0
1FFF80
0FFF00
03FC00
ENDCHAR
STARTCHAR 00FD
ENCODING 253
SWIDTH 517 0
DWIDTH 23 0
BBX 20 41 2 -9
BITMAP
003F00
003E00
007C00
007800
00F000
01E000
01C000
03C000
000000
000000
FE07F0
FE07F0
FE07F0
FE07F0
FE07F0
FE07F0
FE07F0
FE07F0
FE07F0
FE07F0
FE07F0
FE07F0
FE07F0
FE07F0
FE07F0
FF0FE0
7FFFE0
7FFFE0
3FFFC0
3FFF80
0FFF00
07FC00
03F800
03F800
03F800
03F800
03F800
03F800
03F800
03F800
03F800
ENDCHAR
STARTCHAR 00FE
ENCODING 254
SWIDTH 540 0
DWIDTH 24 0
BBX 22 40 2 -9
BITMAP
FE0000
FE0000
FE0000
FE0000
FE0000
FE0000
FE0000
FE0000
FE0000
FFFF00
FFFF80
FFFFC0
FFFFE0
FFFFF0
FFFFF8
FFFFF8
FF07F8
FE03FC
FE01FC
FE01FC
FE01FC
FE01FC
FE03FC
FE07F8
FEFFF8
FEFFF8
FEFFF0
FEFFE0
FEFFC0
FEFF80
FEFE00
FE0000
FE0000
FE0000
FE0000
FE0000
FE0000
FE0000
FE0000
FE0000
ENDCHAR
STARTCHAR 00FF
ENCODING 255
SWIDTH 517 0
DWIDTH 23 0
BBX 20 40 2 -9
BITMAP
0F0F00
1F9F00
1F9F80
1F9F00
0F0F00
000000
000000
000000
000000
FE07F0
FE07F0
FE07F0
FE07F0
FE07F0
FE07F0
FE07F0
FE07F0
FE07F0
FE07F0
FE07F0
FE07F0
FE07F0
FE07F0
FE07F0
FF0FE0
7FFFE0
7FFFE0
3FFFC0
3FFF80
0FFF00
07FC00
03F800
03F800
03F800
03F800
03F800
03F800
03F800
03F800
03F800
ENDCHAR
STARTCHAR 0102
ENCODING 258
SWIDTH 607 0
DWIDTH 27 0
BBX 24 40 2 0
BITMAP
0700E0
0701C0
0381C0
03FFC0
01FF80
00FF00
001000
000000
001C00
01FF80
07FFE0
0FFFF0
1FFFF8
3FFFFC
3FFFFC
7FFFFE
7FC3FE
FF81FE
FF00FE
FF00FF
FF00FF
FF7FFF
FF7FFF
FF7FFF
FF7FFF
FF7FFF
FF7FFF
FF7FFF
FF7FFF
FF00FF
FF00FF
FF00FF
FF00FF
FF00FF
FF00FF
FF00FF
FF00FF
FF00FF
FF00FF
FF00FF
ENDCHAR
STARTCHAR 0103
ENCODING 259
SWIDTH 540 0
DWIDTH 24 0
BBX 22 32 1 0
BITMAP
0701C0
0701C0
0701C0
03FF80
03FF80
01FF00
007C00
000000
000000
000000
03FF00
07FFC0
1FFFE0
1FFFF0
3FFFF0
7FFFF8
7FFFF8
FF03FC
FF01FC
FE01FC
FE01FC
FE01FC
FE01FC
FF01FC
7F81FC
7FFDFC
7FFDFC
3FFDFC
1FFDFC
0FFDFC
07FDFC
01FDFC
ENDCHAR
STARTCHAR 0106
ENCODING 262
SWIDTH 495 0
DWIDTH 22 0
BBX 20 42 1 0
BITMAP
0003F0
0003E0
0007C0
000780
000F00
000E00
001E00
003C00
000000
000000
000000
0007F0
007FF0
01FFF0
03FFF0
07FFF0
0FFFF0
1FFFF0
3FFF00
3FF000
7FE000
7FC000
7F8000
FF8000
FF0000
FF0000
FF0000
FF0000
FF0000
FF8000
7F8000
7FC000
7FE000
3FF000
3FFF00
1FFFF0
0FFFF0
07FFF0
03FFF0
00FFF0
003FF0
0007F0
ENDCHAR
STARTCHAR 0107
ENCODING 263
SWIDTH 382 0
DWIDTH 17 0
BBX 16 32 1 0
BITMAP
003F
003E
007C
0078
00F0
00E0
01E0
01C0
0000
0000
007F
03FF
0FFF
1FFF
3FFF
7FFF
7FFF
7F80
FF00
FE00
FE00
FE00
FE00
FF00
7F80
7FFF
7FFF
3FFF
1FFF
0FFF
03FF
007F
ENDCHAR
STARTCHAR 010C
ENCODING 268
SWIDTH 495 0
DWIDTH 22 0
BBX 20 42 1 0
BITMAP
01C070
00E0F0
00F1E0
0079E0
007FC0
003FC0
003F80
001F80
000000
000000
000000
0007F0
007FF0
01FFF0
03FFF0
07FFF0
0FFFF0
1FFFF0
3FFF00
3FF000
7FE000
7FC000
7F8000
FF8000
FF0000
FF0000
FF0000
FF0000
FF0000
FF8000
7F8000
7FC000
7FE000
3FF000
3FFF00
1FFFF0
0FFFF0
07FFF0
03FFF0
00FFF0
003FF0
0007F0
ENDCHAR
STARTCHAR 010D
ENCODING 269
SWIDTH 382 0
DWIDTH 17 0
BBX 16 32 1 0
BITMAP
0E07
0F0F
078E
07DE
03FC
03FC
01F8
00F8
0000
0000
007F
03FF
0FFF
1FFF
3FFF
7FFF
7FFF
7F80
FF00
FE00
FE00
FE00
FE00
FF00
7F80
7FFF
7FFF
3FFF
1FFF
0FFF
03FF
007F
ENDCHAR
STARTCHAR 0110
ENCODING 272
SWIDTH 630 0
DWIDTH 28 0
BBX 28 31 0 0
BITMAP
1FFF0000
1FFFE000
1FFFF000
1FFFFC00
1FFFFE00
1FFFFF00
1FFFFF80
1FC7FF80
1FC0FFC0
1FC07FC0
1FC03FE0
1FC01FE0
FFFC1FE0
FFFC1FE0
FFFC0FE0
FFFC0FF0
FFFC0FE0
1FC01FE0
1FC01FE0
1FC01FE0
1FC03FE0
1FC07FC0
1FC1FFC0
1FCFFF80
1FDFFF80
1FDFFF00
1FDFFE00
1FDFFC00
1FDFF000
1FDFE000
1FDF0000
ENDCHAR
STARTCHAR 0111
ENCODING 273
SWIDTH 562 0
DWIDTH 25 0
BBX 24 31 1 0
BITMAP
0001FC
0001FC
003FFF
003FFF
003FFF
003FFF
0001FC
0001FC
0001FC
01FDFC
07FDFC
0FFDFC
1FFDFC
3FFDFC
7FFDFC
7FFDFC
FF81FC
FF01FC
FE01FC
FE01FC
FE01FC
FE01FC
FF01FC
FF83FC
7FFFF8
7FFFF8
3FFFF0
1FFFF0
0FFFE0
07FFC0
03FF00
ENDCHAR
STARTCHAR 011E
ENCODING 286
SWIDTH 765 0
DWIDTH 34 0
BBX 32 42 1 -1
BITMAP
00300E00
00380E00
003C1C00
003FFC00
001FF800
000FF000
00000000
00000000
00000000
0003C000
003FFE00
00FFFF80
01FFFFC0
03FFFFF0
07FFFFF0
0FFFFFE0
1FFFFFC0
3FF80F80
3FF00380
7FC00100
7FC00000
7F800000
7F80FFFF
FF00FFFF
FF00FFFF
FF00FFFF
FF00FFFF
FF80FFFF
7F80FFFF
7F8001FE
7FC001FE
7FE003FE
3FF007FC
3FFC1FFC
1FFFFFF8
0FFFFFF8
07FFFFF0
03FFFFE0
01FFFFC0
00FFFF00
003FFC00
00008000
ENDCHAR
STARTCHAR 011F
ENCODING 287
SWIDTH 540 0
DWIDTH 24 0
BBX 22 42 1 -10
BITMAP
0701C0
0701C0
0703C0
07FF80
03FF80
01FF00
007C00
000000
000000
000000
03FF00
07FFC0
1FFFE0
1FFFF0
3FFFF0
7FFFF8
7FFFF8
7F83FC
FF01FC
FE01FC
FE01FC
FE01FC
FE01FC
FF01FC
7F81FC
7FFDFC
7FFDFC
3FFDFC
1FFDFC
0FFDFC
07FDFC
01FDFC
0001FC
0001FC
1003FC
1FFFF8
1FFFF8
1FFFF0
1FFFF0
1FFFE0
1FFF80
03FC00
ENDCHAR
STARTCHAR 0128
ENCODING 296
SWIDTH 270 0
DWIDTH 12 0
BBX 13 41 0 0
BITMAP
0018
3E38
7FF0
FFF0
E7E0
C000
0000
0000
0000
0000
3FC0
3FC0
3FC0
3FC0
3FC0
3FC0
3FC0
3FC0
3FC0
3FC0
3FC0
3FC0
3FC0
3FC0
3FC0
3FC0
3FC0
3FC0
3FC0
3FC0
3FC0
3FC0
3FC0
3FC0
3FC0
3FC0
3FC0
3FC0
3FC0
3FC0
3FC0
ENDCHAR
STARTCHAR 0129
ENCODING 297
SWIDTH 247 0
DWIDTH 11 0
BBX 13 31 -1 0
BITMAP
0818
3FF8
7FF8
FFF0
E1E0
0000
0000
0000
0000
1FC0
1FC0
1FC0
1FC0
1FC0
1FC0
1FC0
1FC0
1FC0
1FC0
1FC0
1FC0
1FC0
1FC0
1FC0
1FC0
1FC0
1FC0
1FC0
1FC0
1FC0
1FC0
ENDCHAR
STARTCHAR 0130
ENCODING 304
SWIDTH 270 0
DWIDTH 12 0
BBX 8 41 2 0
BITMAP
1C
3E
7E
3E
3E
08
00
00
00
00
FF
FF
FF
FF
FF
FF
FF
FF
FF
FF
FF
FF
FF
FF
FF
FF
FF
FF
FF
FF
FF
FF
FF
FF
FF
FF
FF
FF
FF
FF
FF
ENDCHAR
STARTCHAR 0131
ENCODING 305
SWIDTH 247 0
DWIDTH 11 0
BBX 7 22 2 0
BITMAP
FE
FE
FE
FE
FE
FE
FE
FE
FE
FE
FE
FE
FE
FE
FE
FE
FE
FE
FE
FE
FE
FE
ENDCHAR
STARTCHAR 0141
ENCODING 321
SWIDTH 427 0
DWIDTH 19 0
BBX 19 31 0 0
BITMAP
3FC000
3FC000
3FC000
3FC000
3FC000
3FC000
3FC000
3FC200
3FCE00
3FDE00
3FFE00
3FFE00
3FFE00
3FF800
3FF000
7FC000
FFC000
FFC000
FFC000
FFC000
BFC000
3FC000
3FE000
1FF000
1FFFE0
1FFFE0
0FFFE0
0FFFE0
07FFE0
01FFE0
007FE0
ENDCHAR
STARTCHAR 0142
ENCODING 322
SWIDTH 270 0
DWIDTH 12 0
BBX 12 31 0 0
BITMAP
1FC0
1FC0
1FC0
1FC0
1FC0
1FC0
1FC0
1FC0
1FC0
1FD0
1FF0
1FF0
1FF0
1FF0
1FE0
7FC0
FFC0
FFC0
FFC0
DFC0
9FC0
1FC0
1FC0
1FC0
1FC0
1FC0
1FC0
1FC0
1FC0
1FC0
1FC0
ENDCHAR
STARTCHAR 0152
ENCODING 338
SWIDTH 1035 0
DWIDTH 46 0
BBX 43 33 1 -1
BITMAP
000180000000
003FFC000FE0
00FFFF007FE0
01FFFF81FFE0
07FFFFC7FFE0
0FFFFFEFFFE0
0FFFFFFFFFE0
1FFFFFFFFFE0
3FFC1FFFF800
3FF007FFE000
7FC003FF8000
7FC001FF0000
7F8001FF0000
FF8000FFFFE0
FF0000FFFFE0
FF0000FFFFE0
FF0000FFFFE0
FF0000FFFFE0
FF0000FFFFE0
FF8000FFFFE0
7F8001FF0000
7FC001FF0000
7FE003FF8000
3FF007FFC000
3FFC3FFFF800
1FFFFFFFFFE0
0FFFFFFFFFE0
07FFFFEFFFE0
03FFFFC7FFE0
01FFFF81FFE0
00FFFF007FE0
003FFC000FE0
000080000000
ENDCHAR
STARTCHAR 0153
ENCODING 339
SWIDTH 877 0
DWIDTH 39 0
BBX 38 22 1 0
BITMAP
01FE03FE00
07FF8FFF80
0FFFDFFFC0
1FFFFFFFE0
3FFFFFFFF0
7FFFFF87F0
7FFFFE0FF8
7F83FE1FE0
FF01FC7FC0
FE01FCFF00
FE01FCFE00
FE01FC7840
FE01FC70F0
FF01FE20FC
7F83FF03FC
7FFFFFC7F8
7FFFFFFFF8
3FFFFFFFF0
1FFFFFFFE0
0FFFDFFFC0
07FF8FFF80
01FE03FE00
ENDCHAR
STARTCHAR 015E
ENCODING 350
SWIDTH 517 0
DWIDTH 23 0
BBX 21 41 1 -10
BITMAP
03FFF0
0FFFF0
1FFFF0
3FFFF0
7FFFF0
7FFFF0
7FFFF0
7F8000
7F0000
7F8000
7FC000
7FF000
3FFC00
3FFE00
1FFF80
0FFFC0
03FFE0
00FFF0
007FF8
001FF8
000FF8
0007F8
0007F8
001FF8
FFFFF8
FFFFF8
FFFFF0
FFFFF0
FFFFE0
FFFFC0
FFFE00
003800
003000
003E00
003F80
003F80
000380
000380
03CF80
03FF80
03FF00
ENDCHAR
STARTCHAR 015F
ENCODING 351
SWIDTH 427 0
DWIDTH 19 0
BBX 17 32 1 -10
BITMAP
07FF00
1FFF00
3FFF00
7FFF00
7FFF00
7FFF00
7F0000
7F0000
7FC000
3FF000
1FFC00
0FFE00
03FF00
00FF80
003F80
003F80
FFFF80
FFFF80
FFFF80
FFFF00
FFFE00
FFF800
00C000
00C000
00F800
00FC00
01FE00
001E00
001E00
0E3E00
0FFE00
0FFC00
ENDCHAR
STARTCHAR 0160
ENCODING 352
SWIDTH 517 0
DWIDTH 23 0
BBX 21 42 1 0
BITMAP
0F03C0
070380
078700
03CF00
03FE00
01FE00
00FC00
00FC00
000000
000000
000000
03FFF0
0FFFF0
1FFFF0
3FFFF0
7FFFF0
7FFFF0
7FFFF0
7F8000
7F0000
7F8000
7FC000
7FF000
3FFC00
3FFE00
1FFF80
0FFFC0
03FFE0
00FFF0
007FF8
001FF8
000FF8
0007F8
0007F8
001FF8
FFFFF8
FFFFF8
FFFFF0
FFFFF0
FFFFE0
FFFFC0
FFFE00
ENDCHAR
STARTCHAR 0161
ENCODING 353
SWIDTH 427 0
DWIDTH 19 0
BBX 17 32 1 0
BITMAP
3C0E00
1E1E00
1E3C00
0F7800
07F800
07F000
03F000
03E000
000000
000000
07FF00
1FFF00
3FFF00
7FFF00
7FFF00
7FFF00
7F0000
7F0000
7FC000
3FF000
1FFC00
0FFE00
03FF00
00FF80
003F80
003F80
FFFF80
FFFF80
FFFF80
FFFF00
FFFE00
FFF800
ENDCHAR
STARTCHAR 0168
ENCODING 360
SWIDTH 607 0
DWIDTH 27 0
BBX 24 42 2 -1
BITMAP
0000E0
01F1C0
03FFC0
03FF80
07BF00
060000
000000
000000
000000
000000
FF00FF
FF00FF
FF00FF
FF00FF
FF00FF
FF00FF
FF00FF
FF00FF
FF00FF
FF00FF
FF00FF
FF00FF
FF00FF
FF00FF
FF00FF
FF00FF
FF00FF
FF00FF
FF00FF
FF00FF
FF00FF
FF00FE
FF81FE
7FC3FE
7FFFFE
3FFFFC
3FFFFC
1FFFF8
0FFFF0
07FFE0
01FF80
003000
ENDCHAR
STARTCHAR 0169
ENCODING 361
SWIDTH 517 0
DWIDTH 23 0
BBX 20 31 2 0
BITMAP
018380
07FF00
0FFF00
0FFE00
1C1C00
000000
000000
000000
000000
FE07F0
FE07F0
FE07F0
FE07F0
FE07F0
FE07F0
FE07F0
FE07F0
FE07F0
FE07F0
FE07F0
FE07F0
FE07F0
FE07F0
FE0FF0
FF9FE0
7FFFE0
7FFFE0
3FFFC0
1FFF80
0FFF00
03FC00
ENDCHAR
STARTCHAR 0178
ENCODING 376
SWIDTH 562 0
DWIDTH 25 0
BBX 21 41 2 0
BITMAP
030700
078F80
0FCF80
0FCF80
0F8F80
070700
000000
000000
000000
000000
FF03F8
FF03F8
FF03F8
FF03F8
FF03F8
FF03F8
FF03F8
FF03F8
FF03F8
FF03F8
FF03F8
FF03F8
FF07F8
FFDFF8
7FFFF0
7FFFF0
3FFFE0
1FFFE0
0FFFC0
07FF00
01FC00
01FC00
01FC00
01FC00
01FC00
01FC00
01FC00
01FC00
01FC00
01FC00
01FC00
ENDCHAR
STARTCHAR 017D
ENCODING 381
SWIDTH 517 0
DWIDTH 23 0
BBX 23 42 0 0
BITMAP
0701C0
0383C0
03C380
01E780
01FF00
00FF00
00FE00
007E00
000000
000000
000000
3FFFF8
3FFFFC
3FFFFE
3FFFFE
3FFFFE
3FFFFE
3FFFFE
0007FC
000FFC
000FF8
001FF0
003FE0
007FE0
007FC0
00FF80
01FF00
03FF00
03FE00
07FC00
0FFC00
1FF800
1FF000
3FE000
7FE000
7FFFFE
7FFFFE
FFFFFE
7FFFFE
7FFFFE
3FFFFE
1FFFFE
ENDCHAR
STARTCHAR 017E
ENCODING 382
SWIDTH 450 0
DWIDTH 20 0
BBX 18 32 1 0
BITMAP
1C0E00
1E1E00
0F3C00
0F3C00
07F800
07F800
03F000
03F000
000000
000000
7FFF00
7FFF80
7FFFC0
7FFFC0
7FFFC0
7FFFC0
007F80
00FF80
01FF00
03FE00
07FC00
0FF800
1FF000
3FE000
3FC000
7FFFC0
FFFFC0
FFFFC0
FFFFC0
FFFFC0
FFFFC0
3FFFC0
ENDCHAR
STARTCHAR 0192
ENCODING 402
SWIDTH 562 0
DWIDTH 25 0
BBX 23 40 1 -9
BITMAP
0003FE
000FFE
001FFE
003FFE
003FFE
003FFE
007F80
007F00
007F00
007F00
007F00
3FFFF8
3FFFF8
3FFFF8
3FFFF8
3FFFF8
3FFFF8
3FFFF8
00FE00
01FE00
01FE00
01FE00
01FC00
01FC00
01FC00
01FC00
03FC00
03FC00
03FC00
03F800
03F800
03F800
03F800
07F800
FFF800
FFF000
FFF000
FFE000
FFE000
FF8000
ENDCHAR
STARTCHAR 01A0
ENCODING 416
SWIDTH 765 0
DWIDTH 34 0
BBX 33 35 1 -1
BITMAP
0000001F80
0000001F80
0003803F00
003FFC3F00
00FFFF3E00
01FFFFFE00
03FFFFFC00
07FFFFFC00
0FFFFFF800
1FFFFFF800
3FFC1FFC00
3FF007FE00
7FC003FE00
7FC001FE00
7F8001FF00
FF8000FF00
FF0000FF00
FF0000FF00
FF0000FF00
FF0000FF00
FF0000FF00
FF8000FF00
7F8001FF00
7FC001FE00
7FE003FE00
3FF007FE00
3FFC3FFC00
1FFFFFF800
0FFFFFF800
07FFFFF000
03FFFFE000
01FFFFC000
00FFFF0000
003FFC0000
0000C00000
ENDCHAR
STARTCHAR 01A1
ENCODING 417
SWIDTH 540 0
DWIDTH 24 0
BBX 24 25 1 0
BITMAP
00001F
00003F
00003E
01FF7E
07FFFC
0FFFFC
1FFFF8
3FFFF8
7FFFF8
7FFFF8
7F83FC
FF01FC
FE01FC
FE01FC
FE01FC
FE01FC
FF01FC
7F83FC
7FFFF8
7FFFF8
3FFFF0
1FFFF0
0FFFE0
07FF80
01FF00
ENDCHAR
STARTCHAR 01AF
ENCODING 431
SWIDTH 652 0
DWIDTH 29 0
BBX 30 35 2 -1
BITMAP
000000FC
000001F8
000001F8
FF00FFF0
FF00FFF0
FF00FFE0
FF00FFE0
FF00FFC0
FF00FFC0
FF00FF80
FF00FF00
FF00FF00
FF00FF00
FF00FF00
FF00FF00
FF00FF00
FF00FF00
FF00FF00
FF00FF00
FF00FF00
FF00FF00
FF00FF00
FF00FF00
FF00FF00
FF00FE00
FF81FE00
7FC3FE00
7FFFFE00
3FFFFC00
3FFFFC00
1FFFF800
0FFFF000
07FFE000
01FF8000
00300000
ENDCHAR
STARTCHAR 01B0
ENCODING 432
SWIDTH 562 0
DWIDTH 25 0
BBX 25 25 2 0
BITMAP
00001F80
00001F80
00001F00
FE07FF00
FE07FE00
FE07FE00
FE07FC00
FE07FC00
FE07F800
FE07F000
FE07F000
FE07F000
FE07F000
FE07F000
FE07F000
FE07F000
FE07F000
FE0FF000
FF9FE000
7FFFE000
7FFFE000
3FFFC000
1FFF8000
0FFF0000
03FC0000
ENDCHAR
STARTCHAR 02C6
ENCODING 710
SWIDTH 495 0
DWIDTH 22 0
BBX 14 8 4 24
BITMAP
0FC0
1FE0
1FE0
3EF0
3CF0
7878
7038
E01C
ENDCHAR
STARTCHAR 02C7
ENCODING 711
SWIDTH 495 0
DWIDTH 22 0
BBX 12 8 5 24
BITMAP
E070
F0F0
79E0
7DE0
3FC0
3FC0
1F80
1F80
ENDCHAR
STARTCHAR 02C9
ENCODING 713
SWIDTH 495 0
DWIDTH 22 0
BBX 12 3 5 27
BITMAP
FFF0
FFF0
FFF0
ENDCHAR
STARTCHAR 02D8
ENCODING 728
SWIDTH 495 0
DWIDTH 22 0
BBX 14 7 4 25
BITMAP
E01C
601C
7038
7FF8
3FF0
1FF0
0F80
ENDCHAR
STARTCHAR 02D9
ENCODING 729
SWIDTH 495 0
DWIDTH 22 0
BBX 6 6 8 26
BITMAP
30
78
FC
FC
7C
78
ENDCHAR
STARTCHAR 02DA
ENCODING 730
SWIDTH 495 0
DWIDTH 22 0
BBX 12 11 5 24
BITMAP
0F00
3FC0
7FE0
79E0
F0F0
F070
F070
70F0
7FE0
3FE0
1F80
ENDCHAR
STARTCHAR 02DB
ENCODING 731
SWIDTH 495 0
DWIDTH 22 0
BBX 8 10 7 -10
BITMAP
0C
18
30
70
70
F0
FF
7F
7F
1F
ENDCHAR
STARTCHAR 02DC
ENCODING 732
SWIDTH 495 0
DWIDTH 22 0
BBX 14 5 4 26
BITMAP
0C1C
3FF8
7FF8
7FF0
E1E0
ENDCHAR
STARTCHAR 02DD
ENCODING 733
SWIDTH 495 0
DWIDTH 22 0
BBX 13 8 7 25
BITMAP
3CF8
7CF8
78F0
79E0
71C0
E3C0
E380
C700
ENDCHAR
STARTCHAR 0394
ENCODING 916
SWIDTH 697 0
DWIDTH 31 0
BBX 32 32 0 0
BITMAP
001FF000
001FF800
001FF800
003FF800
003FFC00
003FFC00
007FFE00
007FFE00
007FFE00
00FFFF00
00FEFF00
01FE7F00
01FE7F80
01FC7F80
03FC3FC0
03FC3FC0
03F83FC0
07F81FE0
07F81FE0
07F01FE0
0FF00FF0
0FF00FF0
1FE007F0
1FE007F8
1FE007F8
3FC003FC
3FFFFFFC
3FFFFFFC
7FFFFFFE
7FFFFFFE
FFFFFFFE
FFFFFFFF
ENDCHAR
STARTCHAR 03A9
ENCODING 937
SWIDTH 787 0
DWIDTH 35 0
BBX 34 33 1 0
BITMAP
0007F00000
003FFF0000
00FFFFC000
03FFFFE000
07FFFFF000
0FFFFFF800
0FFFFFFC00
1FFE1FFE00
1FF807FE00
3FF003FE00
3FE001FF00
3FC001FF00
7FC000FF00
7FC000FF00
7FC000FF00
7FC000FF00
7FC000FF00
3FC000FF00
3FC000FF00
3FC000FF00
3FC001FE00
1FE001FE00
1FE003FC00
0FF003F800
07F807F800
03FC0FF000
FFFC0FFFC0
FFFC0FFFC0
FFFC0FFFC0
FFFC0FFFC0
FFFC0FFFC0
FFFC0FFFC0
FFFC0FFFC0
ENDCHAR
STARTCHAR 03BC
ENCODING 956
SWIDTH 630 0
DWIDTH 28 0
BBX 28 33 -1 -9
BITMAP
07F807F0
07F80FF0
07F80FF0
07F00FF0
07F00FF0
0FF00FF0
0FF00FE0
0FF01FE0
0FF01FE0
0FF01FE0
0FE01FE0
1FE01FE0
1FE01FC0
1FE03FC0
1FE03FC0
1FE03FC0
1FE07FC0
3FF07FC0
3FF9FF80
3FFFFF80
3FFFFF80
3FFFFF80
3FBFBF80
3F9F3F80
7F800000
7F800000
7F800000
7F800000
7F000000
7F000000
FF000000
FF000000
FF000000
ENDCHAR
STARTCHAR 03C0
ENCODING 960
SWIDTH 742 0
DWIDTH 33 0
BBX 33 24 0 0
BITMAP
00FFFFFF80
0FFFFFFF80
3FFFFFFF80
3FFFFFFF80
7FFFFFFF80
7EFF07F800
FCFF07F000
F8FF07F000
00FE0FF000
01FE0FF000
01FE0FF000
01FE0FF000
01FE0FF000
01FE0FE000
01FC1FE000
01FC1FE000
03FC1FE000
03FC1FE000
03FC1FE000
03FC1FC000
03FC1FC000
03F83FC000
07F83FC000
07F83FC000
ENDCHAR
STARTCHAR 1EA0
ENCODING 7840
SWIDTH 607 0
DWIDTH 27 0
BBX 24 44 2 -12
BITMAP
001C00
01FF80
07FFE0
0FFFF0
1FFFF8
3FFFFC
3FFFFC
7FFFFE
7FC3FE
FF81FE
FF00FE
FF00FF
FF00FF
FF7FFF
FF7FFF
FF7FFF
FF7FFF
FF7FFF
FF7FFF
FF7FFF
FF7FFF
FF00FF
FF00FF
FF00FF
FF00FF
FF00FF
FF00FF
FF00FF
FF00FF
FF00FF
FF00FF
FF00FF
000000
000000
000000
007C00
00FE00
00FF00
01FF00
01FF00
00FF00
00FF00
007E00
001800
ENDCHAR
STARTCHAR 1EA1
ENCODING 7841
SWIDTH 540 0
DWIDTH 24 0
BBX 22 34 1 -12
BITMAP
03FF00
07FFC0
1FFFE0
1FFFF0
3FFFF0
7FFFF8
7FFFF8
FF03FC
FF01FC
FE01FC
FE01FC
FE01FC
FE01FC
FF01FC
7F81FC
7FFDFC
7FFDFC
3FFDFC
1FFDFC
0FFDFC
07FDFC
01FDFC
000000
000000
000000
007C00
00FE00
01FF00
01FF00
01FF00
01FF00
00FE00
00FE00
003800
ENDCHAR
STARTCHAR 1EA2
ENCODING 7842
SWIDTH 607 0
DWIDTH 27 0
BBX 24 43 2 0
BITMAP
001800
007E00
00FF00
00E780
00C380
000380
001F00
001E00
001C00
001800
000000
001C00
01FF80
07FFE0
0FFFF0
1FFFF8
3FFFFC
3FFFFC
7FFFFE
7FC3FE
FF81FE
FF00FE
FF00FF
FF00FF
FF7FFF
FF7FFF
FF7FFF
FF7FFF
FF7FFF
FF7FFF
FF7FFF
FF7FFF
FF00FF
FF00FF
FF00FF
FF00FF
FF00FF
FF00FF
FF00FF
FF00FF
FF00FF
FF00FF
FF00FF
ENDCHAR
STARTCHAR 1EA3
ENCODING 7843
SWIDTH 540 0
DWIDTH 24 0
BBX 22 34 1 0
BITMAP
007C00
00FE00
00FF00
01C700
004700
000F00
003E00
003C00
003000
003000
000000
000000
03FF00
07FFC0
1FFFE0
1FFFF0
3FFFF0
7FFFF8
7FFFF8
FF03FC
FF01FC
FE01FC
FE01FC
FE01FC
FE01FC
FF01FC
7F81FC
7FFDFC
7FFDFC
3FFDFC
1FFDFC
0FFDFC
07FDFC
01FDFC
ENDCHAR
STARTCHAR 1EA4
ENCODING 7844
SWIDTH 607 0
DWIDTH 27 0
BBX 24 50 2 0
BITMAP
003F00
003E00
007C00
007800
00F800
00F000
01E000
01C000
000000
007E00
007E00
00FF00
00FF00
01E780
03C380
0383C0
0781C0
000000
001C00
01FF80
07FFE0
0FFFF0
1FFFF8
3FFFFC
3FFFFC
7FFFFE
7FC3FE
FF81FE
FF00FE
FF00FF
FF00FF
FF7FFF
FF7FFF
FF7FFF
FF7FFF
FF7FFF
FF7FFF
FF7FFF
FF7FFF
FF00FF
FF00FF
FF00FF
FF00FF
FF00FF
FF00FF
FF00FF
FF00FF
FF00FF
FF00FF
FF00FF
ENDCHAR
STARTCHAR 1EA5
ENCODING 7845
SWIDTH 540 0
DWIDTH 24 0
BBX 22 41 1 0
BITMAP
003E00
007C00
007800
00F000
00F000
01E000
03C000
038000
000000
00FE00
00FE00
01FF00
01EF00
03C780
038380
0783C0
0701C0
000000
000000
03FF00
07FFC0
1FFFE0
1FFFF0
3FFFF0
7FFFF8
7FFFF8
FF03FC
FF01FC
FE01FC
FE01FC
FE01FC
FE01FC
FF01FC
7F81FC
7FFDFC
7FFDFC
3FFDFC
1FFDFC
0FFDFC
07FDFC
01FDFC
ENDCHAR
STARTCHAR 1EA6
ENCODING 7846
SWIDTH 607 0
DWIDTH 27 0
BBX 24 50 2 0
BITMAP
00F800
007C00
003E00
003E00
001F00
000F00
000780
000380
000000
007E00
007E00
00FF00
00FF00
01E780
03C380
0383C0
0781C0
000000
001C00
01FF80
07FFE0
0FFFF0
1FFFF8
3FFFFC
3FFFFC
7FFFFE
7FC3FE
FF81FE
FF00FE
FF00FF
FF00FF
FF7FFF
FF7FFF
FF7FFF
FF7FFF
FF7FFF
FF7FFF
FF7FFF
FF7FFF
FF00FF
FF00FF
FF00FF
FF00FF
FF00FF
FF00FF
FF00FF
FF00FF
FF00FF
FF00FF
FF00FF
ENDCHAR
STARTCHAR 1EA7
ENCODING 7847
SWIDTH 540 0
DWIDTH 24 0
BBX 22 41 1 0
BITMAP
00F800
007C00
003C00
001E00
001E00
000F00
000780
000380
000000
00FE00
00FE00
01FF00
01EF00
03C780
038380
0783C0
0701C0
000000
000000
03FF00
07FFC0
1FFFE0
1FFFF0
3FFFF0
7FFFF8
7FFFF8
FF03FC
FF01FC
FE01FC
FE01FC
FE01FC
FE01FC
FF01FC
7F81FC
7FFDFC
7FFDFC
3FFDFC
1FFDFC
0FFDFC
07FDFC
01FDFC
ENDCHAR
STARTCHAR 1EA8
ENCODING 7848
SWIDTH 607 0
DWIDTH 27 0
BBX 24 50 2 0
BITMAP
0000F0
0001F8
0003FC
00031C
00011C
00001C
00007C
000078
000060
007E60
007E00
00FF00
00FF00
01E780
03C380
0383C0
0781C0
000000
001C00
01FF80
07FFE0
0FFFF0
1FFFF8
3FFFFC
3FFFFC
7FFFFE
7FC3FE
FF81FE
FF00FE
FF00FF
FF00FF
FF7FFF
FF7FFF
FF7FFF
FF7FFF
FF7FFF
FF7FFF
FF7FFF
FF7FFF
FF00FF
FF00FF
FF00FF
FF00FF
FF00FF
FF00FF
FF00FF
FF00FF
FF00FF
FF00FF
FF00FF
ENDCHAR
STARTCHAR 1EA9
ENCODING 7849
SWIDTH 540 0
DWIDTH 24 0
BBX 22 42 1 0
BITMAP
000040
0001F0
0003F8
0007BC
00071C
00001C
0000F8
0000F8
0000E0
0000C0
00FE00
00FE00
01FF00
01EF00
03C780
038380
0783C0
0701C0
000000
000000
03FF00
07FFC0
1FFFE0
1FFFF0
3FFFF0
7FFFF8
7FFFF8
FF03FC
FF01FC
FE01FC
FE01FC
FE01FC
FE01FC
FF01FC
7F81FC
7FFDFC
7FFDFC
3FFDFC
1FFDFC
0FFDFC
07FDFC
01FDFC
ENDCHAR
STARTCHAR 1EAA
ENCODING 7850
SWIDTH 607 0
DWIDTH 27 0
BBX 24 48 2 0
BITMAP
000070
00FEF0
01FFE0
01FFE0
018780
038000
000000
007E00
007E00
00FF00
00FF00
01E780
03C380
0383C0
0781C0
000000
001C00
01FF80
07FFE0
0FFFF0
1FFFF8
3FFFFC
3FFFFC
7FFFFE
7FC3FE
FF81FE
FF00FE
FF00FF
FF00FF
FF7FFF
FF7FFF
FF7FFF
FF7FFF
FF7FFF
FF7FFF
FF7FFF
FF7FFF
FF00FF
FF00FF
FF00FF
FF00FF
FF00FF
FF00FF
FF00FF
FF00FF
FF00FF
FF00FF
FF00FF
ENDCHAR
STARTCHAR 1EAB
ENCODING 7851
SWIDTH 540 0
DWIDTH 24 0
BBX 22 40 1 0
BITMAP
000070
00F860
01FFE0
01FFC0
03FFC0
038000
000000
000000
00FE00
00FE00
01FF00
01EF00
03C780
038380
0783C0
0701C0
000000
000000
03FF00
07FFC0
1FFFE0
1FFFF0
3FFFF0
7FFFF8
7FFFF8
FF03FC
FF01FC
FE01FC
FE01FC
FE01FC
FE01FC
FF01FC
7F81FC
7FFDFC
7FFDFC
3FFDFC
1FFDFC
0FFDFC
07FDFC
01FDFC
ENDCHAR
STARTCHAR 1EAC
ENCODING 7852
SWIDTH 607 0
DWIDTH 27 0
BBX 24 53 2 -12
BITMAP
007E00
007E00
00FF00
00FF00
01E780
03C380
0383C0
0781C0
000000
001C00
01FF80
07FFE0
0FFFF0
1FFFF8
3FFFFC
3FFFFC
7FFFFE
7FC3FE
FF81FE
FF00FE
FF00FF
FF00FF
FF7FFF
FF7FFF
FF7FFF
FF7FFF
FF7FFF
FF7FFF
FF7FFF
FF7FFF
FF00FF
FF00FF
FF00FF
FF00FF
FF00FF
FF00FF
FF00FF
FF00FF
FF00FF
FF00FF
FF00FF
000000
000000
000000
007C00
00FE00
00FF00
01FF00
01FF00
00FF00
00FF00
007E00
001800
ENDCHAR
STARTCHAR 1EAD
ENCODING 7853
SWIDTH 540 0
DWIDTH 24 0
BBX 22 44 1 -12
BITMAP
00FE00
00FE00
01FF00
01EF00
03C780
038380
0783C0
0701C0
000000
000000
03FF00
07FFC0
1FFFE0
1FFFF0
3FFFF0
7FFFF8
7FFFF8
FF03FC
FF01FC
FE01FC
FE01FC
FE01FC
FE01FC
FF01FC
7F81FC
7FFDFC
7FFDFC
3FFDFC
1FFDFC
0FFDFC
07FDFC
01FDFC
000000
000000
000000
007C00
00FE00
01FF00
01FF00
01FF00
01FF00
00FE00
00FE00
003800
ENDCHAR
STARTCHAR 1EAE
ENCODING 7854
SWIDTH 607 0
DWIDTH 27 0
BBX 24 50 2 0
BITMAP
0007C0
000F80
000F00
001F00
003E00
003C00
007800
007000
000000
000000
0700E0
0701C0
0381C0
03FFC0
01FF80
00FF00
001000
000000
001C00
01FF80
07FFE0
0FFFF0
1FFFF8
3FFFFC
3FFFFC
7FFFFE
7FC3FE
FF81FE
FF00FE
FF00FF
FF00FF
FF7FFF
FF7FFF
FF7FFF
FF7FFF
FF7FFF
FF7FFF
FF7FFF
FF7FFF
FF00FF
FF00FF
FF00FF
FF00FF
FF00FF
FF00FF
FF00FF
FF00FF
FF00FF
FF00FF
FF00FF
ENDCHAR
STARTCHAR 1EAF
ENCODING 7855
SWIDTH 540 0
DWIDTH 24 0
BBX 22 41 1 0
BITMAP
000F80
001F00
001E00
003E00
003C00
007800
007000
00E000
000000
0701C0
0701C0
0701C0
03FF80
03FF80
01FF00
007C00
000000
000000
000000
03FF00
07FFC0
1FFFE0
1FFFF0
3FFFF0
7FFFF8
7FFFF8
FF03FC
FF01FC
FE01FC
FE01FC
FE01FC
FE01FC
FF01FC
7F81FC
7FFDFC
7FFDFC
3FFDFC
1FFDFC
0FFDFC
07FDFC
01FDFC
ENDCHAR
STARTCHAR 1EB0
ENCODING 7856
SWIDTH 607 0
DWIDTH 27 0
BBX 24 50 2 0
BITMAP
03E000
01F000
01F000
00F800
007800
003C00
001C00
000E00
000000
000000
0700E0
0701C0
0381C0
03FFC0
01FF80
00FF00
001000
000000
001C00
01FF80
07FFE0
0FFFF0
1FFFF8
3FFFFC
3FFFFC
7FFFFE
7FC3FE
FF81FE
FF00FE
FF00FF
FF00FF
FF7FFF
FF7FFF
FF7FFF
FF7FFF
FF7FFF
FF7FFF
FF7FFF
FF7FFF
FF00FF
FF00FF
FF00FF
FF00FF
FF00FF
FF00FF
FF00FF
FF00FF
FF00FF
FF00FF
FF00FF
ENDCHAR
STARTCHAR 1EB1
ENCODING 7857
SWIDTH 540 0
DWIDTH 24 0
BBX 22 41 1 0
BITMAP
03E000
01F000
00F000
00F800
007800
003C00
001C00
000E00
000000
0701C0
0701C0
0701C0
03FF80
03FF80
01FF00
007C00
000000
000000
000000
03FF00
07FFC0
1FFFE0
1FFFF0
3FFFF0
7FFFF8
7FFFF8
FF03FC
FF01FC
FE01FC
FE01FC
FE01FC
FE01FC
FF01FC
7F81FC
7FFDFC
7FFDFC
3FFDFC
1FFDFC
0FFDFC
07FDFC
01FDFC
ENDCHAR
STARTCHAR 1EB2
ENCODING 7858
SWIDTH 607 0
DWIDTH 27 0
BBX 24 50 2 0
BITMAP
003C00
007E00
00FF00
00E700
004300
000700
001F00
001E00
001800
001800
0700E0
0701C0
0381C0
03FFC0
01FF80
00FF00
001000
000000
001C00
01FF80
07FFE0
0FFFF0
1FFFF8
3FFFFC
3FFFFC
7FFFFE
7FC3FE
FF81FE
FF00FE
FF00FF
FF00FF
FF7FFF
FF7FFF
FF7FFF
FF7FFF
FF7FFF
FF7FFF
FF7FFF
FF7FFF
FF00FF
FF00FF
FF00FF
FF00FF
FF00FF
FF00FF
FF00FF
FF00FF
FF00FF
FF00FF
FF00FF
ENDCHAR
STARTCHAR 1EB3
ENCODING 7859
SWIDTH 540 0
DWIDTH 24 0
BBX 22 42 1 0
BITMAP
001000
007C00
00FE00
01E700
01C700
000700
003F00
003E00
003C00
003000
0701C0
0701C0
0701C0
03FF80
03FF80
01FF00
007C00
000000
000000
000000
03FF00
07FFC0
1FFFE0
1FFFF0
3FFFF0
7FFFF8
7FFFF8
FF03FC
FF01FC
FE01FC
FE01FC
FE01FC
FE01FC
FF01FC
7F81FC
7FFDFC
7FFDFC
3FFDFC
1FFDFC
0FFDFC
07FDFC
01FDFC
ENDCHAR
STARTCHAR 1EB4
ENCODING 7860
SWIDTH 607 0
DWIDTH 27 0
BBX 24 48 2 0
BITMAP
0000E0
01F9E0
01FFC0
03FFC0
038F80
070000
000000
000000
0700E0
0701C0
0381C0
03FFC0
01FF80
00FF00
001000
000000
001C00
01FF80
07FFE0
0FFFF0
1FFFF8
3FFFFC
3FFFFC
7FFFFE
7FC3FE
FF81FE
FF00FE
FF00FF
FF00FF
FF7FFF
FF7FFF
FF7FFF
FF7FFF
FF7FFF
FF7FFF
FF7FFF
FF7FFF
FF00FF
FF00FF
FF00FF
FF00FF
FF00FF
FF00FF
FF00FF
FF00FF
FF00FF
FF00FF
FF00FF
ENDCHAR
STARTCHAR 1EB5
ENCODING 7861
SWIDTH 540 0
DWIDTH 24 0
BBX 22 40 1 0
BITMAP
0000E0
00F0C0
03FFC0
03FF80
07BF80
070000
000000
000000
0701C0
0701C0
0701C0
03FF80
03FF80
01FF00
007C00
000000
000000
000000
03FF00
07FFC0
1FFFE0
1FFFF0
3FFFF0
7FFFF8
7FFFF8
FF03FC
FF01FC
FE01FC
FE01FC
FE01FC
FE01FC
FF01FC
7F81FC
7FFDFC
7FFDFC
3FFDFC
1FFDFC
0FFDFC
07FDFC
01FDFC
ENDCHAR
STARTCHAR 1EB6
ENCODING 7862
SWIDTH 607 0
DWIDTH 27 0
BBX 24 52 2 -12
BITMAP
0700E0
0701C0
0381C0
03FFC0
01FF80
00FF00
001000
000000
001C00
01FF80
07FFE0
0FFFF0
1FFFF8
3FFFFC
3FFFFC
7FFFFE
7FC3FE
FF81FE
FF00FE
FF00FF
FF00FF
FF7FFF
FF7FFF
FF7FFF
FF7FFF
FF7FFF
FF7FFF
FF7FFF
FF7FFF
FF00FF
FF00FF
FF00FF
FF00FF
FF00FF
FF00FF
FF00FF
FF00FF
FF00FF
FF00FF
FF00FF
000000
000000
000000
007C00
00FE00
00FF00
01FF00
01FF00
00FF00
00FF00
007E00
001800
ENDCHAR
STARTCHAR 1EB7
ENCODING 7863
SWIDTH 540 0
DWIDTH 24 0
BBX 22 44 1 -12
BITMAP
0701C0
0701C0
0701C0
03FF80
03FF80
01FF00
007C00
000000
000000
000000
03FF00
07FFC0
1FFFE0
1FFFF0
3FFFF0
7FFFF8
7FFFF8
FF03FC
FF01FC
FE01FC
FE01FC
FE01FC
FE01FC
FF01FC
7F81FC
7FFDFC
7FFDFC
3FFDFC
1FFDFC
0FFDFC
07FDFC
01FDFC
000000
000000
000000
007C00
00FE00
01FF00
01FF00
01FF00
01FF00
00FE00
00FE00
003800
ENDCHAR
STARTCHAR 1EB8
ENCODING 7864
SWIDTH 517 0
DWIDTH 23 0
BBX 20 43 1 -12
BITMAP
0007F0
007FF0
01FFF0
03FFF0
07FFF0
0FFFF0
1FFFF0
3FFC00
3FF000
7FC000
7FC000
7F8000
FFFFF0
FFFFF0
FFFFF0
FFFFF0
FFFFF0
FFFFF0
FFFFF0
7F8000
7F8000
7FC000
3FF000
3FFE00
1FFFF0
0FFFF0
07FFF0
03FFF0
00FFF0
003FF0
0007F0
000000
000000
000000
001F00
003F80
003FC0
007FC0
007FC0
007FC0
003FC0
001F80
000600
ENDCHAR
STARTCHAR 1EB9
ENCODING 7865
SWIDTH 540 0
DWIDTH 24 0
BBX 23 34 1 -12
BITMAP
01FF00
07FF80
0FFFE0
1FFFF0
3FFFF0
7F83F8
7F07FC
7E1FF0
FE3FE0
FE7F80
FE7F00
FE7C00
FE3870
FF00FE
7F01FE
7FC7FC
7FFFFC
3FFFF8
1FFFF0
0FFFE0
07FFC0
01FF00
000000
000000
000000
007C00
00FE00
01FE00
01FF00
01FF00
01FF00
01FE00
00FC00
003000
ENDCHAR
STARTCHAR 1EBA
ENCODING 7866
SWIDTH 517 0
DWIDTH 23 0
BBX 20 43 1 0
BITMAP
000180
0007E0
000FF0
000E70
000C70
000070
0001F0
0001E0
000180
000180
000000
000000
0007F0
007FF0
01FFF0
03FFF0
07FFF0
0FFFF0
1FFFF0
3FFC00
3FF000
7FC000
7FC000
7F8000
FFFFF0
FFFFF0
FFFFF0
FFFFF0
FFFFF0
FFFFF0
FFFFF0
7F8000
7F8000
7FC000
3FF000
3FFE00
1FFFF0
0FFFF0
07FFF0
03FFF0
00FFF0
003FF0
0007F0
ENDCHAR
STARTCHAR 1EBB
ENCODING 7867
SWIDTH 540 0
DWIDTH 24 0
BBX 23 34 1 0
BITMAP
007C00
00FE00
00FF00
01C700
004700
000F00
003E00
003C00
003000
003000
000000
000000
01FF00
07FF80
0FFFE0
1FFFF0
3FFFF0
7F83F8
7F07FC
7E1FF0
FE3FE0
FE7F80
FE7F00
FE7C00
FE3870
FF00FE
7F01FE
7FC7FC
7FFFFC
3FFFF8
1FFFF0
0FFFE0
07FFC0
01FF00
ENDCHAR
STARTCHAR 1EBC
ENCODING 7868
SWIDTH 517 0
DWIDTH 23 0
BBX 21 41 1 0
BITMAP
000038
007C70
00FFF0
00FFE0
01EFC0
01C000
000000
000000
000000
000000
0007F0
007FF0
01FFF0
03FFF0
07FFF0
0FFFF0
1FFFF0
3FFC00
3FF000
7FC000
7FC000
7F8000
FFFFF0
FFFFF0
FFFFF0
FFFFF0
FFFFF0
FFFFF0
FFFFF0
7F8000
7F8000
7FC000
3FF000
3FFE00
1FFFF0
0FFFF0
07FFF0
03FFF0
00FFF0
003FF0
0007F0
ENDCHAR
STARTCHAR 1EBD
ENCODING 7869
SWIDTH 540 0
DWIDTH 24 0
BBX 23 31 1 0
BITMAP
00C1C0
03FF80
07FF80
07FF00
0E0E00
000000
000000
000000
000000
01FF00
07FF80
0FFFE0
1FFFF0
3FFFF0
7F83F8
7F07FC
7E1FF0
FE3FE0
FE7F80
FE7F00
FE7C00
FE3870
FF00FE
7F01FE
7FC7FC
7FFFFC
3FFFF8
1FFFF0
0FFFE0
07FFC0
01FF00
ENDCHAR
STARTCHAR 1EBE
ENCODING 7870
SWIDTH 517 0
DWIDTH 23 0
BBX 20 50 1 0
BITMAP
000FC0
000F80
001F00
003E00
003C00
007800
007800
00F000
000000
001F00
003F80
003F80
007BC0
007BC0
00F1E0
00E0F0
01C070
000000
000000
0007F0
007FF0
01FFF0
03FFF0
07FFF0
0FFFF0
1FFFF0
3FFC00
3FF000
7FC000
7FC000
7F8000
FFFFF0
FFFFF0
FFFFF0
FFFFF0
FFFFF0
FFFFF0
FFFFF0
7F8000
7F8000
7FC000
3FF000
3FFE00
1FFFF0
0FFFF0
07FFF0
03FFF0
00FFF0
003FF0
0007F0
ENDCHAR
STARTCHAR 1EBF
ENCODING 7871
SWIDTH 540 0
DWIDTH 24 0
BBX 23 41 1 0
BITMAP
007E00
007C00
00F800
00F000
01E000
01E000
03C000
038000
000000
00FC00
00FE00
01FE00
01EF00
03C780
038780
0703C0
0F01C0
000000
000000
01FF00
07FF80
0FFFE0
1FFFF0
3FFFF0
7F83F8
7F07FC
7E1FF0
FE3FE0
FE7F80
FE7F00
FE7C00
FE3870
FF00FE
7F01FE
7FC7FC
7FFFFC
3FFFF8
1FFFF0
0FFFE0
07FFC0
01FF00
ENDCHAR
STARTCHAR 1EC0
ENCODING 7872
SWIDTH 517 0
DWIDTH 23 0
BBX 20 50 1 0
BITMAP
003E00
003F00
001F00
000F80
000780
0003C0
0001C0
0001E0
000000
001F00
003F80
003F80
007BC0
007BC0
00F1E0
00E0F0
01C070
000000
000000
0007F0
007FF0
01FFF0
03FFF0
07FFF0
0FFFF0
1FFFF0
3FFC00
3FF000
7FC000
7FC000
7F8000
FFFFF0
FFFFF0
FFFFF0
FFFFF0
FFFFF0
FFFFF0
FFFFF0
7F8000
7F8000
7FC000
3FF000
3FFE00
1FFFF0
0FFFF0
07FFF0
03FFF0
00FFF0
003FF0
0007F0
ENDCHAR
STARTCHAR 1EC1
ENCODING 7873
SWIDTH 540 0
DWIDTH 24 0
BBX 23 41 1 0
BITMAP
00F800
007C00
003C00
003E00
001E00
000F00
000700
000380
000000
00FC00
00FE00
01FE00
01EF00
03C780
038780
0703C0
0F01C0
000000
000000
01FF00
07FF80
0FFFE0
1FFFF0
3FFFF0
7F83F8
7F07FC
7E1FF0
FE3FE0
FE7F80
FE7F00
FE7C00
FE3870
FF00FE
7F01FE
7FC7FC
7FFFFC
3FFFF8
1FFFF0
0FFFE0
07FFC0
01FF00
ENDCHAR
STARTCHAR 1EC2
ENCODING 7874
SWIDTH 517 0
DWIDTH 23 0
BBX 24 50 1 0
BITMAP
000038
0000FE
0000FF
0001C7
000047
000007
00003E
00003C
000030
001F30
003F80
003F80
007BC0
007BC0
00F1E0
00E0F0
01C070
000000
000000
0007F0
007FF0
01FFF0
03FFF0
07FFF0
0FFFF0
1FFFF0
3FFC00
3FF000
7FC000
7FC000
7F8000
FFFFF0
FFFFF0
FFFFF0
FFFFF0
FFFFF0
FFFFF0
FFFFF0
7F8000
7F8000
7FC000
3FF000
3FFE00
1FFFF0
0FFFF0
07FFF0
03FFF0
00FFF0
003FF0
0007F0
ENDCHAR
STARTCHAR 1EC3
ENCODING 7875
SWIDTH 540 0
DWIDTH 24 0
BBX 23 42 1 0
BITMAP
000040
0003F0
0003F8
000738
00071C
00001C
0000F8
0000F8
0000E0
0000C0
00FC00
00FE00
01FE00
01EF00
03C780
038780
0703C0
0F01C0
000000
000000
01FF00
07FF80
0FFFE0
1FFFF0
3FFFF0
7F83F8
7F07FC
7E1FF0
FE3FE0
FE7F80
FE7F00
FE7C00
FE3870
FF00FE
7F01FE
7FC7FC
7FFFFC
3FFFF8
1FFFF0
0FFFE0
07FFC0
01FF00
ENDCHAR
STARTCHAR 1EC4
ENCODING 7876
SWIDTH 517 0
DWIDTH 23 0
BBX 22 48 1 0
BITMAP
00001C
003F38
007FF8
007FF0
00E3E0
00C000
000000
001F00
003F80
003F80
007BC0
007BC0
00F1E0
00E0F0
01C070
000000
000000
0007F0
007FF0
01FFF0
03FFF0
07FFF0
0FFFF0
1FFFF0
3FFC00
3FF000
7FC000
7FC000
7F8000
FFFFF0
FFFFF0
FFFFF0
FFFFF0
FFFFF0
FFFFF0
FFFFF0
7F8000
7F8000
7FC000
3FF000
3FFE00
1FFFF0
0FFFF0
07FFF0
03FFF0
00FFF0
003FF0
0007F0
ENDCHAR
STARTCHAR 1EC5
ENCODING 7877
SWIDTH 540 0
DWIDTH 24 0
BBX 23 40 1 0
BITMAP
000060
00F8E0
01FFE0
01FFC0
03FF80
030000
000000
000000
00FC00
00FE00
01FE00
01EF00
03C780
038780
0703C0
0F01C0
000000
000000
01FF00
07FF80
0FFFE0
1FFFF0
3FFFF0
7F83F8
7F07FC
7E1FF0
FE3FE0
FE7F80
FE7F00
FE7C00
FE3870
FF00FE
7F01FE
7FC7FC
7FFFFC
3FFFF8
1FFFF0
0FFFE0
07FFC0
01FF00
ENDCHAR
STARTCHAR 1EC6
ENCODING 7878
SWIDTH 517 0
DWIDTH 23 0
BBX 20 53 1 -12
BITMAP
001F00
003F80
003F80
007BC0
007BC0
00F1E0
00E0F0
01C070
000000
000000
0007F0
007FF0
01FFF0
03FFF0
07FFF0
0FFFF0
1FFFF0
3FFC00
3FF000
7FC000
7FC000
7F8000
FFFFF0
FFFFF0
FFFFF0
FFFFF0
FFFFF0
FFFFF0
FFFFF0
7F8000
7F8000
7FC000
3FF000
3FFE00
1FFFF0
0FFFF0
07FFF0
03FFF0
00FFF0
003FF0
0007F0
000000
000000
000000
001F00
003F80
003FC0
007FC0
007FC0
007FC0
003FC0
001F80
000600
ENDCHAR
STARTCHAR 1EC7
ENCODING 7879
SWIDTH 540 0
DWIDTH 24 0
BBX 23 44 1 -12
BITMAP
00FC00
00FE00
01FE00
01EF00
03C780
038780
0703C0
0F01C0
000000
000000
01FF00
07FF80
0FFFE0
1FFFF0
3FFFF0
7F83F8
7F07FC
7E1FF0
FE3FE0
FE7F80
FE7F00
FE7C00
FE3870
FF00FE
7F01FE
7FC7FC
7FFFFC
3FFFF8
1FFFF0
0FFFE0
07FFC0
01FF00
000000
000000
000000
007C00
00FE00
01FE00
01FF00
01FF00
01FF00
01FE00
00FC00
003000
ENDCHAR
STARTCHAR 1EC8
ENCODING 7880
SWIDTH 270 0
DWIDTH 12 0
BBX 9 43 2 0
BITMAP
1C00
7E00
7F00
E380
E380
0380
1F00
1F00
1C00
1800
0000
0000
FF00
FF00
FF00
FF00
FF00
FF00
FF00
FF00
FF00
FF00
FF00
FF00
FF00
FF00
FF00
FF00
FF00
FF00
FF00
FF00
FF00
FF00
FF00
FF00
FF00
FF00
FF00
FF00
FF00
FF00
FF00
ENDCHAR
STARTCHAR 1EC9
ENCODING 7881
SWIDTH 247 0
DWIDTH 11 0
BBX 8 34 2 0
BITMAP
3C
FE
FF
C7
07
07
1F
1C
18
18
00
00
FE
FE
FE
FE
FE
FE
FE
FE
FE
FE
FE
FE
FE
FE
FE
FE
FE
FE
FE
FE
FE
FE
ENDCHAR
STARTCHAR 1ECA
ENCODING 7882
SWIDTH 270 0
DWIDTH 12 0
BBX 9 43 2 -12
BITMAP
FF00
FF00
FF00
FF00
FF00
FF00
FF00
FF00
FF00
FF00
FF00
FF00
FF00
FF00
FF00
FF00
FF00
FF00
FF00
FF00
FF00
FF00
FF00
FF00
FF00
FF00
FF00
FF00
FF00
FF00
FF00
0000
0000
0000
3E00
7F00
FF00
FF80
FF80
FF80
FF00
7E00
1800
ENDCHAR
STARTCHAR 1ECB
ENCODING 7883
SWIDTH 247 0
DWIDTH 11 0
BBX 9 44 1 -12
BITMAP
1C00
7F00
7F00
7F80
7F80
7F00
7F00
3E00
0000
0000
7F00
7F00
7F00
7F00
7F00
7F00
7F00
7F00
7F00
7F00
7F00
7F00
7F00
7F00
7F00
7F00
7F00
7F00
7F00
7F00
7F00
7F00
0000
0000
0000
3E00
7F00
FF80
FF80
FF80
FF80
7F00
7F00
1C00
ENDCHAR
STARTCHAR 1ECC
ENCODING 7884
SWIDTH 765 0
DWIDTH 34 0
BBX 32 44 1 -12
BITMAP
00038000
003FFC00
00FFFF00
01FFFFC0
03FFFFE0
07FFFFF0
0FFFFFF8
1FFFFFF8
3FFC1FFC
3FF007FE
7FC003FE
7FC001FE
7F8001FF
FF8000FF
FF0000FF
FF0000FF
FF0000FF
FF0000FF
FF0000FF
FF8000FF
7F8001FF
7FC001FE
7FE003FE
3FF007FE
3FFC3FFC
1FFFFFF8
0FFFFFF8
07FFFFF0
03FFFFE0
01FFFFC0
00FFFF00
003FFC00
0000C000
00000000
00000000
0003E000
0007F000
000FF000
000FF800
000FF800
000FF000
000FF000
0007E000
00018000
ENDCHAR
STARTCHAR 1ECD
ENCODING 7885
SWIDTH 540 0
DWIDTH 24 0
BBX 22 34 1 -12
BITMAP
01FF00
07FFC0
0FFFE0
1FFFF0
3FFFF0
7FFFF8
7FFFF8
7F83FC
FF01FC
FE01FC
FE01FC
FE01FC
FE01FC
FF01FC
7F83FC
7FFFF8
7FFFF8
3FFFF0
1FFFF0
0FFFE0
07FF80
01FF00
000000
000000
000000
007C00
00FE00
01FE00
01FF00
01FF00
01FF00
01FE00
00FC00
003000
ENDCHAR
STARTCHAR 1ECE
ENCODING 7886
SWIDTH 765 0
DWIDTH 34 0
BBX 32 44 1 -1
BITMAP
0001C000
0007E000
0007F000
000E3800
000E3800
00003800
0001F000
0001F000
0001C000
00018000
00000000
00038000
003FFC00
00FFFF00
01FFFFC0
03FFFFE0
07FFFFF0
0FFFFFF8
1FFFFFF8
3FFC1FFC
3FF007FE
7FC003FE
7FC001FE
7F8001FF
FF8000FF
FF0000FF
FF0000FF
FF0000FF
FF0000FF
FF0000FF
FF8000FF
7F8001FF
7FC001FE
7FE003FE
3FF007FE
3FFC3FFC
1FFFFFF8
0FFFFFF8
07FFFFF0
03FFFFE0
01FFFFC0
00FFFF00
003FFC00
0000C000
ENDCHAR
STARTCHAR 1ECF
ENCODING 7887
SWIDTH 540 0
DWIDTH 24 0
BBX 22 34 1 0
BITMAP
007C00
00FE00
00FF00
01C700
004700
000F00
003E00
003C00
003000
003000
000000
000000
01FF00
07FFC0
0FFFE0
1FFFF0
3FFFF0
7FFFF8
7FFFF8
7F83FC
FF01FC
FE01FC
FE01FC
FE01FC
FE01FC
FF01FC
7F83FC
7FFFF8
7FFFF8
3FFFF0
1FFFF0
0FFFE0
07FF80
01FF00
ENDCHAR
STARTCHAR 1ED0
ENCODING 7888
SWIDTH 765 0
DWIDTH 34 0
BBX 32 51 1 -1
BITMAP
0001F000
0003E000
0003C000
0007C000
00078000
000F0000
001E0000
001C0000
00000000
0007E000
0007E000
000FF000
000FF800
001E7800
001C3C00
003C1C00
00381E00
00000000
00038000
003FFC00
00FFFF00
01FFFFC0
03FFFFE0
07FFFFF0
0FFFFFF8
1FFFFFF8
3FFC1FFC
3FF007FE
7FC003FE
7FC001FE
7F8001FF
FF8000FF
FF0000FF
FF0000FF
FF0000FF
FF0000FF
FF0000FF
FF8000FF
7F8001FF
7FC001FE
7FE003FE
3FF007FE
3FFC3FFC
1FFFFFF8
0FFFFFF8
07FFFFF0
03FFFFE0
01FFFFC0
00FFFF00
003FFC00
0000C000
ENDCHAR
STARTCHAR 1ED1
ENCODING 7889
SWIDTH 540 0
DWIDTH 24 0
BBX 22 41 1 0
BITMAP
007E00
007C00
00F800
00F000
01E000
01E000
03C000
038000
000000
00FC00
00FE00
01FE00
01EF00
03C700
038780
0703C0
0F01C0
000000
000000
01FF00
07FFC0
0FFFE0
1FFFF0
3FFFF0
7FFFF8
7FFFF8
7F83FC
FF01FC
FE01FC
FE01FC
FE01FC
FE01FC
FF01FC
7F83FC
7FFFF8
7FFFF8
3FFFF0
1FFFF0
0FFFE0
07FF80
01FF00
ENDCHAR
STARTCHAR 1ED2
ENCODING 7890
SWIDTH 765 0
DWIDTH 34 0
BBX 32 51 1 -1
BITMAP
000FC000
0007C000
0003E000
0001E000
0000F000
0000F000
00007800
00003800
00000000
0007E000
0007E000
000FF000
000FF800
001E7800
001C3C00
003C1C00
00381E00
00000000
00038000
003FFC00
00FFFF00
01FFFFC0
03FFFFE0
07FFFFF0
0FFFFFF8
1FFFFFF8
3FFC1FFC
3FF007FE
7FC003FE
7FC001FE
7F8001FF
FF8000FF
FF0000FF
FF0000FF
FF0000FF
FF0000FF
FF0000FF
FF8000FF
7F8001FF
7FC001FE
7FE003FE
3FF007FE
3FFC3FFC
1FFFFFF8
0FFFFFF8
07FFFFF0
03FFFFE0
01FFFFC0
00FFFF00
003FFC00
0000C000
ENDCHAR
STARTCHAR 1ED3
ENCODING 7891
SWIDTH 540 0
DWIDTH 24 0
BBX 22 41 1 0
BITMAP
00F800
007C00
007C00
003E00
001E00
000F00
000700
000380
000000
00FC00
00FE00
01FE00
01EF00
03C700
038780
0703C0
0F01C0
000000
000000
01FF00
07FFC0
0FFFE0
1FFFF0
3FFFF0
7FFFF8
7FFFF8
7F83FC
FF01FC
FE01FC
FE01FC
FE01FC
FE01FC
FF01FC
7F83FC
7FFFF8
7FFFF8
3FFFF0
1FFFF0
0FFFE0
07FF80
01FF00
ENDCHAR
STARTCHAR 1ED4
ENCODING 7892
SWIDTH 765 0
DWIDTH 34 0
BBX 32 51 1 -1
BITMAP
00000F00
00001F80
00003FC0
000038C0
000010E0
000001C0
000007C0
00000780
00000600
0007E600
0007E000
000FF000
000FF800
001E7800
001C3C00
003C1C00
00381E00
00000000
00038000
003FFC00
00FFFF00
01FFFFC0
03FFFFE0
07FFFFF0
0FFFFFF8
1FFFFFF8
3FFC1FFC
3FF007FE
7FC003FE
7FC001FE
7F8001FF
FF8000FF
FF0000FF
FF0000FF
FF0000FF
FF0000FF
FF0000FF
FF8000FF
7F8001FF
7FC001FE
7FE003FE
3FF007FE
3FFC3FFC
1FFFFFF8
0FFFFFF8
07FFFFF0
03FFFFE0
01FFFFC0
00FFFF00
003FFC00
0000C000
ENDCHAR
STARTCHAR 1ED5
ENCODING 7893
SWIDTH 540 0
DWIDTH 24 0
BBX 22 42 1 0
BITMAP
000040
0003F0
0007F8
000738
00071C
00001C
0000F8
0000F8
0000E0
0000C0
00FC00
00FE00
01FE00
01EF00
03C700
038780
0703C0
0F01C0
000000
000000
01FF00
07FFC0
0FFFE0
1FFFF0
3FFFF0
7FFFF8
7FFFF8
7F83FC
FF01FC
FE01FC
FE01FC
FE01FC
FE01FC
FF01FC
7F83FC
7FFFF8
7FFFF8
3FFFF0
1FFFF0
0FFFE0
07FF80
01FF00
ENDCHAR
STARTCHAR 1ED6
ENCODING 7894
SWIDTH 765 0
DWIDTH 34 0
BBX 32 49 1 -1
BITMAP
00000300
0007EF00
000FFE00
001FFE00
001C7C00
00180000
00000000
0007E000
0007E000
000FF000
000FF800
001E7800
001C3C00
003C1C00
00381E00
00000000
00038000
003FFC00
00FFFF00
01FFFFC0
03FFFFE0
07FFFFF0
0FFFFFF8
1FFFFFF8
3FFC1FFC
3FF007FE
7FC003FE
7FC001FE
7F8001FF
FF8000FF
FF0000FF
FF0000FF
FF0000FF
FF0000FF
FF0000FF
FF8000FF
7F8001FF
7FC001FE
7FE003FE
3FF007FE
3FFC3FFC
1FFFFFF8
0FFFFFF8
07FFFFF0
03FFFFE0
01FFFFC0
00FFFF00
003FFC00
0000C000
ENDCHAR
STARTCHAR 1ED7
ENCODING 7895
SWIDTH 540 0
DWIDTH 24 0
BBX 22 40 1 0
BITMAP
000060
00F8E0
01FFE0
03FFC0
03FF80
030000
000000
000000
00FC00
00FE00
01FE00
01EF00
03C700
038780
0703C0
0F01C0
000000
000000
01FF00
07FFC0
0FFFE0
1FFFF0
3FFFF0
7FFFF8
7FFFF8
7F83FC
FF01FC
FE01FC
FE01FC
FE01FC
FE01FC
FF01FC
7F83FC
7FFFF8
7FFFF8
3FFFF0
1FFFF0
0FFFE0
07FF80
01FF00
ENDCHAR
STARTCHAR 1ED8
ENCODING 7896
SWIDTH 765 0
DWIDTH 34 0
BBX 32 53 1 -12
BITMAP
0007E000
0007E000
000FF000
000FF800
001E7800
001C3C00
003C1C00
00381E00
00000000
00038000
003FFC00
00FFFF00
01FFFFC0
03FFFFE0
07FFFFF0
0FFFFFF8
1FFFFFF8
3FFC1FFC
3FF007FE
7FC003FE
7FC001FE
7F8001FF
FF8000FF
FF0000FF
FF0000FF
FF0000FF
FF0000FF
FF0000FF
FF8000FF
7F8001FF
7FC001FE
7FE003FE
3FF007FE
3FFC3FFC
1FFFFFF8
0FFFFFF8
07FFFFF0
03FFFFE0
01FFFFC0
00FFFF00
003FFC00
0000C000
00000000
00000000
0003E000
0007F000
000FF000
000FF800
000FF800
000FF000
000FF000
0007E000
00018000
ENDCHAR
STARTCHAR 1ED9
ENCODING 7897
SWIDTH 540 0
DWIDTH 24 0
BBX 22 44 1 -12
BITMAP
00FC00
00FE00
01FE00
01EF00
03C700
038780
0703C0
0F01C0
000000
000000
01FF00
07FFC0
0FFFE0
1FFFF0
3FFFF0
7FFFF8
7FFFF8
7F83FC
FF01FC
FE01FC
FE01FC
FE01FC
FE01FC
FF01FC
7F83FC
7FFFF8
7FFFF8
3FFFF0
1FFFF0
0FFFE0
07FF80
01FF00
000000
000000
000000
007C00
00FE00
01FE00
01FF00
01FF00
01FF00
01FE00
00FC00
003000
ENDCHAR
STARTCHAR 1EDA
ENCODING 7898
SWIDTH 765 0
DWIDTH 34 0
BBX 33 43 1 -1
BITMAP
00007C0000
0000F80000
0000F00000
0001F00000
0001E00000
0003C00000
0003800000
0007000000
0000001F80
0000001F80
0003803F00
003FFC3F00
00FFFF3E00
01FFFFFE00
03FFFFFC00
07FFFFFC00
0FFFFFF800
1FFFFFF800
3FFC1FFC00
3FF007FE00
7FC003FE00
7FC001FE00
7F8001FF00
FF8000FF00
FF0000FF00
FF0000FF00
FF0000FF00
FF0000FF00
FF0000FF00
FF8000FF00
7F8001FF00
7FC001FE00
7FE003FE00
3FF007FE00
3FFC3FFC00
1FFFFFF800
0FFFFFF800
07FFFFF000
03FFFFE000
01FFFFC000
00FFFF0000
003FFC0000
0000C00000
ENDCHAR
STARTCHAR 1EDB
ENCODING 7899
SWIDTH 540 0
DWIDTH 24 0
BBX 24 32 1 0
BITMAP
001F80
001F00
003E00
003C00
007800
007800
00F000
00E01F
00003F
00003E
01FF7E
07FFFC
0FFFFC
1FFFF8
3FFFF8
7FFFF8
7FFFF8
7F83FC
FF01FC
FE01FC
FE01FC
FE01FC
FE01FC
FF01FC
7F83FC
7FFFF8
7FFFF8
3FFFF0
1FFFF0
0FFFE0
07FF80
01FF00
ENDCHAR
STARTCHAR 1EDC
ENCODING 7900
SWIDTH 765 0
DWIDTH 34 0
BBX 33 43 1 -1
BITMAP
003F000000
001F000000
000F800000
0007800000
0003C00000
0003C00000
0001E00000
0000E00000
0000001F80
0000001F80
0003803F00
003FFC3F00
00FFFF3E00
01FFFFFE00
03FFFFFC00
07FFFFFC00
0FFFFFF800
1FFFFFF800
3FFC1FFC00
3FF007FE00
7FC003FE00
7FC001FE00
7F8001FF00
FF8000FF00
FF0000FF00
FF0000FF00
FF0000FF00
FF0000FF00
FF0000FF00
FF8000FF00
7F8001FF00
7FC001FE00
7FE003FE00
3FF007FE00
3FFC3FFC00
1FFFFFF800
0FFFFFF800
07FFFFF000
03FFFFE000
01FFFFC000
00FFFF0000
003FFC0000
0000C00000
ENDCHAR
STARTCHAR 1EDD
ENCODING 7901
SWIDTH 540 0
DWIDTH 24 0
BBX 24 32 1 0
BITMAP
07E000
01F000
01F000
00F800
007800
003C00
001C00
000E1F
00003F
00003E
01FF7E
07FFFC
0FFFFC
1FFFF8
3FFFF8
7FFFF8
7FFFF8
7F83FC
FF01FC
FE01FC
FE01FC
FE01FC
FE01FC
FF01FC
7F83FC
7FFFF8
7FFFF8
3FFFF0
1FFFF0
0FFFE0
07FF80
01FF00
ENDCHAR
STARTCHAR 1EDE
ENCODING 7902
SWIDTH 765 0
DWIDTH 34 0
BBX 33 44 1 -1
BITMAP
0001C00000
0007E00000
0007F00000
000E380000
000E380000
0000380000
0001F00000
0001F00000
0001C00000
0001801F80
0000001F80
0003803F00
003FFC3F00
00FFFF3E00
01FFFFFE00
03FFFFFC00
07FFFFFC00
0FFFFFF800
1FFFFFF800
3FFC1FFC00
3FF007FE00
7FC003FE00
7FC001FE00
7F8001FF00
FF8000FF00
FF0000FF00
FF0000FF00
FF0000FF00
FF0000FF00
FF0000FF00
FF8000FF00
7F8001FF00
7FC001FE00
7FE003FE00
3FF007FE00
3FFC3FFC00
1FFFFFF800
0FFFFFF800
07FFFFF000
03FFFFE000
01FFFFC000
00FFFF0000
003FFC0000
0000C00000
ENDCHAR
STARTCHAR 1EDF
ENCODING 7903
SWIDTH 540 0
DWIDTH 24 0
BBX 24 34 1 0
BITMAP
007C00
00FE00
00FF00
01C700
004700
000F00
003E00
003C00
003000
00301F
00003F
00003E
01FF7E
07FFFC
0FFFFC
1FFFF8
3FFFF8
7FFFF8
7FFFF8
7F83FC
FF01FC
FE01FC
FE01FC
FE01FC
FE01FC
FF01FC
7F83FC
7FFFF8
7FFFF8
3FFFF0
1FFFF0
0FFFE0
07FF80
01FF00
ENDCHAR
STARTCHAR 1EE0
ENCODING 7904
SWIDTH 765 0
DWIDTH 34 0
BBX 33 42 1 -1
BITMAP
0000060000
000F8E0000
001FFC0000
003FFC0000
0039F80000
0070000000
0000000000
0000001F80
0000001F80
0003803F00
003FFC3F00
00FFFF3E00
01FFFFFE00
03FFFFFC00
07FFFFFC00
0FFFFFF800
1FFFFFF800
3FFC1FFC00
3FF007FE00
7FC003FE00
7FC001FE00
7F8001FF00
FF8000FF00
FF0000FF00
FF0000FF00
FF0000FF00
FF0000FF00
FF0000FF00
FF8000FF00
7F8001FF00
7FC001FE00
7FE003FE00
3FF007FE00
3FFC3FFC00
1FFFFFF800
0FFFFFF800
07FFFFF000
03FFFFE000
01FFFFC000
00FFFF0000
003FFC0000
0000C00000
ENDCHAR
STARTCHAR 1EE1
ENCODING 7905
SWIDTH 540 0
DWIDTH 24 0
BBX 24 31 1 0
BITMAP
00C1C0
03FFC0
07FF80
07FF00
060E00
000000
00001F
00003F
00003E
01FF7E
07FFFC
0FFFFC
1FFFF8
3FFFF8
7FFFF8
7FFFF8
7F83FC
FF01FC
FE01FC
FE01FC
FE01FC
FE01FC
FF01FC
7F83FC
7FFFF8
7FFFF8
3FFFF0
1FFFF0
0FFFE0
07FF80
01FF00
ENDCHAR
STARTCHAR 1EE2
ENCODING 7906
SWIDTH 765 0
DWIDTH 34 0
BBX 33 46 1 -12
BITMAP
0000001F80
0000001F80
0003803F00
003FFC3F00
00FFFF3E00
01FFFFFE00
03FFFFFC00
07FFFFFC00
0FFFFFF800
1FFFFFF800
3FFC1FFC00
3FF007FE00
7FC003FE00
7FC001FE00
7F8001FF00
FF8000FF00
FF0000FF00
FF0000FF00
FF0000FF00
FF0000FF00
FF0000FF00
FF8000FF00
7F8001FF00
7FC001FE00
7FE003FE00
3FF007FE00
3FFC3FFC00
1FFFFFF800
0FFFFFF800
07FFFFF000
03FFFFE000
01FFFFC000
00FFFF0000
003FFC0000
0000C00000
0000000000
0000000000
0003E00000
0007F00000
000FF00000
000FF80000
000FF80000
000FF00000
000FF00000
0007E00000
0001800000
ENDCHAR
STARTCHAR 1EE3
ENCODING 7907
SWIDTH 540 0
DWIDTH 24 0
BBX 24 37 1 -12
BITMAP
00001F
00003F
00003E
01FF7E
07FFFC
0FFFFC
1FFFF8
3FFFF8
7FFFF8
7FFFF8
7F83FC
FF01FC
FE01FC
FE01FC
FE01FC
FE01FC
FF01FC
7F83FC
7FFFF8
7FFFF8
3FFFF0
1FFFF0
0FFFE0
07FF80
01FF00
000000
000000
000000
007C00
00FE00
01FE00
01FF00
01FF00
01FF00
01FE00
00FC00
003000
ENDCHAR
STARTCHAR 1EE4
ENCODING 7908
SWIDTH 607 0
DWIDTH 27 0
BBX 24 43 2 -12
BITMAP
FF00FF
FF00FF
FF00FF
FF00FF
FF00FF
FF00FF
FF00FF
FF00FF
FF00FF
FF00FF
FF00FF
FF00FF
FF00FF
FF00FF
FF00FF
FF00FF
FF00FF
FF00FF
FF00FF
FF00FF
FF00FF
FF00FE
FF81FE
7FC3FE
7FFFFE
3FFFFC
3FFFFC
1FFFF8
0FFFF0
07FFE0
01FF80
003000
000000
000000
007C00
00FE00
00FF00
01FF00
01FF00
00FF00
00FF00
007E00
001800
ENDCHAR
STARTCHAR 1EE5
ENCODING 7909
SWIDTH 517 0
DWIDTH 23 0
BBX 20 34 2 -12
BITMAP
FE07F0
FE07F0
FE07F0
FE07F0
FE07F0
FE07F0
FE07F0
FE07F0
FE07F0
FE07F0
FE07F0
FE07F0
FE07F0
FE07F0
FE0FF0
FF9FE0
7FFFE0
7FFFE0
3FFFC0
1FFF80
0FFF00
03FC00
000000
000000
000000
00F000
03F800
03FC00
03FC00
07FC00
03FC00
03FC00
01F800
00E000
ENDCHAR
STARTCHAR 1EE6
ENCODING 7910
SWIDTH 607 0
DWIDTH 27 0
BBX 24 44 2 -1
BITMAP
001800
007E00
00FF00
00E700
00C380
000700
001F00
001E00
001C00
001800
000000
000000
FF00FF
FF00FF
FF00FF
FF00FF
FF00FF
FF00FF
FF00FF
FF00FF
FF00FF
FF00FF
FF00FF
FF00FF
FF00FF
FF00FF
FF00FF
FF00FF
FF00FF
FF00FF
FF00FF
FF00FF
FF00FF
FF00FE
FF81FE
7FC3FE
7FFFFE
3FFFFC
3FFFFC
1FFFF8
0FFFF0
07FFE0
01FF80
003000
ENDCHAR
STARTCHAR 1EE7
ENCODING 7911
SWIDTH 517 0
DWIDTH 23 0
BBX 20 34 2 0
BITMAP
00F000
01F800
03FC00
038C00
000E00
001C00
007C00
007800
006000
006000
000000
000000
FE07F0
FE07F0
FE07F0
FE07F0
FE07F0
FE07F0
FE07F0
FE07F0
FE07F0
FE07F0
FE07F0
FE07F0
FE07F0
FE07F0
FE0FF0
FF9FE0
7FFFE0
7FFFE0
3FFFC0
1FFF80
0FFF00
03FC00
ENDCHAR
STARTCHAR 1EE8
ENCODING 7912
SWIDTH 652 0
DWIDTH 29 0
BBX 30 43 2 -1
BITMAP
000FC000
000F8000
001F0000
001E0000
003C0000
003C0000
00780000
00700000
000000FC
000001F8
000001F8
FF00FFF0
FF00FFF0
FF00FFE0
FF00FFE0
FF00FFC0
FF00FFC0
FF00FF80
FF00FF00
FF00FF00
FF00FF00
FF00FF00
FF00FF00
FF00FF00
FF00FF00
FF00FF00
FF00FF00
FF00FF00
FF00FF00
FF00FF00
FF00FF00
FF00FF00
FF00FE00
FF81FE00
7FC3FE00
7FFFFE00
3FFFFC00
3FFFFC00
1FFFF800
0FFFF000
07FFE000
01FF8000
00300000
ENDCHAR
STARTCHAR 1EE9
ENCODING 7913
SWIDTH 562 0
DWIDTH 25 0
BBX 25 32 2 0
BITMAP
003F0000
003E0000
007C0000
00780000
00F00000
01E00000
01C00000
03C01F80
00001F80
00001F00
FE07FF00
FE07FE00
FE07FE00
FE07FC00
FE07FC00
FE07F800
FE07F000
FE07F000
FE07F000
FE07F000
FE07F000
FE07F000
FE07F000
FE07F000
FE0FF000
FF9FE000
7FFFE000
7FFFE000
3FFFC000
1FFF8000
0FFF0000
03FC0000
ENDCHAR
STARTCHAR 1EEA
ENCODING 7914
SWIDTH 652 0
DWIDTH 29 0
BBX 30 43 2 -1
BITMAP
03E00000
01F00000
00F00000
00F80000
007C0000
003C0000
001E0000
000E0000
000000FC
000001F8
000001F8
FF00FFF0
FF00FFF0
FF00FFE0
FF00FFE0
FF00FFC0
FF00FFC0
FF00FF80
FF00FF00
FF00FF00
FF00FF00
FF00FF00
FF00FF00
FF00FF00
FF00FF00
FF00FF00
FF00FF00
FF00FF00
FF00FF00
FF00FF00
FF00FF00
FF00FF00
FF00FE00
FF81FE00
7FC3FE00
7FFFFE00
3FFFFC00
3FFFFC00
1FFFF800
0FFFF000
07FFE000
01FF8000
00300000
ENDCHAR
STARTCHAR 1EEB
ENCODING 7915
SWIDTH 562 0
DWIDTH 25 0
BBX 25 32 2 0
BITMAP
0FC00000
07C00000
03E00000
01E00000
00F00000
00700000
00780000
00381F80
00001F80
00001F00
FE07FF00
FE07FE00
FE07FE00
FE07FC00
FE07FC00
FE07F800
FE07F000
FE07F000
FE07F000
FE07F000
FE07F000
FE07F000
FE07F000
FE07F000
FE0FF000
FF9FE000
7FFFE000
7FFFE000
3FFFC000
1FFF8000
0FFF0000
03FC0000
ENDCHAR
STARTCHAR 1EEC
ENCODING 7916
SWIDTH 652 0
DWIDTH 29 0
BBX 30 44 2 -1
BITMAP
00180000
007E0000
00FF0000
00E70000
00C38000
00070000
001F0000
001E0000
001C0000
001800FC
000001F8
000001F8
FF00FFF0
FF00FFF0
FF00FFE0
FF00FFE0
FF00FFC0
FF00FFC0
FF00FF80
FF00FF00
FF00FF00
FF00FF00
FF00FF00
FF00FF00
FF00FF00
FF00FF00
FF00FF00
FF00FF00
FF00FF00
FF00FF00
FF00FF00
FF00FF00
FF00FF00
FF00FE00
FF81FE00
7FC3FE00
7FFFFE00
3FFFFC00
3FFFFC00
1FFFF800
0FFFF000
07FFE000
01FF8000
00300000
ENDCHAR
STARTCHAR 1EED
ENCODING 7917
SWIDTH 562 0
DWIDTH 25 0
BBX 25 34 2 0
BITMAP
00F00000
01F80000
03FC0000
038C0000
000E0000
001C0000
007C0000
00780000
00600000
00601F80
00001F80
00001F00
FE07FF00
FE07FE00
FE07FE00
FE07FC00
FE07FC00
FE07F800
FE07F000
FE07F000
FE07F000
FE07F000
FE07F000
FE07F000
FE07F000
FE07F000
FE0FF000
FF9FE000
7FFFE000
7FFFE000
3FFFC000
1FFF8000
0FFF0000
03FC0000
ENDCHAR
STARTCHAR 1EEE
ENCODING 7918
SWIDTH 652 0
DWIDTH 29 0
BBX 30 42 2 -1
BITMAP
0000E000
01F1C000
03FFC000
03FF8000
07BF0000
06000000
00000000
000000FC
000001F8
000001F8
FF00FFF0
FF00FFF0
FF00FFE0
FF00FFE0
FF00FFC0
FF00FFC0
FF00FF80
FF00FF00
FF00FF00
FF00FF00
FF00FF00
FF00FF00
FF00FF00
FF00FF00
FF00FF00
FF00FF00
FF00FF00
FF00FF00
FF00FF00
FF00FF00
FF00FF00
FF00FE00
FF81FE00
7FC3FE00
7FFFFE00
3FFFFC00
3FFFFC00
1FFFF800
0FFFF000
07FFE000
01FF8000
00300000
ENDCHAR
STARTCHAR 1EEF
ENCODING 7919
SWIDTH 562 0
DWIDTH 25 0
BBX 25 31 2 0
BITMAP
01838000
07FF0000
0FFF0000
0FFE0000
1C1C0000
00000000
00001F80
00001F80
00001F00
FE07FF00
FE07FE00
FE07FE00
FE07FC00
FE07FC00
FE07F800
FE07F000
FE07F000
FE07F000
FE07F000
FE07F000
FE07F000
FE07F000
FE07F000
FE0FF000
FF9FE000
7FFFE000
7FFFE000
3FFFC000
1FFF8000
0FFF0000
03FC0000
ENDCHAR
STARTCHAR 1EF0
ENCODING 7920
SWIDTH 652 0
DWIDTH 29 0
BBX 30 46 2 -12
BITMAP
000000FC
000001F8
000001F8
FF00FFF0
FF00FFF0
FF00FFE0
FF00FFE0
FF00FFC0
FF00FFC0
FF00FF80
FF00FF00
FF00FF00
FF00FF00
FF00FF00
FF00FF00
FF00FF00
FF00FF00
FF00FF00
FF00FF00
FF00FF00
FF00FF00
FF00FF00
FF00FF00
FF00FF00
FF00FE00
FF81FE00
7FC3FE00
7FFFFE00
3FFFFC00
3FFFFC00
1FFFF800
0FFFF000
07FFE000
01FF8000
00300000
00000000
00000000
007C0000
00FE0000
00FF0000
01FF0000
01FF0000
00FF0000
00FF0000
007E0000
00180000
ENDCHAR
STARTCHAR 1EF1
ENCODING 7921
SWIDTH 562 0
DWIDTH 25 0
BBX 25 37 2 -12
BITMAP
00001F80
00001F80
00001F00
FE07FF00
FE07FE00
FE07FE00
FE07FC00
FE07FC00
FE07F800
FE07F000
FE07F000
FE07F000
FE07F000
FE07F000
FE07F000
FE07F000
FE07F000
FE0FF000
FF9FE000
7FFFE000
7FFFE000
3FFFC000
1FFF8000
0FFF0000
03FC0000
00000000
00000000
00000000
00F00000
03F80000
03FC0000
03FC0000
07FC0000
03FC0000
03FC0000
01F80000
00E00000
ENDCHAR
STARTCHAR 1EF2
ENCODING 7922
SWIDTH 562 0
DWIDTH 25 0
BBX 21 42 2 0
BITMAP
0FC000
07C000
03E000
01E000
00F000
007800
007800
003C00
000000
000000
000000
FF03F8
FF03F8
FF03F8
FF03F8
FF03F8
FF03F8
FF03F8
FF03F8
FF03F8
FF03F8
FF03F8
FF03F8
FF07F8
FFDFF8
7FFFF0
7FFFF0
3FFFE0
1FFFE0
0FFFC0
07FF00
01FC00
01FC00
01FC00
01FC00
01FC00
01FC00
01FC00
01FC00
01FC00
01FC00
01FC00
ENDCHAR
STARTCHAR 1EF3
ENCODING 7923
SWIDTH 517 0
DWIDTH 23 0
BBX 20 41 2 -9
BITMAP
0FC000
07C000
03E000
01E000
00F000
007000
007800
003800
000000
000000
FE07F0
FE07F0
FE07F0
FE07F0
FE07F0
FE07F0
FE07F0
FE07F0
FE07F0
FE07F0
FE07F0
FE07F0
FE07F0
FE07F0
FE07F0
FF0FE0
7FFFE0
7FFFE0
3FFFC0
3FFF80
0FFF00
07FC00
03F800
03F800
03F800
03F800
03F800
03F800
03F800
03F800
03F800
ENDCHAR
STARTCHAR 1EF4
ENCODING 7924
SWIDTH 562 0
DWIDTH 25 0
BBX 21 43 2 -12
BITMAP
FF03F8
FF03F8
FF03F8
FF03F8
FF03F8
FF03F8
FF03F8
FF03F8
FF03F8
FF03F8
FF03F8
FF03F8
FF07F8
FFDFF8
7FFFF0
7FFFF0
3FFFE0
1FFFE0
0FFFC0
07FF00
01FC00
01FC00
01FC00
01FC00
01FC00
01FC00
01FC00
01FC00
01FC00
01FC00
01FC00
000000
000000
000000
00F800
01FC00
01FE00
03FE00
03FE00
03FE00
01FE00
00FC00
003000
ENDCHAR
STARTCHAR 1EF5
ENCODING 7925
SWIDTH 517 0
DWIDTH 23 0
BBX 21 34 2 -12
BITMAP
FE07F0
FE07F0
FE07F0
FE07F0
FE07F0
FE07F0
FE07F0
FE07F0
FE07F0
FE07F0
FE07F0
FE07F0
FE07F0
FE07F0
FE07F0
FF0FE0
7FFFE0
7FFFE0
3FFFC0
3FFF80
0FFF00
07FC00
03F800
03F800
03F800
03FBE0
03FFF0
03FFF8
03FFF8
03FFF8
03FFF8
0007F8
0003F0
0000C0
ENDCHAR
STARTCHAR 1EF6
ENCODING 7926
SWIDTH 562 0
DWIDTH 25 0
BBX 21 43 2 0
BITMAP
003000
00FC00
01FE00
038E00
018E00
000E00
007E00
007C00
007000
007000
000000
000000
FF03F8
FF03F8
FF03F8
FF03F8
FF03F8
FF03F8
FF03F8
FF03F8
FF03F8
FF03F8
FF03F8
FF03F8
FF07F8
FFDFF8
7FFFF0
7FFFF0
3FFFE0
1FFFE0
0FFFC0
07FF00
01FC00
01FC00
01FC00
01FC00
01FC00
01FC00
01FC00
01FC00
01FC00
01FC00
01FC00
ENDCHAR
STARTCHAR 1EF7
ENCODING 7927
SWIDTH 517 0
DWIDTH 23 0
BBX 20 43 2 -9
BITMAP
00F000
01F800
03FC00
038C00
000E00
001C00
007C00
007800
006000
006000
000000
000000
FE07F0
FE07F0
FE07F0
FE07F0
FE07F0
FE07F0
FE07F0
FE07F0
FE07F0
FE07F0
FE07F0
FE07F0
FE07F0
FE07F0
FE07F0
FF0FE0
7FFFE0
7FFFE0
3FFFC0
3FFF80
0FFF00
07FC00
03F800
03F800
03F800
03F800
03F800
03F800
03F800
03F800
03F800
ENDCHAR
STARTCHAR 1EF8
ENCODING 7928
SWIDTH 562 0
DWIDTH 25 0
BBX 21 41 2 0
BITMAP
000180
03E380
07FF80
07FF00
0F7E00
0C0000
000000
000000
000000
000000
FF03F8
FF03F8
FF03F8
FF03F8
FF03F8
FF03F8
FF03F8
FF03F8
FF03F8
FF03F8
FF03F8
FF03F8
FF07F8
FFDFF8
7FFFF0
7FFFF0
3FFFE0
1FFFE0
0FFFC0
07FF00
01FC00
01FC00
01FC00
01FC00
01FC00
01FC00
01FC00
01FC00
01FC00
01FC00
01FC00
ENDCHAR
STARTCHAR 1EF9
ENCODING 7929
SWIDTH 517 0
DWIDTH 23 0
BBX 20 40 2 -9
BITMAP
018380
07FF00
0FFF00
0FFE00
1C1C00
000000
000000
000000
000000
FE07F0
FE07F0
FE07F0
FE07F0
FE07F0
FE07F0
FE07F0
FE07F0
FE07F0
FE07F0
FE07F0
FE07F0
FE07F0
FE07F0
FE07F0
FF0FE0
7FFFE0
7FFFE0
3FFFC0
3FFF80
0FFF00
07FC00
03F800
03F800
03F800
03F800
03F800
03F800
03F800
03F800
03F800
ENDCHAR
STARTCHAR 2010
ENCODING 8208
SWIDTH 315 0
DWIDTH 14 0
BBX 11 6 2 8
BITMAP
FFE0
FFE0
FFE0
FFE0
FFE0
FFE0
ENDCHAR
STARTCHAR 2013
ENCODING 8211
SWIDTH 495 0
DWIDTH 22 0
BBX 22 4 0 9
BITMAP
FFFFFC
FFFFFC
FFFFFC
FFFFFC
ENDCHAR
STARTCHAR 2014
ENCODING 8212
SWIDTH 990 0
DWIDTH 44 0
BBX 44 4 0 9
BITMAP
FFFFFFFFFFF0
FFFFFFFFFFF0
FFFFFFFFFFF0
FFFFFFFFFFF0
ENDCHAR
STARTCHAR 2018
ENCODING 8216
SWIDTH 270 0
DWIDTH 12 0
BBX 7 10 3 21
BITMAP
3E
3E
3E
7E
7C
7C
7C
FC
FC
FC
ENDCHAR
STARTCHAR 2019
ENCODING 8217
SWIDTH 270 0
DWIDTH 12 0
BBX 7 10 3 21
BITMAP
7E
7E
7E
7C
7C
7C
7C
F8
F8
F8
ENDCHAR
STARTCHAR 201A
ENCODING 8218
SWIDTH 270 0
DWIDTH 12 0
BBX 7 10 3 -5
BITMAP
7E
7E
7C
7C
FC
FC
F8
F8
F8
F8
ENDCHAR
STARTCHAR 201C
ENCODING 8220
SWIDTH 472 0
DWIDTH 21 0
BBX 16 10 3 21
BITMAP
3E1F
3E1F
3E1F
7E3F
7C3E
7C3E
7C3E
FC7E
FC7E
FC7E
ENDCHAR
STARTCHAR 201D
ENCODING 8221
SWIDTH 472 0
DWIDTH 21 0
BBX 16 10 3 21
BITMAP
7E3F
7E3F
7E3F
7C3F
7C3E
7C3E
7C3E
F87E
F87C
F87C
ENDCHAR
STARTCHAR 201E
ENCODING 8222
SWIDTH 472 0
DWIDTH 21 0
BBX 16 10 3 -5
BITMAP
7E3F
7E3F
7C3E
7C3E
FC7E
FC7E
F87C
F87C
F87C
F87C
ENDCHAR
STARTCHAR 2020
ENCODING 8224
SWIDTH 495 0
DWIDTH 22 0
BBX 20 33 1 -2
BITMAP
01F800
01F800
01F800
01F800
01F800
01F800
01F800
FFFFF0
FFFFF0
FFFFF0
FFFFF0
FFFFF0
01F800
01F800
01F800
01F800
01F800
01F800
01F800
01F800
01F800
01F800
01F800
01F800
01F800
01F800
01F800
01F800
01F800
01F800
01F800
01F800
01F800
ENDCHAR
STARTCHAR 2021
ENCODING 8225
SWIDTH 495 0
DWIDTH 22 0
BBX 20 33 1 -2
BITMAP
01F800
01F800
01F800
01F800
01F800
01F800
01F800
FFFFF0
FFFFF0
FFFFF0
FFFFF0
FFFFF0
01F800
01F800
01F800
01F800
01F800
01F800
01F800
FFFFF0
FFFFF0
FFFFF0
FFFFF0
FFFFF0
01F800
01F800
01F800
01F800
01F800
01F800
01F800
01F800
01F800
ENDCHAR
STARTCHAR 2022
ENCODING 8226
SWIDTH 585 0
DWIDTH 26 0
BBX 13 13 7 10
BITMAP
0F80
3FC0
7FE0
FFF0
FFF0
FFF0
FFF8
FFF0
FFF0
FFF0
7FE0
3FC0
0F00
ENDCHAR
STARTCHAR 2026
ENCODING 8230
SWIDTH 990 0
DWIDTH 44 0
BBX 39 9 3 -1
BITMAP
3E007C01F8
7F00FE03FC
FF81FE03FC
FF81FF03FC
FF81FF03FE
FF81FE03FC
7F01FE03FC
7E00FC01F8
1800100000
ENDCHAR
STARTCHAR 2030
ENCODING 8240
SWIDTH 1260 0
DWIDTH 56 0
BBX 53 31 2 0
BITMAP
0FE000F8000000
1FF000F0000000
3FF801F0000000
7FFC01E0000000
FFFE03E0000000
FC3E07C0000000
F83E0780000000
F01F0F80000000
F01F1F00000000
F83E1E00000000
FC7E3E00000000
FFFE3C00000000
7FFC7C00000000
3FF8F800000000
1FF0F000000000
07C1F0FC003F00
0003E1FF00FFC0
0003C7FF81FFE0
0007C7FFC3FFF0
00078FFFE3FFF0
000F8F87E7E1F8
001F1F83E7C0F8
001E1F03E7C0F8
003E1F03E7C0F8
007C1F83E7C0F8
00780F87E7E1F8
00F80FFFE3FFF0
00F007FFC3FFF0
01F007FF81FFE0
03E001FF00FFC0
03C000FC003F00
ENDCHAR
STARTCHAR 2039
ENCODING 8249
SWIDTH 337 0
DWIDTH 15 0
BBX 10 14 3 4
BITMAP
07C0
0F80
1F00
3E00
3E00
7C00
F800
F800
7C00
3E00
3E00
1F00
0F80
07C0
ENDCHAR
STARTCHAR 203A
ENCODING 8250
SWIDTH 337 0
DWIDTH 15 0
BBX 10 14 2 4
BITMAP
FC00
7C00
3E00
1F00
0F80
0FC0
07C0
07C0
0F80
0F80
1F00
3E00
7C00
7C00
ENDCHAR
STARTCHAR 2044
ENCODING 8260
SWIDTH 157 0
DWIDTH 7 0
BBX 21 31 -7 0
BITMAP
000078
000078
0000F0
0001F0
0001E0
0003E0
0003C0
000780
000780
000F00
001F00
001E00
003E00
003C00
007800
00F800
00F000
01F000
01E000
03E000
03C000
078000
0F8000
0F0000
1F0000
1E0000
3E0000
3C0000
780000
F80000
F00000
ENDCHAR
STARTCHAR 20A3
ENCODING 8355
SWIDTH 810 0
DWIDTH 36 0
BBX 34 31 2 0
BITMAP
03FF000000
0FFF000000
1FFF000000
3FFF000000
7FFF000000
7FFF000000
7FFF000000
FF80000000
FF00000000
FF000FE3C0
FF000FEFC0
FF000FFFC0
FFFF0FFFC0
FFFF0FFFC0
FFFF0FFFC0
FFFF0FFFC0
FFFF0FFC00
FFFF0FF800
FFFF0FF000
FFFF0FF000
FF000FE000
FF000FE000
FF000FE000
FF000FE000
FF000FE000
FF000FE000
FF000FE000
FF000FE000
FF000FE000
FF000FE000
FF000FE000
ENDCHAR
STARTCHAR 20AB
ENCODING 8363
SWIDTH 405 0
DWIDTH 18 0
BBX 18 30 1 2
BITMAP
001F00
001F00
01FFC0
01FFC0
01FFC0
001F00
001F00
07DF00
1FDF00
3FDF00
7FDF00
7FDF00
FC1F00
F81F00
F81F00
F81F00
F81F00
FC3F00
FFFF00
7FFE00
7FFC00
3FFC00
0FF000
038000
000000
000000
3FFE00
3FFE00
3FFE00
3FFE00
ENDCHAR
STARTCHAR 2122
ENCODING 8482
SWIDTH 832 0
DWIDTH 37 0
BBX 28 12 4 20
BITMAP
FFE7C1F0
FFE7E1F0
FFE7E3F0
0E07E3F0
0E07F7F0
0E07F7F0
0E07B6F0
0E07BEF0
0E07BEF0
0E079CF0
0E079CF0
0E078CF0
ENDCHAR
STARTCHAR 2126
ENCODING 8486
SWIDTH 787 0
DWIDTH 35 0
BBX 34 33 1 0
BITMAP
0007F00000
003FFF0000
00FFFFC000
03FFFFE000
07FFFFF000
0FFFFFF800
0FFFFFFC00
1FFE1FFE00
1FF807FE00
3FF003FE00
3FE001FF00
3FC001FF00
7FC000FF00
7FC000FF00
7FC000FF00
7FC000FF00
7FC000FF00
3FC000FF00
3FC000FF00
3FC000FF00
3FC001FE00
1FE001FE00
1FE003FC00
0FF003F800
07F807F800
03FC0FF000
FFFC0FFFC0
FFFC0FFFC0
FFFC0FFFC0
FFFC0FFFC0
FFFC0FFFC0
FFFC0FFFC0
FFFC0FFFC0
ENDCHAR
STARTCHAR 2202
ENCODING 8706
SWIDTH 540 0
DWIDTH 24 0
BBX 22 30 1 0
BITMAP
00FF80
03FFC0
07F9E0
07F0F0
07E0F0
0380F8
000078
0000F8
0000FC
0000FC
00E0FC
07F8FC
0FCCFC
1F86FC
3F03FC
7F03FC
7E03FC
7E03F8
FE03F8
FC03F8
FC03F8
FC03F0
FC03F0
7C07E0
7C07E0
3E07C0
3E0F80
1F1F00
07FC00
006000
ENDCHAR
STARTCHAR 2206
ENCODING 8710
SWIDTH 697 0
DWIDTH 31 0
BBX 32 32 0 0
BITMAP
001FF000
001FF800
001FF800
003FF800
003FFC00
003FFC00
007FFE00
007FFE00
007FFE00
00FFFF00
00FEFF00
01FE7F00
01FE7F80
01FC7F80
03FC3FC0
03FC3FC0
03F83FC0
07F81FE0
07F81FE0
07F01FE0
0FF00FF0
0FF00FF0
1FE007F0
1FE007F8
1FE007F8
3FC003FC
3FFFFFFC
3FFFFFFC
7FFFFFFE
7FFFFFFE
FFFFFFFE
FFFFFFFF
ENDCHAR
STARTCHAR 220F
ENCODING 8719
SWIDTH 787 0
DWIDTH 35 0
BBX 29 41 3 -9
BITMAP
FFFFFFF8
FFFFFFF8
FFFFFFF8
FFFFFFF8
FFFFFFF8
FFFFFFF8
FFFFFFF8
FF8007F8
FF8007F8
FF8007F8
FF8007F8
FF8007F8
FF8007F8
FF8007F8
FF8007F8
FF8007F8
FF8007F8
FF8007F8
FF8007F8
FF8007F8
FF8007F8
FF8007F8
FF8007F8
FF8007F8
FF8007F8
FF8007F8
FF8007F8
FF8007F8
FF8007F8
FF8007F8
FF8007F8
FF8007F8
FF8007F8
FF8007F8
FF8007F8
FF8007F8
FF8007F8
FF8007F8
FF8007F8
FF8007F8
FF8007F8
ENDCHAR
STARTCHAR 2211
ENCODING 8721
SWIDTH 720 0
DWIDTH 32 0
BBX 31 41 1 -9
BITMAP
7FFFFFFC
7FFFFFFC
7FFFFFFC
7FFFFFFC
7FFFFFFC
7FFFFFFC
7FFFFFFC
3FF00000
1FF80000
0FFC0000
07FE0000
03FF0000
01FF8000
00FFC000
007FE000
003FF000
001FF800
000FFC00
0007FE00
0003FF00
0001FF00
0003FE00
0007FC00
000FF800
001FF000
003FE000
007FC000
00FF8000
01FF0000
03FF0000
03FE0000
07FC0000
0FF80000
1FF00000
3FFFFFFE
7FFFFFFE
FFFFFFFE
FFFFFFFE
FFFFFFFE
FFFFFFFE
FFFFFFFE
ENDCHAR
STARTCHAR 2212
ENCODING 8722
SWIDTH 832 0
DWIDTH 37 0
BBX 26 5 6 11
BITMAP
FFFFFFC0
FFFFFFC0
FFFFFFC0
FFFFFFC0
FFFFFFC0
ENDCHAR
STARTCHAR 2219
ENCODING 8729
SWIDTH 270 0
DWIDTH 12 0
BBX 9 8 2 11
BITMAP
3E00
7F00
FF00
FF80
FF80
FF00
7F00
7E00
ENDCHAR
STARTCHAR 221A
ENCODING 8730
SWIDTH 652 0
DWIDTH 29 0
BBX 28 38 2 -1
BITMAP
000001F0
000003F0
000003F0
00000380
00000780
00000780
00000700
00000F00
00000F00
00001E00
00001E00
00001E00
00003C00
00003C00
00003800
01007800
0F007800
7F007000
FF80F000
FF80F000
8F81E000
0FC1E000
07C1E000
07C3C000
07E3C000
03E38000
03E78000
03F78000
01FF0000
01FF0000
00FF0000
00FE0000
00FE0000
007C0000
007C0000
007C0000
00380000
00380000
ENDCHAR
STARTCHAR 221E
ENCODING 8734
SWIDTH 832 0
DWIDTH 37 0
BBX 29 18 4 4
BITMAP
0FC03F80
1FE07FC0
3FF0FFE0
7FF8FFF0
7FFDFFF0
783FF0F0
F01FE078
E00FC038
E00FC038
E01F8038
E03F8038
707FC078
7DFFF0F0
7FFDFFF0
3FF8FFF0
3FF07FE0
1FE03FC0
07C00F00
ENDCHAR
STARTCHAR 222B
ENCODING 8747
SWIDTH 607 0
DWIDTH 27 0
BBX 25 42 1 -8
BITMAP
00003C00
0001FF00
0003FF80
00079F80
00079F80
000F9F80
000F8F00
001F0000
001F0000
001F0000
001F0000
003F0000
003F0000
003F0000
003F0000
003F0000
003F0000
003F0000
003F0000
003F0000
003F0000
003F0000
007E0000
007E0000
007E0000
007E0000
007E0000
007E0000
007E0000
007E0000
007E0000
007E0000
007C0000
007C0000
007C0000
78780000
FCF80000
FCF00000
FCF00000
FFE00000
7FC00000
3F000000
ENDCHAR
STARTCHAR 2248
ENCODING 8776
SWIDTH 832 0
DWIDTH 37 0
BBX 29 18 4 4
BITMAP
07F00008
1FFF0038
7FFFE1F8
FFFFFFF8
FFFFFFF8
FC1FFFF8
E001FFE0
80003F00
00000000
01C00008
0FFC0018
7FFF8078
FFFFFFF8
FFFFFFF8
FFFFFFF8
F007FFE0
C000FF80
80000000
ENDCHAR
STARTCHAR 2260
ENCODING 8800
SWIDTH 832 0
DWIDTH 37 0
BBX 26 27 6 -1
BITMAP
00001800
00001C00
00003E00
00007E00
0000FC00
0001F800
FFFFFFC0
FFFFFFC0
FFFFFFC0
FFFFFFC0
FFFFFFC0
001F8000
003F0000
007F0000
007E0000
00FC0000
FFFFFFC0
FFFFFFC0
FFFFFFC0
FFFFFFC0
FFFFFFC0
0FC00000
1F800000
3F000000
7E000000
3E000000
1C000000
ENDCHAR
STARTCHAR 2264
ENCODING 8804
SWIDTH 832 0
DWIDTH 37 0
BBX 26 27 6 0
BITMAP
00000180
00000F80
00007F80
0003FF80
003FFF80
01FFFF00
0FFFF000
7FFF8000
FFFC0000
FFE00000
FFC00000
FFF80000
FFFF0000
1FFFF000
01FFFE00
003FFF80
0007FF80
0000FF80
00001F80
00000380
00000000
00000000
FFFFFFC0
FFFFFFC0
FFFFFFC0
FFFFFFC0
FFFFFFC0
ENDCHAR
STARTCHAR 2265
ENCODING 8805
SWIDTH 832 0
DWIDTH 37 0
BBX 26 27 6 0
BITMAP
C0000000
F8000000
FF000000
FFF00000
FFFE0000
7FFFC000
07FFF800
00FFFF00
001FFF80
0003FF80
0001FF80
000FFF80
007FFF80
07FFFC00
3FFFE000
FFFE0000
FFF00000
FF800000
FC000000
E0000000
00000000
00000000
FFFFFFC0
FFFFFFC0
FFFFFFC0
FFFFFFC0
FFFFFFC0
ENDCHAR
STARTCHAR 22F2
ENCODING 8946
SWIDTH 832 0
DWIDTH 37 0
BBX 29 18 4 4
BITMAP
07F00008
1FFF0038
7FFFE1F8
FFFFFFF8
FFFFFFF8
FC1FFFF8
E001FFE0
80003F00
00000000
01C00008
0FFC0018
7FFF8078
FFFFFFF8
FFFFFFF8
FFFFFFF8
F007FFE0
C000FF80
80000000
ENDCHAR
STARTCHAR 255F
ENCODING 9567
SWIDTH 607 0
DWIDTH 27 0
BBX 24 32 2 0
BITMAP
001C00
01FF80
07FFE0
0FFFF0
1FFFF8
3FFFFC
3FFFFC
7FFFFE
7FC3FE
FF81FE
FF00FE
FF00FF
FF00FF
FF7FFF
FF7FFF
FF7FFF
FF7FFF
FF7FFF
FF7FFF
FF7FFF
FF7FFF
FF00FF
FF00FF
FF00FF
FF00FF
FF00FF
FF00FF
FF00FF
FF00FF
FF00FF
FF00FF
FF00FF
ENDCHAR
STARTCHAR 2560
ENCODING 9568
SWIDTH 517 0
DWIDTH 23 0
BBX 20 31 1 0
BITMAP
0007F0
007FF0
01FFF0
03FFF0
07FFF0
0FFFF0
1FFFF0
3FFC00
3FF000
7FC000
7FC000
7F8000
FFFFF0
FFFFF0
FFFFF0
FFFFF0
FFFFF0
FFFFF0
FFFFF0
7F8000
7F8000
7FC000
3FF000
3FFE00
1FFFF0
0FFFF0
07FFF0
03FFF0
00FFF0
003FF0
0007F0
ENDCHAR
STARTCHAR 2561
ENCODING 9569
SWIDTH 270 0
DWIDTH 12 0
BBX 8 31 2 0
BITMAP
FF
FF
FF
FF
FF
FF
FF
FF
FF
FF
FF
FF
FF
FF
FF
FF
FF
FF
FF
FF
FF
FF
FF
FF
FF
FF
FF
FF
FF
FF
FF
ENDCHAR
STARTCHAR 2562
ENCODING 9570
SWIDTH 765 0
DWIDTH 34 0
BBX 32 33 1 -1
BITMAP
00038000
003FFC00
00FFFF00
01FFFFC0
03FFFFE0
07FFFFF0
0FFFFFF8
1FFFFFF8
3FFC1FFC
3FF007FE
7FC003FE
7FC001FE
7F8001FF
FF8000FF
FF0000FF
FF0000FF
FF0000FF
FF0000FF
FF0000FF
FF8000FF
7F8001FF
7FC001FE
7FE003FE
3FF007FE
3FFC3FFC
1FFFFFF8
0FFFFFF8
07FFFFF0
03FFFFE0
01FFFFC0
00FFFF00
003FFC00
0000C000
ENDCHAR
STARTCHAR 2563
ENCODING 9571
SWIDTH 607 0
DWIDTH 27 0
BBX 24 32 2 -1
BITMAP
FF00FF
FF00FF
FF00FF
FF00FF
FF00FF
FF00FF
FF00FF
FF00FF
FF00FF
FF00FF
FF00FF
FF00FF
FF00FF
FF00FF
FF00FF
FF00FF
FF00FF
FF00FF
FF00FF
FF00FF
FF00FF
FF00FE
FF81FE
7FC3FE
7FFFFE
3FFFFC
3FFFFC
1FFFF8
0FFFF0
07FFE0
01FF80
003000
ENDCHAR
STARTCHAR 2564
ENCODING 9572
SWIDTH 562 0
DWIDTH 25 0
BBX 21 31 2 0
BITMAP
FF03F8
FF03F8
FF03F8
FF03F8
FF03F8
FF03F8
FF03F8
FF03F8
FF03F8
FF03F8
FF03F8
FF03F8
FF07F8
FFDFF8
7FFFF0
7FFFF0
3FFFE0
1FFFE0
0FFFC0
07FF00
01FC00
01FC00
01FC00
01FC00
01FC00
01FC00
01FC00
01FC00
01FC00
01FC00
01FC00
ENDCHAR
STARTCHAR 2565
ENCODING 9573
SWIDTH 540 0
DWIDTH 24 0
BBX 22 22 1 0
BITMAP
03FF00
07FFC0
1FFFE0
1FFFF0
3FFFF0
7FFFF8
7FFFF8
FF03FC
FF01FC
FE01FC
FE01FC
FE01FC
FE01FC
FF01FC
7F81FC
7FFDFC
7FFDFC
3FFDFC
1FFDFC
0FFDFC
07FDFC
01FDFC
ENDCHAR
STARTCHAR 2566
ENCODING 9574
SWIDTH 540 0
DWIDTH 24 0
BBX 23 22 1 0
BITMAP
01FF00
07FF80
0FFFE0
1FFFF0
3FFFF0
7F83F8
7F07FC
7E1FF0
FE3FE0
FE7F80
FE7F00
FE7C00
FE3870
FF00FE
7F01FE
7FC7FC
7FFFFC
3FFFF8
1FFFF0
0FFFE0
07FFC0
01FF00
ENDCHAR
STARTCHAR 2567
ENCODING 9575
SWIDTH 247 0
DWIDTH 11 0
BBX 8 32 2 0
BITMAP
38
FE
FE
FF
FF
FE
FE
7C
00
00
FE
FE
FE
FE
FE
FE
FE
FE
FE
FE
FE
FE
FE
FE
FE
FE
FE
FE
FE
FE
FE
FE
ENDCHAR
STARTCHAR 2568
ENCODING 9576
SWIDTH 247 0
DWIDTH 11 0
BBX 7 22 2 0
BITMAP
FE
FE
FE
FE
FE
FE
FE
FE
FE
FE
FE
FE
FE
FE
FE
FE
FE
FE
FE
FE
FE
FE
ENDCHAR
STARTCHAR 2569
ENCODING 9577
SWIDTH 540 0
DWIDTH 24 0
BBX 22 22 1 0
BITMAP
01FF00
07FFC0
0FFFE0
1FFFF0
3FFFF0
7FFFF8
7FFFF8
7F83FC
FF01FC
FE01FC
FE01FC
FE01FC
FE01FC
FF01FC
7F83FC
7FFFF8
7FFFF8
3FFFF0
1FFFF0
0FFFE0
07FF80
01FF00
ENDCHAR
STARTCHAR 256A
ENCODING 9578
SWIDTH 517 0
DWIDTH 23 0
BBX 20 22 2 0
BITMAP
FE07F0
FE07F0
FE07F0
FE07F0
FE07F0
FE07F0
FE07F0
FE07F0
FE07F0
FE07F0
FE07F0
FE07F0
FE07F0
FE07F0
FE0FF0
FF9FE0
7FFFE0
7FFFE0
3FFFC0
1FFF80
0FFF00
03FC00
ENDCHAR
STARTCHAR 256B
ENCODING 9579
SWIDTH 517 0
DWIDTH 23 0
BBX 20 31 2 -9
BITMAP
FE07F0
FE07F0
FE07F0
FE07F0
FE07F0
FE07F0
FE07F0
FE07F0
FE07F0
FE07F0
FE07F0
FE07F0
FE07F0
FE07F0
FE07F0
FF0FE0
7FFFE0
7FFFE0
3FFFC0
3FFF80
0FFF00
07FC00
03F800
03F800
03F800
03F800
03F800
03F800
03F800
03F800
03F800
ENDCHAR
STARTCHAR 25CA
ENCODING 9674
SWIDTH 472 0
DWIDTH 21 0
BBX 22 45 0 -9
BITMAP
003000
003000
007800
007800
00FC00
00DC00
01CC00
01CE00
018600
038700
030300
070380
060180
0E01C0
0C00C0
1C00E0
180060
380070
300030
700038
600018
E0001C
E0001C
600018
700038
300030
380070
180060
1C00E0
0C00C0
0E01C0
060180
060380
070380
030300
038700
018600
01CE00
00CC00
00FC00
007800
007800
003000
003000
002000
ENDCHAR
STARTCHAR 25CB
ENCODING 9675
SWIDTH 607 0
DWIDTH 27 0
BBX 13 17 7 33
BITMAP
07E0
07C0
0F80
0F00
1F00
1E00
3C00
3800
0000
0FC0
0FC0
1FE0
1FE0
3CF0
7870
7078
F038
ENDCHAR
STARTCHAR 25CF
ENCODING 9679
SWIDTH 607 0
DWIDTH 27 0
BBX 13 17 7 33
BITMAP
1F00
0F80
07C0
07C0
03E0
01E0
00F0
0070
0000
0FC0
0FC0
1FE0
1FE0
3CF0
7870
7078
F038
ENDCHAR
STARTCHAR 25D8
ENCODING 9688
SWIDTH 607 0
DWIDTH 27 0
BBX 17 17 7 33
BITMAP
001E00
003F00
007F80
006380
002380
000380
000F80
000F00
000C00
0FCC00
0FC000
1FE000
1FE000
3CF000
787000
707800
F03800
ENDCHAR
STARTCHAR 25D9
ENCODING 9689
SWIDTH 607 0
DWIDTH 27 0
BBX 15 15 7 33
BITMAP
000E
1FDE
3FFC
3FFC
30F0
7000
0000
0FC0
0FC0
1FE0
1FE0
3CF0
7870
7078
F038
ENDCHAR
STARTCHAR F000
ENCODING 61440
SWIDTH 787 0
DWIDTH 35 0
BBX 31 36 2 -1
BITMAP
00000200
00000E00
00003E00
00003E00
00007E00
0000FC00
0000F800
0000F000
00F0C780
07FE3FE0
0FFFFFF8
1FFFFFFC
3FFFFFF8
3FFFFFF0
7FFFFFE0
7FFFFFC0
7FFFFFC0
7FFFFFC0
FFFFFFC0
FFFFFFC0
7FFFFFC0
7FFFFFC0
7FFFFFC0
7FFFFFE0
7FFFFFF0
3FFFFFF8
3FFFFFFE
3FFFFFFC
1FFFFFFC
1FFFFFF8
0FFFFFF0
07FFFFF0
07FFFFE0
03FFFFC0
01FE7F80
00700E00
ENDCHAR
STARTCHAR F001
ENCODING 61441
SWIDTH 562 0
DWIDTH 25 0
BBX 22 32 2 0
BITMAP
0000F0
07F3F8
1FF3F8
3FF3FC
7FF3FC
7FF3F8
FFF3F8
FF81F0
FE0000
FE0000
FFF3F8
FFF3F8
FFF3F8
FFF3F8
FFF3F8
FFF3F8
FE03F8
FE03F8
FE03F8
FE03F8
FE03F8
FE03F8
FE03F8
FE03F8
FE03F8
FE03F8
FE03F8
FE03F8
FE03F8
FE03F8
FE03F8
FE03F8
ENDCHAR
STARTCHAR F002
ENCODING 61442
SWIDTH 562 0
DWIDTH 25 0
BBX 21 31 2 0
BITMAP
07F3F8
1FF3F8
3FF3F8
7FF3F8
7FF3F8
FFF3F8
FF83F8
FE03F8
FE03F8
FFF3F8
FFF3F8
FFF3F8
FFF3F8
FFF3F8
FFF3F8
FE03F8
FE03F8
FE03F8
FE03F8
FE03F8
FE03F8
FE03F8
FE03F8
FE03F8
FE03F8
FE03F8
FE03F8
FE03F8
FE03F8
FE03F8
FE03F8
ENDCHAR
ENDFONT
